<svg width="68" height="68" viewBox="0 0 68 68" fill="none" xmlns="http://www.w3.org/2000/svg">
<g clip-path="url(#clip0_225910_615)">
<g filter="url(#filter0_f_225910_615)">
<path d="M18.3164 26.2436C18.3164 26.0264 18.2301 25.8181 18.0766 25.6646C17.923 25.511 17.7148 25.4248 17.4976 25.4248C15.0847 25.4281 12.7717 26.3883 11.0657 28.0947C9.35975 29.8011 8.40018 32.1144 8.39746 34.5273C8.39746 34.7444 8.48373 34.9527 8.63728 35.1062C8.79083 35.2598 8.99909 35.3461 9.21624 35.3461C9.43339 35.3461 9.64165 35.2598 9.7952 35.1062C9.94876 34.9527 10.035 34.7444 10.035 34.5273C10.0372 32.5485 10.8242 30.6513 12.2232 29.2519C13.6223 27.8525 15.5193 27.0651 17.4981 27.0623C17.7151 27.0622 17.9233 26.9759 18.0767 26.8224C18.2302 26.6688 18.3164 26.4606 18.3164 26.2436ZM25.4337 8.74976C24.1739 8.75124 22.9661 9.25235 22.0753 10.1431C21.1845 11.0339 20.6834 12.2417 20.682 13.5015C20.682 13.7186 20.7682 13.9269 20.9218 14.0804C21.0753 14.234 21.2836 14.3203 21.5007 14.3203C21.7179 14.3203 21.9262 14.234 22.0797 14.0804C22.2333 13.9269 22.3195 13.7186 22.3195 13.5015C22.3195 12.6755 22.6476 11.8833 23.2317 11.2993C23.8158 10.7152 24.6079 10.3871 25.4339 10.3871C26.2599 10.3871 27.0521 10.7152 27.6361 11.2993C28.2202 11.8833 28.5483 12.6755 28.5483 13.5015C28.5483 13.7186 28.6346 13.9269 28.7881 14.0804C28.9417 14.234 29.1499 14.3203 29.3671 14.3203C29.5843 14.3203 29.7925 14.234 29.9461 14.0804C30.0996 13.9269 30.1859 13.7186 30.1859 13.5015C30.1844 12.2416 29.6832 11.0338 28.7923 10.143C27.9014 9.25217 26.6935 8.75112 25.4337 8.74976ZM20.7854 20.7198H21.1363C22.2042 20.721 23.2281 21.1457 23.9832 21.9008C24.7383 22.656 25.1631 23.6798 25.1642 24.7478V27.3945C25.1631 28.4625 24.7383 29.4863 23.9832 30.2415C23.2281 30.9966 22.2042 31.4213 21.1363 31.4225C20.9191 31.4225 20.7109 31.5087 20.5573 31.6623C20.4037 31.8158 20.3175 32.0241 20.3175 32.2412C20.3175 32.4584 20.4037 32.6667 20.5573 32.8202C20.7109 32.9738 20.9191 33.06 21.1363 33.06C22.6383 33.0583 24.0783 32.4608 25.1405 31.3987C26.2026 30.3366 26.8 28.8966 26.8017 27.3945V24.7478C26.8 23.2457 26.2026 21.8057 25.1405 20.7436C24.0783 19.6815 22.6383 19.084 21.1363 19.0823H20.7854C20.5682 19.0823 20.3599 19.1685 20.2064 19.3221C20.0528 19.4757 19.9666 19.6839 19.9666 19.9011C19.9666 20.1182 20.0528 20.3265 20.2064 20.48C20.3599 20.6336 20.5682 20.7198 20.7854 20.7198ZM25.9895 41.3063C26.2067 41.3063 26.4149 41.22 26.5685 41.0665C26.722 40.9129 26.8083 40.7047 26.8083 40.4875C26.8083 40.2704 26.722 40.0621 26.5685 39.9086C26.4149 39.755 26.2067 39.6687 25.9895 39.6687H21.3108C20.0548 39.6674 18.8507 39.1678 17.9626 38.2797C17.0745 37.3916 16.5749 36.1875 16.5736 34.9315C16.5736 34.7144 16.4873 34.5061 16.3337 34.3525C16.1802 34.199 15.9719 34.1127 15.7548 34.1127C15.5376 34.1127 15.3294 34.199 15.1758 34.3525C15.0223 34.5061 14.936 34.7144 14.936 34.9315C14.938 36.6216 15.6102 38.2419 16.8053 39.437C18.0004 40.6321 19.6207 41.3043 21.3108 41.3063H25.9895ZM28.9722 51.0147C27.4216 51.0129 25.9351 50.3962 24.8387 49.2998C23.7423 48.2034 23.1255 46.7168 23.1238 45.1663C23.1238 44.9491 23.0375 44.7408 22.884 44.5873C22.7304 44.4337 22.5222 44.3475 22.305 44.3475C22.0879 44.3475 21.8796 44.4337 21.726 44.5873C21.5725 44.7408 21.4862 44.9491 21.4862 45.1663C21.4885 47.151 22.2779 49.0538 23.6813 50.4572C25.0847 51.8606 26.9875 52.65 28.9722 52.6522C29.1894 52.6522 29.3976 52.566 29.5512 52.4124C29.7047 52.2589 29.791 52.0506 29.791 51.8335C29.791 51.6163 29.7047 51.408 29.5512 51.2545C29.3976 51.1009 29.1894 51.0147 28.9722 51.0147ZM17.3549 49.3102C16.6987 49.2112 16.1085 48.856 15.7138 48.3225C15.3191 47.7889 15.1521 47.1206 15.2495 46.4641C15.267 46.3571 15.263 46.2477 15.2379 46.1422C15.2127 46.0368 15.1669 45.9373 15.103 45.8497C15.0391 45.7621 14.9585 45.688 14.8658 45.6318C14.773 45.5757 14.6701 45.5384 14.5628 45.5224C14.4556 45.5063 14.3463 45.5116 14.2411 45.5382C14.136 45.5647 14.0372 45.6118 13.9504 45.6769C13.8636 45.7419 13.7906 45.8235 13.7357 45.917C13.6807 46.0104 13.6448 46.1139 13.6302 46.2213C13.4689 47.3073 13.745 48.4129 14.3979 49.2956C15.0507 50.1783 16.027 50.7661 17.1125 50.93C17.153 50.9359 17.1938 50.9388 17.2347 50.9389C17.4414 50.9389 17.6404 50.8607 17.7919 50.72C17.9433 50.5793 18.0359 50.3865 18.0511 50.1804C18.0664 49.9742 18.003 49.77 17.8739 49.6086C17.7448 49.4472 17.5594 49.3406 17.3549 49.3102ZM25.6386 57.957C24.7083 57.956 23.8163 57.586 23.1584 56.9281C22.5006 56.2703 22.1306 55.3783 22.1296 54.4479C22.1296 54.2308 22.0433 54.0225 21.8897 53.869C21.7362 53.7154 21.5279 53.6292 21.3108 53.6292C21.0936 53.6292 20.8854 53.7154 20.7318 53.869C20.5783 54.0225 20.492 54.2308 20.492 54.4479C20.4935 55.8125 21.0362 57.1206 22.0011 58.0855C22.9659 59.0504 24.2741 59.5931 25.6386 59.5946C25.8558 59.5946 26.064 59.5083 26.2176 59.3547C26.3711 59.2012 26.4574 58.9929 26.4574 58.7758C26.4574 58.5586 26.3711 58.3504 26.2176 58.1968C26.064 58.0433 25.8558 57.957 25.6386 57.957Z" fill="#00F6FF"/>
<path d="M60.6414 36.9784C60.0652 36.979 59.4997 37.1341 59.0039 37.4276L48.3831 26.8068C48.2297 26.6532 48.0215 26.5669 47.8044 26.5668H34.7624V21.4997H57.5043C57.7035 22.2636 58.1741 22.9288 58.8283 23.3707C59.4824 23.8127 60.2752 24.0011 61.0582 23.9007C61.8413 23.8003 62.5609 23.418 63.0824 22.8254C63.6039 22.2328 63.8916 21.4704 63.8916 20.6809C63.8916 19.8915 63.6039 19.1291 63.0824 18.5365C62.5609 17.9438 61.8413 17.5616 61.0582 17.4612C60.2752 17.3608 59.4824 17.5492 58.8283 17.9912C58.1741 18.4331 57.7035 19.0983 57.5043 19.8622H34.7624V16.1973H47.8044C48.0215 16.1972 48.2297 16.1109 48.3831 15.9573L51.8922 12.4482C52.5938 12.8134 53.4045 12.9104 54.1724 12.7211C54.9404 12.5317 55.613 12.0689 56.0644 11.4194C56.5158 10.7699 56.715 9.9781 56.6247 9.1923C56.5345 8.4065 56.1609 7.68052 55.574 7.15027C54.9871 6.62002 54.227 6.32184 53.4361 6.31153C52.6452 6.30123 51.8777 6.57952 51.2772 7.0943C50.6766 7.60909 50.2843 8.32508 50.1736 9.10827C50.0629 9.89145 50.2414 10.6881 50.6757 11.3492L47.4652 14.5597H34.7624V13.3218C34.7607 10.9114 33.826 8.59535 32.1544 6.8589C30.4828 5.12244 28.2039 4.10041 25.7954 4.00701C23.3869 3.91361 21.0357 4.75609 19.2346 6.35788C17.4336 7.95966 16.3224 10.1964 16.134 12.5994C14.2168 12.8811 12.4649 13.8428 11.1981 15.3091C9.93119 16.7753 9.23384 18.6482 9.23332 20.586C9.23243 21.5701 9.41391 22.5459 9.76857 23.4639C8.01339 24.6899 6.57502 26.3158 5.57222 28.2074C4.56942 30.099 4.03096 32.202 4.0013 34.3427C3.97163 36.4835 4.45162 38.6006 5.40162 40.5192C6.35162 42.4379 7.74439 44.103 9.46492 45.3772C9.19765 46.4688 9.16144 47.6043 9.3586 48.7107C9.55577 49.8171 9.98196 50.8702 10.6099 51.8023C11.2378 52.7344 12.0535 53.525 13.0048 54.1235C13.9561 54.7219 15.0219 55.1149 16.134 55.2774C16.3224 57.6804 17.4336 59.9173 19.2348 61.519C21.036 63.1208 23.3873 63.9633 25.7959 63.8697C28.2045 63.7762 30.4833 62.754 32.1549 61.0174C33.8264 59.2807 34.7609 56.9645 34.7624 54.5541V54.4081H43.7222L47.2116 58.8426C46.7501 59.4878 46.5397 60.2792 46.6198 61.0684C46.6998 61.8576 47.0648 62.5906 47.6464 63.13C48.228 63.6694 48.9863 63.9784 49.7793 63.9989C50.5723 64.0194 51.3456 63.7502 51.9543 63.2416C52.5631 62.733 52.9655 62.0199 53.0863 61.2359C53.2071 60.4519 53.0379 59.6507 52.6105 58.9825C52.1831 58.3142 51.5267 57.8247 50.7643 57.6056C50.0019 57.3865 49.1858 57.4529 48.4688 57.7922L44.7632 53.0831C44.6866 52.9857 44.5889 52.907 44.4775 52.8529C44.366 52.7987 44.2438 52.7706 44.1199 52.7705H34.7624V47.8579H43.4096C43.6088 48.6218 44.0794 49.2869 44.7336 49.7289C45.3877 50.1708 46.1805 50.3592 46.9635 50.2589C47.7466 50.1585 48.4662 49.7762 48.9877 49.1835C49.5092 48.5909 49.7969 47.8285 49.7969 47.0391C49.7969 46.2497 49.5092 45.4873 48.9877 44.8946C48.4662 44.302 47.7466 43.9197 46.9635 43.8193C46.1805 43.719 45.3877 43.9074 44.7336 44.3493C44.0794 44.7912 43.6088 45.4564 43.4096 46.2203H34.7624V41.3076H48.5558C48.7549 42.0715 49.2256 42.7367 49.8797 43.1786C50.5339 43.6206 51.3266 43.809 52.1097 43.7086C52.8927 43.6082 53.6123 43.226 54.1338 42.6333C54.6554 42.0407 54.943 41.2783 54.943 40.4889C54.943 39.6994 54.6554 38.937 54.1338 38.3444C53.6123 37.7517 52.8927 37.3695 52.1097 37.2691C51.3266 37.1687 50.5339 37.3571 49.8797 37.7991C49.2256 38.241 48.7549 38.9062 48.5558 39.6701H34.7624V34.7574H39.684C39.9018 35.5163 40.3888 36.1697 41.0537 36.5955C41.7186 37.0213 42.5159 37.1902 43.2963 37.0706C44.0767 36.9509 44.7868 36.551 45.2937 35.9457C45.8006 35.3403 46.0695 34.571 46.0501 33.7817C46.0307 32.9924 45.7243 32.2372 45.1883 31.6575C44.6523 31.0777 43.9235 30.7132 43.1381 30.6321C42.3527 30.5509 41.5647 30.7588 40.9215 31.2167C40.2784 31.6746 39.8241 32.3512 39.6437 33.1198H34.7624V28.2072H47.4652L57.845 38.5865C57.4843 39.2036 57.3377 39.9225 57.4278 40.6315C57.5179 41.3405 57.8397 41.9999 58.3432 42.5071C58.8467 43.0144 59.5037 43.3411 60.212 43.4365C60.9203 43.5318 61.6403 43.3905 62.26 43.0345C62.8798 42.6785 63.3646 42.1278 63.639 41.4679C63.9134 40.8079 63.9622 40.0758 63.7777 39.3854C63.5931 38.6949 63.1857 38.0847 62.6186 37.6497C62.0515 37.2147 61.3566 36.9792 60.6419 36.9798L60.6414 36.9784ZM60.6414 19.0724C60.9596 19.0723 61.2706 19.1666 61.5352 19.3433C61.7998 19.5199 62.0061 19.7711 62.1279 20.0651C62.2497 20.359 62.2816 20.6824 62.2196 20.9945C62.1576 21.3065 62.0044 21.5932 61.7795 21.8182C61.5545 22.0432 61.2679 22.1964 60.9559 22.2586C60.6438 22.3207 60.3204 22.2888 60.0264 22.1671C59.7325 22.0454 59.4812 21.8392 59.3045 21.5747C59.1277 21.3101 59.0334 20.9991 59.0334 20.6809C59.0337 20.2545 59.2033 19.8457 59.5047 19.5441C59.8062 19.2425 60.215 19.0729 60.6414 19.0724ZM53.3894 7.95992C53.7074 7.95992 54.0183 8.05423 54.2828 8.23093C54.5472 8.40763 54.7534 8.65878 54.8751 8.95262C54.9968 9.24645 55.0286 9.56979 54.9666 9.88172C54.9045 10.1937 54.7514 10.4802 54.5265 10.7051C54.3016 10.93 54.0151 11.0831 53.7031 11.1452C53.3912 11.2072 53.0678 11.1754 52.774 11.0537C52.4802 10.932 52.229 10.7259 52.0523 10.4614C51.8756 10.197 51.7813 9.88605 51.7813 9.568C51.7818 9.14166 51.9514 8.73293 52.2529 8.43146C52.5543 8.13 52.9631 7.96042 53.3894 7.95992ZM51.4594 60.723C51.4594 61.041 51.3651 61.352 51.1884 61.6164C51.0117 61.8808 50.7606 62.087 50.4667 62.2087C50.1729 62.3304 49.8495 62.3622 49.5376 62.3002C49.2257 62.2381 48.9391 62.085 48.7142 61.8601C48.4893 61.6352 48.3362 61.3487 48.2741 61.0367C48.2121 60.7248 48.2439 60.4014 48.3657 60.1076C48.4874 59.8138 48.6935 59.5626 48.9579 59.3859C49.2224 59.2092 49.5333 59.1149 49.8513 59.1149C50.2777 59.1154 50.6864 59.285 50.9879 59.5865C51.2893 59.8879 51.4589 60.2967 51.4594 60.723ZM46.5467 45.4296C46.8649 45.4295 47.176 45.5238 47.4406 45.7005C47.7052 45.8772 47.9114 46.1284 48.0332 46.4224C48.155 46.7163 48.1869 47.0398 48.1249 47.3519C48.0628 47.6639 47.9096 47.9506 47.6846 48.1756C47.4596 48.4006 47.173 48.5538 46.8609 48.6158C46.5488 48.6779 46.2254 48.646 45.9314 48.5242C45.6375 48.4024 45.3863 48.1961 45.2095 47.9315C45.0328 47.6669 44.9386 47.3559 44.9387 47.0377C44.9391 46.6113 45.1087 46.2026 45.4102 45.9011C45.7117 45.5997 46.1204 45.4301 46.5467 45.4296ZM51.6933 38.8794C52.0115 38.8793 52.3226 38.9735 52.5872 39.1503C52.8518 39.327 53.058 39.5782 53.1798 39.8721C53.3016 40.1661 53.3335 40.4895 53.2715 40.8016C53.2094 41.1137 53.0562 41.4003 52.8312 41.6253C52.6062 41.8503 52.3196 42.0035 52.0075 42.0656C51.6954 42.1276 51.372 42.0957 51.078 41.9739C50.7841 41.8521 50.5329 41.6459 50.3562 41.3813C50.1794 41.1167 50.0852 40.8056 50.0853 40.4874C50.0858 40.0611 50.2553 39.6524 50.5568 39.3509C50.8583 39.0494 51.267 38.8799 51.6933 38.8794ZM42.8009 32.2501C43.1191 32.25 43.4301 32.3442 43.6947 32.5209C43.9593 32.6976 44.1656 32.9488 44.2874 33.2427C44.4092 33.5366 44.4411 33.8601 44.3791 34.1721C44.3171 34.4842 44.1639 34.7709 43.939 34.9959C43.714 35.2209 43.4274 35.3741 43.1154 35.4362C42.8033 35.4983 42.4799 35.4665 42.1859 35.3448C41.892 35.223 41.6407 35.0169 41.464 34.7523C41.2872 34.4878 41.1929 34.1768 41.1929 33.8586C41.1932 33.4322 41.3627 33.0233 41.6642 32.7218C41.9657 32.4202 42.3745 32.2506 42.8009 32.2501ZM33.1248 54.5531C33.1116 56.5826 32.2967 58.5245 30.8579 59.9558C29.419 61.387 27.4727 62.1915 25.4432 62.1939C23.4137 62.1963 21.4656 61.3964 20.0233 59.9686C18.581 58.5408 17.7615 56.6008 17.7435 54.5714V54.5335C17.7435 54.3238 17.6632 54.1221 17.5189 53.97C17.3747 53.8178 17.1776 53.7268 16.9682 53.7156C15.9816 53.6647 15.02 53.3872 14.158 52.9045C13.2961 52.4219 12.5569 51.7471 11.9978 50.9326C11.4388 50.1181 11.075 49.1857 10.9345 48.2078C10.7941 47.2299 10.8809 46.2328 11.1881 45.2939C11.2432 45.1248 11.2417 44.9424 11.1839 44.7743C11.1261 44.6061 11.015 44.4613 10.8676 44.3619C9.22687 43.256 7.88885 41.7573 6.9754 40.0021C6.06196 38.2469 5.60211 36.2911 5.63773 34.3128C5.67335 32.3345 6.20332 30.3966 7.17936 28.6754C8.1554 26.9543 9.54651 25.5046 11.226 24.4586C11.3978 24.3513 11.5238 24.1843 11.5797 23.9896C11.6355 23.7949 11.6172 23.5864 11.5282 23.4044C11.0598 22.4498 10.8356 21.3939 10.8759 20.3313C10.9161 19.2687 11.2195 18.2328 11.7588 17.3163C12.2981 16.3999 13.0565 15.6317 13.9658 15.0806C14.8752 14.5295 15.9072 14.2127 16.9691 14.1588C17.1785 14.1476 17.3756 14.0566 17.5199 13.9044C17.6641 13.7523 17.7445 13.5506 17.7444 13.3409V13.3035C17.7624 11.2741 18.5818 9.33408 20.0241 7.90623C21.4663 6.47839 23.4144 5.67847 25.4439 5.68081C27.4734 5.68316 29.4197 6.48758 30.8586 7.91876C32.2975 9.34993 33.1125 11.2919 33.1258 13.3213L33.1248 54.5531ZM60.6414 41.8331C60.3233 41.8331 60.0123 41.7387 59.7477 41.5619C59.4832 41.3852 59.277 41.1339 59.1553 40.84C59.0336 40.546 59.0017 40.2226 59.0638 39.9105C59.1259 39.5985 59.2792 39.3119 59.5042 39.0869C59.7292 38.862 60.0159 38.7088 60.3279 38.6468C60.64 38.5848 60.9634 38.6167 61.2573 38.7385C61.5512 38.8604 61.8024 39.0666 61.9791 39.3312C62.1558 39.5958 62.2501 39.9068 62.25 40.225C62.2494 40.6513 62.0797 41.06 61.7781 41.3614C61.4766 41.6628 61.0678 41.8327 60.6414 41.8331Z" fill="#00F6FF"/>
<path d="M58.2148 25.1646C57.5728 25.1645 56.9452 25.3548 56.4113 25.7114C55.8774 26.068 55.4613 26.575 55.2155 27.1681C54.9697 27.7612 54.9054 28.4139 55.0306 29.0437C55.1558 29.6734 55.4649 30.2518 55.9189 30.7058C56.3728 31.1599 56.9512 31.4691 57.5809 31.5944C58.2106 31.7197 58.8633 31.6554 59.4565 31.4097C60.0497 31.164 60.5567 30.748 60.9134 30.2142C61.2701 29.6803 61.4605 29.0527 61.4605 28.4107C61.4595 27.5501 61.1172 26.7251 60.5088 26.1166C59.9003 25.508 59.0754 25.1657 58.2148 25.1646ZM58.2148 30.0187C57.8967 30.0188 57.5856 29.9246 57.321 29.7478C57.0564 29.5711 56.8502 29.3199 56.7284 29.026C56.6065 28.732 56.5747 28.4086 56.6367 28.0965C56.6988 27.7844 56.852 27.4978 57.077 27.2728C57.3019 27.0478 57.5886 26.8946 57.9007 26.8325C58.2127 26.7705 58.5362 26.8024 58.8302 26.9242C59.1241 27.046 59.3753 27.2522 59.552 27.5168C59.7287 27.7814 59.823 28.0925 59.8229 28.4107C59.8224 28.837 59.6528 29.2457 59.3514 29.5472C59.0499 29.8487 58.6412 30.0182 58.2148 30.0187ZM58.2148 47.4124C57.5728 47.4123 56.9452 47.6026 56.4113 47.9593C55.8774 48.3159 55.4613 48.8228 55.2155 49.416C54.9697 50.0091 54.9054 50.6618 55.0306 51.2915C55.1558 51.9212 55.4649 52.4997 55.9189 52.9537C56.3728 53.4077 56.9512 53.7169 57.5809 53.8422C58.2106 53.9675 58.8633 53.9033 59.4565 53.6576C60.0497 53.4119 60.5567 52.9959 60.9134 52.462C61.2701 51.9282 61.4605 51.3006 61.4605 50.6585C61.4595 49.798 61.1172 48.973 60.5088 48.3644C59.9003 47.7559 59.0754 47.4135 58.2148 47.4124ZM58.2148 52.2666C57.8967 52.2667 57.5856 52.1724 57.321 51.9958C57.0565 51.8191 56.8502 51.5679 56.7284 51.274C56.6066 50.98 56.5747 50.6566 56.6367 50.3445C56.6987 50.0325 56.8518 49.7458 57.0768 49.5208C57.3017 49.2958 57.5883 49.1426 57.9004 49.0805C58.2124 49.0184 58.5359 49.0502 58.8298 49.1719C59.1238 49.2936 59.375 49.4998 59.5518 49.7644C59.7286 50.0289 59.8229 50.3399 59.8229 50.6581C59.8225 51.0845 59.653 51.4933 59.3515 51.7949C59.0501 52.0965 58.6413 52.2661 58.2148 52.2666Z" fill="#00F6FF"/>
</g>
<g clip-path="url(#clip1_225910_615)">
<path d="M18.3433 26.2851C18.3433 26.0675 18.2568 25.8589 18.103 25.7051C17.9492 25.5512 17.7405 25.4648 17.5229 25.4648C15.1055 25.4681 12.7881 26.4301 11.079 28.1397C9.36985 29.8493 8.40849 32.1669 8.40576 34.5843C8.40576 34.8019 8.49219 35.0105 8.64603 35.1644C8.79986 35.3182 9.00851 35.4046 9.22607 35.4046C9.44363 35.4046 9.65228 35.3182 9.80612 35.1644C9.95996 35.0105 10.0464 34.8019 10.0464 34.5843C10.0486 32.6018 10.837 30.7011 12.2387 29.2991C13.6404 27.897 15.5409 27.1082 17.5234 27.1054C17.7409 27.1053 17.9494 27.0188 18.1032 26.865C18.2569 26.7112 18.3433 26.5026 18.3433 26.2851ZM25.4739 8.75854C24.2117 8.76003 23.0017 9.26208 22.1093 10.1545C21.2168 11.047 20.7147 12.257 20.7133 13.5192C20.7133 13.7367 20.7997 13.9454 20.9535 14.0992C21.1074 14.2531 21.316 14.3395 21.5336 14.3395C21.7511 14.3395 21.9598 14.2531 22.1136 14.0992C22.2675 13.9454 22.3539 13.7367 22.3539 13.5192C22.3539 12.6916 22.6826 11.898 23.2678 11.3128C23.8529 10.7277 24.6466 10.3989 25.4741 10.3989C26.3017 10.3989 27.0953 10.7277 27.6805 11.3128C28.2656 11.898 28.5944 12.6916 28.5944 13.5192C28.5944 13.7367 28.6808 13.9454 28.8346 14.0992C28.9885 14.2531 29.1971 14.3395 29.4147 14.3395C29.6322 14.3395 29.8409 14.2531 29.9947 14.0992C30.1486 13.9454 30.235 13.7367 30.235 13.5192C30.2335 12.257 29.7314 11.0469 28.8388 10.1544C27.9462 9.2619 26.7361 8.75991 25.4739 8.75854ZM20.8169 20.751H21.1684C22.2383 20.7522 23.2641 21.1777 24.0207 21.9342C24.7772 22.6908 25.2028 23.7166 25.2039 24.7865V27.4382C25.2028 28.5082 24.7772 29.534 24.0207 30.2905C23.2641 31.0471 22.2383 31.4726 21.1684 31.4737C20.9509 31.4737 20.7422 31.5601 20.5884 31.714C20.4345 31.8678 20.3481 32.0765 20.3481 32.294C20.3481 32.5116 20.4345 32.7202 20.5884 32.8741C20.7422 33.0279 20.9509 33.1143 21.1684 33.1143C22.6733 33.1126 24.116 32.514 25.1801 31.4499C26.2442 30.3858 26.8428 28.9431 26.8445 27.4382V24.7865C26.8428 23.2817 26.2442 21.8389 25.1801 20.7748C24.116 19.7107 22.6733 19.1122 21.1684 19.1104H20.8169C20.5993 19.1104 20.3906 19.1968 20.2368 19.3507C20.083 19.5045 19.9965 19.7132 19.9965 19.9307C19.9965 20.1483 20.083 20.3569 20.2368 20.5108C20.3906 20.6646 20.5993 20.751 20.8169 20.751ZM26.0308 41.376C26.2483 41.376 26.457 41.2896 26.6108 41.1358C26.7646 40.9819 26.8511 40.7733 26.8511 40.5557C26.8511 40.3382 26.7646 40.1295 26.6108 39.9757C26.457 39.8218 26.2483 39.7354 26.0308 39.7354H21.3433C20.0849 39.7341 18.8785 39.2336 17.9888 38.3438C17.099 37.454 16.5985 36.2476 16.5972 34.9893C16.5972 34.7718 16.5107 34.5631 16.3569 34.4093C16.2031 34.2554 15.9944 34.169 15.7769 34.169C15.5593 34.169 15.3506 34.2554 15.1968 34.4093C15.043 34.5631 14.9565 34.7718 14.9565 34.9893C14.9585 36.6826 15.632 38.3059 16.8294 39.5032C18.0267 40.7005 19.65 41.3741 21.3433 41.376H26.0308ZM29.019 51.1026C27.4656 51.1009 25.9762 50.483 24.8778 49.3845C23.7793 48.2861 23.1614 46.7967 23.1597 45.2432C23.1597 45.0257 23.0732 44.817 22.9194 44.6632C22.7656 44.5093 22.5569 44.4229 22.3394 44.4229C22.1218 44.4229 21.9131 44.5093 21.7593 44.6632C21.6055 44.817 21.519 45.0257 21.519 45.2432C21.5213 47.2317 22.3122 49.138 23.7182 50.5441C25.1242 51.9501 27.0306 52.741 29.019 52.7432C29.2366 52.7432 29.4453 52.6568 29.5991 52.503C29.7529 52.3491 29.8394 52.1405 29.8394 51.9229C29.8394 51.7054 29.7529 51.4967 29.5991 51.3429C29.4453 51.189 29.2366 51.1026 29.019 51.1026ZM17.38 49.395C16.7225 49.2958 16.1312 48.9399 15.7358 48.4053C15.3403 47.8708 15.1731 47.2013 15.2706 46.5435C15.2881 46.4363 15.2842 46.3267 15.259 46.221C15.2338 46.1154 15.1879 46.0158 15.1239 45.928C15.0599 45.8402 14.9791 45.766 14.8862 45.7097C14.7933 45.6534 14.6901 45.6161 14.5827 45.6C14.4753 45.5839 14.3657 45.5893 14.2604 45.6158C14.155 45.6424 14.056 45.6897 13.9691 45.7548C13.8822 45.82 13.809 45.9017 13.754 45.9954C13.6989 46.089 13.663 46.1926 13.6483 46.3003C13.4867 47.3883 13.7633 48.496 14.4174 49.3803C15.0714 50.2647 16.0495 50.8536 17.1372 51.0178C17.1777 51.0236 17.2186 51.0266 17.2595 51.0267C17.4666 51.0267 17.666 50.9483 17.8177 50.8074C17.9695 50.6664 18.0623 50.4733 18.0775 50.2668C18.0928 50.0602 18.0293 49.8556 17.9 49.6939C17.7706 49.5322 17.5848 49.4254 17.38 49.395ZM25.6792 58.0579C24.7471 58.0569 23.8535 57.6862 23.1944 57.0271C22.5353 56.368 22.1646 55.4744 22.1636 54.5423C22.1636 54.3247 22.0771 54.1161 21.9233 53.9622C21.7695 53.8084 21.5608 53.722 21.3433 53.722C21.1257 53.722 20.9171 53.8084 20.7632 53.9622C20.6094 54.1161 20.5229 54.3247 20.5229 54.5423C20.5244 55.9094 21.0682 57.22 22.0348 58.1867C23.0015 59.1533 24.3121 59.6971 25.6792 59.6985C25.8968 59.6985 26.1054 59.6121 26.2592 59.4583C26.4131 59.3044 26.4995 59.0958 26.4995 58.8782C26.4995 58.6607 26.4131 58.452 26.2592 58.2982C26.1054 58.1443 25.8968 58.0579 25.6792 58.0579Z" fill="#DEE9F7"/>
<path d="M60.7475 37.0401C60.1702 37.0407 59.6037 37.1961 59.1069 37.4901L48.4662 26.8495C48.3125 26.6957 48.1039 26.6092 47.8864 26.6091H34.82V21.5325H57.6045C57.804 22.2978 58.2756 22.9642 58.931 23.407C59.5863 23.8498 60.3806 24.0385 61.1651 23.938C61.9496 23.8374 62.6705 23.4544 63.193 22.8607C63.7155 22.2669 64.0037 21.5031 64.0037 20.7122C64.0037 19.9213 63.7155 19.1575 63.193 18.5637C62.6705 17.9699 61.9496 17.587 61.1651 17.4864C60.3806 17.3858 59.5863 17.5746 58.931 18.0173C58.2756 18.4601 57.804 19.1265 57.6045 19.8919H34.82V16.2201H47.8864C48.1039 16.22 48.3125 16.1335 48.4662 15.9797L51.9819 12.4641C52.6848 12.8299 53.497 12.9271 54.2664 12.7374C55.0358 12.5477 55.7097 12.084 56.1619 11.4333C56.6141 10.7825 56.8137 9.98929 56.7233 9.20202C56.6328 8.41475 56.2586 7.68742 55.6706 7.15617C55.0826 6.62493 54.3211 6.32618 53.5287 6.31586C52.7363 6.30554 51.9673 6.58435 51.3657 7.1001C50.764 7.61585 50.371 8.33318 50.2601 9.11783C50.1491 9.90248 50.328 10.7007 50.7631 11.363L47.5466 14.5795H34.82V13.3392C34.8183 10.9244 33.8819 8.60396 32.2071 6.86425C30.5324 5.12454 28.2492 4.1006 25.8362 4.00703C23.4232 3.91345 21.0676 4.7575 19.2632 6.36229C17.4587 7.96708 16.3455 10.208 16.1567 12.6155C14.236 12.8977 12.4808 13.8613 11.2115 15.3302C9.94229 16.7992 9.24364 18.6757 9.24312 20.617C9.24222 21.603 9.42404 22.5806 9.77937 23.5003C8.02091 24.7286 6.57984 26.3576 5.57517 28.2527C4.57049 30.1478 4.03102 32.2548 4.0013 34.3995C3.97158 36.5443 4.45246 38.6654 5.40424 40.5876C6.35602 42.5099 7.7514 44.1781 9.47515 45.4547C9.20738 46.5483 9.1711 47.6859 9.36864 48.7944C9.56617 49.9029 9.99317 50.9579 10.6222 51.8918C11.2513 52.8256 12.0686 53.6177 13.0217 54.2173C13.9747 54.8169 15.0426 55.2107 16.1567 55.3734C16.3455 57.7809 17.4588 60.022 19.2634 61.6267C21.0679 63.2315 23.4236 64.0755 25.8367 63.9818C28.2498 63.8881 30.5329 62.864 32.2076 61.1241C33.8823 59.3842 34.8185 57.0636 34.82 54.6487V54.5025H43.7966L47.2925 58.9453C46.8302 59.5917 46.6194 60.3845 46.6996 61.1752C46.7797 61.9659 47.1454 62.7003 47.7281 63.2407C48.3108 63.7812 49.0705 64.0907 49.865 64.1113C50.6595 64.1318 51.4342 63.8621 52.0441 63.3525C52.654 62.8429 53.0572 62.1285 53.1782 61.343C53.2992 60.5576 53.1298 59.7549 52.7015 59.0854C52.2733 58.4159 51.6157 57.9255 50.8519 57.706C50.088 57.4865 49.2704 57.5529 48.552 57.893L44.8395 53.175C44.7628 53.0774 44.6649 52.9986 44.5533 52.9443C44.4416 52.8901 44.3191 52.8619 44.195 52.8619H34.82V47.94H43.4834C43.6829 48.7053 44.1545 49.3717 44.8099 49.8145C45.4652 50.2573 46.2595 50.446 47.044 50.3455C47.8285 50.2449 48.5494 49.8619 49.0719 49.2682C49.5944 48.6744 49.8827 47.9106 49.8827 47.1197C49.8827 46.3288 49.5944 45.565 49.0719 44.9712C48.5494 44.3774 47.8285 43.9944 47.044 43.8939C46.2595 43.7933 45.4652 43.9821 44.8099 44.4248C44.1545 44.8676 43.6829 45.534 43.4834 46.2994H34.82V41.3775H48.6392C48.8387 42.1428 49.3103 42.8092 49.9656 43.252C50.621 43.6948 51.4153 43.8835 52.1998 43.783C52.9843 43.6824 53.7052 43.2994 54.2277 42.7057C54.7502 42.1119 55.0384 41.3481 55.0384 40.5572C55.0384 39.7663 54.7502 39.0025 54.2277 38.4087C53.7052 37.8149 52.9843 37.4319 52.1998 37.3314C51.4153 37.2308 50.621 37.4196 49.9656 37.8623C49.3103 38.3051 48.8387 38.9715 48.6392 39.7369H34.82V34.815H39.7508C39.9691 35.5753 40.4569 36.23 41.1231 36.6565C41.7892 37.0831 42.588 37.2523 43.3699 37.1325C44.1518 37.0126 44.8632 36.612 45.371 36.0055C45.8788 35.399 46.1482 34.6282 46.1288 33.8375C46.1094 33.0467 45.8024 32.2901 45.2654 31.7093C44.7285 31.1285 43.9982 30.7632 43.2114 30.6819C42.4246 30.6006 41.6351 30.8089 40.9907 31.2676C40.3463 31.7264 39.8912 32.4043 39.7105 33.1744H34.82V28.2525H47.5466L57.9458 38.6512C57.5845 39.2695 57.4376 39.9897 57.5279 40.7001C57.6181 41.4104 57.9405 42.071 58.445 42.5792C58.9494 43.0874 59.6076 43.4147 60.3173 43.5103C61.0269 43.6059 61.7482 43.4643 62.3691 43.1076C62.99 42.751 63.4757 42.1992 63.7507 41.538C64.0256 40.8769 64.0745 40.1434 63.8896 39.4516C63.7047 38.7599 63.2965 38.1485 62.7283 37.7127C62.1602 37.2769 61.464 37.0409 60.748 37.0415L60.7475 37.0401ZM60.7475 19.1006C61.0662 19.1005 61.3779 19.195 61.643 19.372C61.908 19.549 62.1147 19.8007 62.2367 20.0951C62.3588 20.3896 62.3907 20.7136 62.3286 21.0263C62.2665 21.3389 62.113 21.6261 61.8877 21.8516C61.6623 22.077 61.3752 22.2305 61.0625 22.2927C60.7499 22.355 60.4259 22.3231 60.1314 22.2011C59.8369 22.0792 59.5851 21.8726 59.408 21.6076C59.2309 21.3425 59.1364 21.0309 59.1364 20.7122C59.1368 20.285 59.3066 19.8753 59.6087 19.5732C59.9107 19.2711 60.3203 19.1011 60.7475 19.1006ZM53.4819 7.96733C53.8005 7.96733 54.112 8.06182 54.3769 8.23885C54.6419 8.41588 54.8484 8.6675 54.9703 8.96189C55.0923 9.25628 55.1242 9.58022 55.062 9.89274C54.9998 10.2053 54.8464 10.4923 54.6211 10.7176C54.3958 10.943 54.1087 11.0964 53.7962 11.1586C53.4837 11.2207 53.1597 11.1888 52.8653 11.0669C52.5709 10.9449 52.3193 10.7384 52.1423 10.4735C51.9653 10.2086 51.8708 9.89707 51.8708 9.57843C51.8713 9.15129 52.0412 8.74179 52.3432 8.43976C52.6452 8.13773 53.0547 7.96783 53.4819 7.96733ZM51.5483 60.8292C51.5483 61.1479 51.4538 61.4593 51.2768 61.7243C51.0997 61.9892 50.8481 62.1957 50.5537 62.3177C50.2593 62.4396 49.9354 62.4715 49.6229 62.4093C49.3104 62.3472 49.0233 62.1937 48.798 61.9684C48.5726 61.7431 48.4192 61.456 48.357 61.1435C48.2949 60.831 48.3268 60.5071 48.4487 60.2127C48.5707 59.9183 48.7772 59.6667 49.0421 59.4896C49.3071 59.3126 49.6185 59.2181 49.9372 59.2181C50.3643 59.2186 50.7738 59.3885 51.0758 59.6905C51.3779 59.9926 51.5478 60.4021 51.5483 60.8292ZM46.6264 45.5072C46.9452 45.5071 47.2568 45.6015 47.5219 45.7786C47.787 45.9556 47.9936 46.2073 48.1157 46.5018C48.2377 46.7963 48.2697 47.1204 48.2075 47.433C48.1453 47.7457 47.9918 48.0329 47.7664 48.2583C47.541 48.4837 47.2538 48.6372 46.9412 48.6994C46.6285 48.7615 46.3044 48.7296 46.0099 48.6075C45.7154 48.4855 45.4638 48.2789 45.2867 48.0138C45.1097 47.7487 45.0152 47.437 45.0153 47.1183C45.0158 46.6911 45.1857 46.2816 45.4877 45.9796C45.7898 45.6776 46.1993 45.5077 46.6264 45.5072ZM51.7826 38.9447C52.1014 38.9446 52.4131 39.039 52.6782 39.2161C52.9433 39.3931 53.1499 39.6448 53.2719 39.9393C53.394 40.2338 53.4259 40.5579 53.3637 40.8705C53.3016 41.1832 53.1481 41.4704 52.9227 41.6958C52.6973 41.9212 52.4101 42.0747 52.0974 42.1369C51.7847 42.199 51.4607 42.1671 51.1662 42.045C50.8717 41.923 50.62 41.7164 50.443 41.4513C50.2659 41.1862 50.1715 40.8745 50.1716 40.5558C50.1721 40.1286 50.342 39.7191 50.644 39.4171C50.946 39.1151 51.3555 38.9452 51.7826 38.9447ZM42.8736 32.303C43.1923 32.3029 43.504 32.3973 43.7691 32.5743C44.0341 32.7514 44.2408 33.003 44.3628 33.2975C44.4849 33.5919 44.5168 33.916 44.4547 34.2286C44.3926 34.5413 44.2391 34.8285 44.0138 35.0539C43.7884 35.2793 43.5013 35.4329 43.1886 35.4951C42.876 35.5573 42.5519 35.5254 42.2574 35.4035C41.9629 35.2815 41.7112 35.0749 41.5341 34.8099C41.357 34.5449 41.2625 34.2333 41.2625 33.9145C41.2629 33.4873 41.4327 33.0777 41.7348 32.7756C42.0368 32.4734 42.4464 32.3035 42.8736 32.303ZM33.1794 54.6478C33.1661 56.681 32.3497 58.6266 30.9081 60.0605C29.4666 61.4944 27.5166 62.3004 25.4834 62.3028C23.4501 62.3053 21.4983 61.5039 20.0533 60.0734C18.6083 58.6429 17.7873 56.6993 17.7692 54.6661V54.6281C17.7693 54.4181 17.6887 54.216 17.5442 54.0635C17.3997 53.9111 17.2023 53.8199 16.9925 53.8087C16.0041 53.7577 15.0407 53.4796 14.1771 52.9961C13.3135 52.5125 12.5729 51.8365 12.0128 51.0205C11.4527 50.2044 11.0882 49.2703 10.9475 48.2906C10.8068 47.3109 10.8938 46.3119 11.2016 45.3712C11.2568 45.2018 11.2553 45.0191 11.1973 44.8506C11.1394 44.6821 11.0282 44.5371 10.8805 44.4375C9.23665 43.3295 7.89613 41.828 6.98098 40.0695C6.06582 38.3111 5.60511 36.3516 5.6408 34.3696C5.67649 32.3876 6.20744 30.446 7.18531 28.7216C8.16318 26.9973 9.55689 25.5449 11.2395 24.4969C11.4117 24.3895 11.5379 24.2221 11.5938 24.027C11.6498 23.8319 11.6314 23.6231 11.5423 23.4408C11.073 22.4844 10.8484 21.4265 10.8887 20.3619C10.9291 19.2973 11.233 18.2594 11.7733 17.3413C12.3136 16.4231 13.0734 15.6535 13.9845 15.1013C14.8956 14.5492 15.9295 14.2319 16.9934 14.1778C17.2032 14.1666 17.4007 14.0754 17.5452 13.923C17.6897 13.7706 17.7702 13.5685 17.7702 13.3584V13.3209C17.7882 11.2877 18.6091 9.34407 20.0541 7.91355C21.499 6.48303 23.4508 5.68161 25.4841 5.68396C27.5173 5.68631 29.4673 6.49224 30.9089 7.92609C32.3505 9.35995 33.167 11.3055 33.1803 13.3387L33.1794 54.6478ZM60.7475 41.9039C60.4287 41.9039 60.1171 41.8094 59.8521 41.6323C59.5871 41.4552 59.3805 41.2034 59.2586 40.9089C59.1366 40.6144 59.1047 40.2904 59.1669 39.9778C59.2292 39.6651 59.3827 39.378 59.6081 39.1526C59.8335 38.9273 60.1207 38.7738 60.4334 38.7117C60.746 38.6495 61.0701 38.6815 61.3645 38.8036C61.659 38.9256 61.9107 39.1323 62.0877 39.3973C62.2647 39.6624 62.3591 39.974 62.3591 40.2928C62.3584 40.7199 62.1884 41.1294 61.8863 41.4313C61.5842 41.7333 61.1746 41.9035 60.7475 41.9039Z" fill="#DEE9F7"/>
<path d="M58.3161 25.2041C57.6729 25.204 57.0441 25.3947 56.5092 25.752C55.9743 26.1093 55.5574 26.6172 55.3112 27.2114C55.0649 27.8057 55.0005 28.4596 55.1259 29.0905C55.2513 29.7214 55.561 30.3009 56.0159 30.7558C56.4707 31.2106 57.0501 31.5204 57.681 31.646C58.3119 31.7715 58.9658 31.7071 59.5601 31.461C60.1544 31.2148 60.6624 30.798 61.0197 30.2632C61.3771 29.7283 61.5679 29.0995 61.5679 28.4563C61.5669 27.5941 61.224 26.7676 60.6144 26.1579C60.0048 25.5482 59.1783 25.2052 58.3161 25.2041ZM58.3161 30.0674C57.9974 30.0675 57.6857 29.973 57.4206 29.796C57.1555 29.6189 56.9489 29.3672 56.8269 29.0728C56.7048 28.7783 56.6729 28.4542 56.735 28.1415C56.7972 27.8289 56.9507 27.5417 57.1761 27.3163C57.4015 27.0909 57.6887 26.9374 58.0014 26.8752C58.314 26.813 58.6381 26.845 58.9326 26.967C59.2271 27.0891 59.4788 27.2957 59.6558 27.5608C59.8329 27.8259 59.9273 28.1375 59.9272 28.4563C59.9267 28.8834 59.7568 29.2929 59.4548 29.595C59.1528 29.897 58.7433 30.0669 58.3161 30.0674ZM58.3161 47.4936C57.6729 47.4935 57.0441 47.6842 56.5092 48.0415C55.9743 48.3988 55.5574 48.9067 55.3112 49.5009C55.0649 50.0952 55.0005 50.7491 55.1259 51.38C55.2513 52.0109 55.561 52.5904 56.0159 53.0453C56.4707 53.5002 57.0501 53.81 57.681 53.9355C58.3119 54.061 58.9658 53.9966 59.5601 53.7505C60.1544 53.5044 60.6624 53.0875 61.0197 52.5527C61.3771 52.0179 61.5679 51.3891 61.5679 50.7458C61.5669 49.8837 61.224 49.0571 60.6144 48.4474C60.0048 47.8378 59.1783 47.4948 58.3161 47.4936ZM58.3161 52.3569C57.9974 52.357 57.6858 52.2626 57.4207 52.0855C57.1556 51.9085 56.949 51.6569 56.8269 51.3624C56.7049 51.0679 56.6729 50.7439 56.735 50.4312C56.7971 50.1186 56.9506 49.8314 57.176 49.606C57.4013 49.3805 57.6885 49.227 58.0011 49.1648C58.3137 49.1026 58.6378 49.1345 58.9323 49.2564C59.2268 49.3784 59.4785 49.5849 59.6556 49.85C59.8327 50.115 59.9272 50.4266 59.9272 50.7454C59.9269 51.1726 59.757 51.5822 59.455 51.8843C59.1529 52.1865 58.7434 52.3564 58.3161 52.3569Z" fill="#DEE9F7"/>
</g>
</g>
<defs>
<filter id="filter0_f_225910_615" x="-6" y="-6" width="80" height="80" filterUnits="userSpaceOnUse" color-interpolation-filters="sRGB">
<feFlood flood-opacity="0" result="BackgroundImageFix"/>
<feBlend mode="normal" in="SourceGraphic" in2="BackgroundImageFix" result="shape"/>
<feGaussianBlur stdDeviation="3" result="effect1_foregroundBlur_225910_615"/>
</filter>
<clipPath id="clip0_225910_615">
<rect width="68" height="68" fill="white"/>
</clipPath>
<clipPath id="clip1_225910_615">
<rect width="60" height="60" fill="white" transform="translate(4 4)"/>
</clipPath>
</defs>
</svg>
