<svg width="68" height="68" viewBox="0 0 68 68" fill="none" xmlns="http://www.w3.org/2000/svg">
<g clip-path="url(#clip0_225910_603)">
<g filter="url(#filter0_f_225910_603)">
<path d="M62.6875 61.2956H60.2076V22.3889C60.2065 21.7028 59.9333 21.045 59.4479 20.56C58.9625 20.075 58.3045 19.8023 57.6183 19.8018H52.3653C51.6795 19.8029 51.0221 20.0758 50.5371 20.5608C50.0522 21.0457 49.7792 21.7031 49.7781 22.3889V61.2956H46.2124V40.8637C46.2115 40.1777 45.9387 39.52 45.4537 39.0348C44.9688 38.5497 44.3112 38.2766 43.6252 38.2754H38.3701C37.6839 38.2766 37.0261 38.5498 36.5411 39.0352C36.0561 39.5206 35.7834 40.1786 35.7829 40.8648V61.2966H32.2171V33.3943C32.2163 32.7083 31.9435 32.0506 31.4585 31.5655C30.9735 31.0803 30.3159 30.8072 29.6299 30.8061H24.3738C23.6876 30.8072 23.0298 31.0804 22.5448 31.5658C22.0598 32.0512 21.7871 32.7092 21.7866 33.3954V61.2956H18.2219V49.0609C18.2213 48.3747 17.9486 47.7167 17.4636 47.2313C16.9786 46.7459 16.3209 46.4727 15.6347 46.4716H10.3806C9.69407 46.4721 9.03579 46.7451 8.55033 47.2306C8.06486 47.7161 7.79188 48.3743 7.79131 49.0609V61.2956H5.3125C5.03071 61.2956 4.76046 61.4075 4.5612 61.6068C4.36194 61.806 4.25 62.0763 4.25 62.3581C4.25 62.6399 4.36194 62.9101 4.5612 63.1094C4.76046 63.3086 5.03071 63.4206 5.3125 63.4206C13.2494 63.4227 60.4095 63.4248 62.6875 63.4206C62.9693 63.4206 63.2395 63.3086 63.4388 63.1094C63.6381 62.9101 63.75 62.6399 63.75 62.3581C63.75 62.0763 63.6381 61.806 63.4388 61.6068C63.2395 61.4075 62.9693 61.2956 62.6875 61.2956ZM9.91737 61.2956V49.0609C9.91766 48.9378 9.96666 48.8199 10.0537 48.7329C10.1407 48.6459 10.2586 48.5969 10.3817 48.5966H15.6347C15.7575 48.5971 15.875 48.6463 15.9616 48.7333C16.0482 48.8203 16.0969 48.9381 16.0969 49.0609V61.2956H9.91737ZM23.9126 61.2956V33.3964C23.9126 33.2737 23.9612 33.1559 24.0479 33.0689C24.1345 32.9819 24.252 32.9327 24.3748 32.9321H29.6299C29.7527 32.9327 29.8703 32.9819 29.9569 33.0689C30.0435 33.1559 30.0921 33.2737 30.0921 33.3964V61.2956H23.9126ZM37.9079 61.2956V40.8637C37.9082 40.7411 37.9569 40.6236 38.0435 40.5368C38.1301 40.45 38.2475 40.401 38.3701 40.4004H43.6252C43.748 40.401 43.8655 40.4502 43.9521 40.5372C44.0388 40.6242 44.0874 40.742 44.0874 40.8648V61.2966L37.9079 61.2956ZM51.9031 61.2956V22.3889C51.9034 22.2665 51.9522 22.1491 52.0388 22.0624C52.1254 21.9758 52.2428 21.927 52.3653 21.9268H57.6194C57.742 21.927 57.8595 21.9758 57.9463 22.0624C58.033 22.149 58.0821 22.2664 58.0826 22.3889V61.2956H51.9031Z" fill="#00F6FF"/>
<path d="M12.8787 31.2545C13.5623 31.25 14.2335 31.0711 14.8287 30.7347C15.4238 30.3984 15.9233 29.9156 16.2797 29.3322C16.6361 28.7489 16.8378 28.0842 16.8655 27.4011C16.8932 26.718 16.7461 26.0391 16.438 25.4288L24.734 17.8744C25.538 18.3813 26.4962 18.5853 27.4369 18.45C28.3777 18.3147 29.2395 17.8489 29.868 17.136L36.9315 20.5987C36.8123 21.2231 36.8435 21.8669 37.0225 22.4768C37.2014 23.0868 37.5231 23.6454 37.9609 24.1064C38.3986 24.5673 38.9398 24.9174 39.5397 25.1277C40.1396 25.338 40.7809 25.4024 41.4107 25.3156C42.0404 25.2288 42.6404 24.9932 43.1611 24.6285C43.6817 24.2638 44.108 23.7803 44.4047 23.2181C44.7014 22.6559 44.8599 22.0311 44.8672 21.3955C44.8745 20.7598 44.7303 20.1316 44.4466 19.5627L52.9572 11.9605C53.7723 12.4896 54.7516 12.705 55.7134 12.5668C56.6753 12.4287 57.5543 11.9463 58.1875 11.2092C58.8207 10.4721 59.1651 9.53038 59.1566 8.5587C59.1482 7.58703 58.7876 6.65139 58.1418 5.9254C57.4959 5.1994 56.6086 4.73233 55.6445 4.61085C54.6804 4.48937 53.705 4.72172 52.8992 5.2648C52.0934 5.80789 51.512 6.62482 51.2628 7.56403C51.0136 8.50325 51.1135 9.50097 51.5441 10.3721L43.0356 17.9743C42.2309 17.4593 41.2686 17.249 40.3225 17.3813C39.3763 17.5136 38.5087 17.9798 37.8761 18.6957L30.8105 15.232C30.9299 14.6062 30.8983 13.9609 30.7183 13.3498C30.5383 12.7387 30.215 12.1794 29.7753 11.7183C29.3357 11.2573 28.7923 10.9078 28.1904 10.699C27.5886 10.4901 26.9455 10.4279 26.3148 10.5175C25.6841 10.6071 25.0838 10.846 24.5639 11.2142C24.044 11.5825 23.6196 12.0695 23.3257 12.6347C23.0319 13.2 22.8772 13.8273 22.8745 14.4643C22.8718 15.1014 23.0212 15.7299 23.3103 16.2977L15.01 23.8563C14.4842 23.5249 13.8885 23.3203 13.27 23.2587C12.6516 23.1971 12.0272 23.2802 11.4464 23.5015C10.8655 23.7227 10.3441 24.076 9.92334 24.5335C9.50255 24.9909 9.19393 25.54 9.02187 26.1372C8.8498 26.7345 8.81901 27.3636 8.93192 27.9748C9.04483 28.586 9.29836 29.1626 9.67246 29.6589C10.0466 30.1553 10.531 30.5578 11.0874 30.8347C11.6439 31.1116 12.2571 31.2553 12.8787 31.2545ZM55.1226 6.70434C55.6154 6.71603 56.0842 6.92003 56.4286 7.27274C56.773 7.62544 56.9659 8.09888 56.9659 8.59187C56.9659 9.08486 56.773 9.5583 56.4286 9.911C56.0842 10.2637 55.6154 10.4677 55.1226 10.4794C54.6297 10.4677 54.161 10.2637 53.8166 9.911C53.4721 9.5583 53.2793 9.08486 53.2793 8.59187C53.2793 8.09888 53.4721 7.62544 53.8166 7.27274C54.161 6.92003 54.6297 6.71603 55.1226 6.70434ZM40.8702 19.4543C41.3631 19.466 41.8318 19.67 42.1762 20.0227C42.5207 20.3754 42.7135 20.8489 42.7135 21.3419C42.7135 21.8349 42.5207 22.3083 42.1762 22.661C41.8318 23.0137 41.3631 23.2177 40.8702 23.2294C40.3774 23.2177 39.9086 23.0137 39.5642 22.661C39.2198 22.3083 39.0269 21.8349 39.0269 21.3419C39.0269 20.8489 39.2198 20.3754 39.5642 20.0227C39.9086 19.67 40.3774 19.466 40.8702 19.4543ZM26.875 12.6044C27.3678 12.6161 27.8365 12.8201 28.181 13.1728C28.5254 13.5255 28.7182 13.9989 28.7182 14.4919C28.7182 14.9849 28.5254 15.4584 28.181 15.8111C27.8365 16.1638 27.3678 16.3678 26.875 16.3795C26.3821 16.3678 25.9134 16.1638 25.569 15.8111C25.2245 15.4584 25.0317 14.9849 25.0317 14.4919C25.0317 13.9989 25.2245 13.5255 25.569 13.1728C25.9134 12.8201 26.3821 12.6161 26.875 12.6044ZM12.8797 25.3544C13.3726 25.3661 13.8413 25.5701 14.1857 25.9228C14.5302 26.2755 14.723 26.7489 14.723 27.2419C14.723 27.7349 14.5302 28.2084 14.1857 28.5611C13.8413 28.9138 13.3726 29.1178 12.8797 29.1295C12.3869 29.1178 11.9181 28.9138 11.5737 28.5611C11.2293 28.2084 11.0364 27.7349 11.0364 27.2419C11.0364 26.7489 11.2293 26.2755 11.5737 25.9228C11.9181 25.5701 12.3869 25.3661 12.8797 25.3544Z" fill="#00F6FF"/>
</g>
<path d="M62.6875 61.2956H60.2076V22.3889C60.2065 21.7028 59.9333 21.045 59.4479 20.56C58.9625 20.075 58.3045 19.8023 57.6183 19.8018H52.3653C51.6795 19.8029 51.0221 20.0758 50.5371 20.5608C50.0522 21.0457 49.7792 21.7031 49.7781 22.3889V61.2956H46.2124V40.8637C46.2115 40.1777 45.9387 39.52 45.4537 39.0348C44.9688 38.5497 44.3112 38.2766 43.6252 38.2754H38.3701C37.6839 38.2766 37.0261 38.5498 36.5411 39.0352C36.0561 39.5206 35.7834 40.1786 35.7829 40.8648V61.2966H32.2171V33.3943C32.2163 32.7083 31.9435 32.0506 31.4585 31.5655C30.9735 31.0803 30.3159 30.8072 29.6299 30.8061H24.3738C23.6876 30.8072 23.0298 31.0804 22.5448 31.5658C22.0598 32.0512 21.7871 32.7092 21.7866 33.3954V61.2956H18.2219V49.0609C18.2213 48.3747 17.9486 47.7167 17.4636 47.2313C16.9786 46.7459 16.3209 46.4727 15.6347 46.4716H10.3806C9.69407 46.4721 9.03579 46.7451 8.55033 47.2306C8.06486 47.7161 7.79188 48.3743 7.79131 49.0609V61.2956H5.3125C5.03071 61.2956 4.76046 61.4075 4.5612 61.6068C4.36194 61.806 4.25 62.0763 4.25 62.3581C4.25 62.6399 4.36194 62.9101 4.5612 63.1094C4.76046 63.3086 5.03071 63.4206 5.3125 63.4206C13.2494 63.4227 60.4095 63.4248 62.6875 63.4206C62.9693 63.4206 63.2395 63.3086 63.4388 63.1094C63.6381 62.9101 63.75 62.6399 63.75 62.3581C63.75 62.0763 63.6381 61.806 63.4388 61.6068C63.2395 61.4075 62.9693 61.2956 62.6875 61.2956ZM9.91737 61.2956V49.0609C9.91766 48.9378 9.96666 48.8199 10.0537 48.7329C10.1407 48.6459 10.2586 48.5969 10.3817 48.5966H15.6347C15.7575 48.5971 15.875 48.6463 15.9616 48.7333C16.0482 48.8203 16.0969 48.9381 16.0969 49.0609V61.2956H9.91737ZM23.9126 61.2956V33.3964C23.9126 33.2737 23.9612 33.1559 24.0479 33.0689C24.1345 32.9819 24.252 32.9327 24.3748 32.9321H29.6299C29.7527 32.9327 29.8703 32.9819 29.9569 33.0689C30.0435 33.1559 30.0921 33.2737 30.0921 33.3964V61.2956H23.9126ZM37.9079 61.2956V40.8637C37.9082 40.7411 37.9569 40.6236 38.0435 40.5368C38.1301 40.45 38.2475 40.401 38.3701 40.4004H43.6252C43.748 40.401 43.8655 40.4502 43.9521 40.5372C44.0388 40.6242 44.0874 40.742 44.0874 40.8648V61.2966L37.9079 61.2956ZM51.9031 61.2956V22.3889C51.9034 22.2665 51.9522 22.1491 52.0388 22.0624C52.1254 21.9758 52.2428 21.927 52.3653 21.9268H57.6194C57.742 21.927 57.8595 21.9758 57.9463 22.0624C58.033 22.149 58.0821 22.2664 58.0826 22.3889V61.2956H51.9031Z" fill="#DEE9F7"/>
<path d="M12.8787 31.2545C13.5623 31.25 14.2335 31.0711 14.8287 30.7347C15.4238 30.3984 15.9233 29.9156 16.2797 29.3322C16.6361 28.7489 16.8378 28.0842 16.8655 27.4011C16.8932 26.718 16.7461 26.0391 16.438 25.4288L24.734 17.8744C25.538 18.3813 26.4962 18.5853 27.4369 18.45C28.3777 18.3147 29.2395 17.8489 29.868 17.136L36.9315 20.5987C36.8123 21.2231 36.8435 21.8669 37.0225 22.4768C37.2014 23.0868 37.5231 23.6454 37.9609 24.1064C38.3986 24.5673 38.9398 24.9174 39.5397 25.1277C40.1396 25.338 40.7809 25.4024 41.4107 25.3156C42.0404 25.2288 42.6404 24.9932 43.1611 24.6285C43.6817 24.2638 44.108 23.7803 44.4047 23.2181C44.7014 22.6559 44.8599 22.0311 44.8672 21.3955C44.8745 20.7598 44.7303 20.1316 44.4466 19.5627L52.9572 11.9605C53.7723 12.4896 54.7516 12.705 55.7134 12.5668C56.6753 12.4287 57.5543 11.9463 58.1875 11.2092C58.8207 10.4721 59.1651 9.53038 59.1566 8.5587C59.1482 7.58703 58.7876 6.65139 58.1418 5.9254C57.4959 5.1994 56.6086 4.73233 55.6445 4.61085C54.6804 4.48937 53.705 4.72172 52.8992 5.2648C52.0934 5.80789 51.512 6.62482 51.2628 7.56403C51.0136 8.50325 51.1135 9.50097 51.5441 10.3721L43.0356 17.9743C42.2309 17.4593 41.2686 17.249 40.3225 17.3813C39.3763 17.5136 38.5087 17.9798 37.8761 18.6957L30.8105 15.232C30.9299 14.6062 30.8983 13.9609 30.7183 13.3498C30.5383 12.7387 30.215 12.1794 29.7753 11.7183C29.3357 11.2573 28.7923 10.9078 28.1904 10.699C27.5886 10.4901 26.9455 10.4279 26.3148 10.5175C25.6841 10.6071 25.0838 10.846 24.5639 11.2142C24.044 11.5825 23.6196 12.0695 23.3257 12.6347C23.0319 13.2 22.8772 13.8273 22.8745 14.4643C22.8718 15.1014 23.0212 15.7299 23.3103 16.2977L15.01 23.8563C14.4842 23.5249 13.8885 23.3203 13.27 23.2587C12.6516 23.1971 12.0272 23.2802 11.4464 23.5015C10.8655 23.7227 10.3441 24.076 9.92334 24.5335C9.50255 24.9909 9.19393 25.54 9.02187 26.1372C8.8498 26.7345 8.81901 27.3636 8.93192 27.9748C9.04483 28.586 9.29836 29.1626 9.67246 29.6589C10.0466 30.1553 10.531 30.5578 11.0874 30.8347C11.6439 31.1116 12.2571 31.2553 12.8787 31.2545ZM55.1226 6.70434C55.6154 6.71603 56.0842 6.92003 56.4286 7.27274C56.773 7.62544 56.9659 8.09888 56.9659 8.59187C56.9659 9.08486 56.773 9.5583 56.4286 9.911C56.0842 10.2637 55.6154 10.4677 55.1226 10.4794C54.6297 10.4677 54.161 10.2637 53.8166 9.911C53.4721 9.5583 53.2793 9.08486 53.2793 8.59187C53.2793 8.09888 53.4721 7.62544 53.8166 7.27274C54.161 6.92003 54.6297 6.71603 55.1226 6.70434ZM40.8702 19.4543C41.3631 19.466 41.8318 19.67 42.1762 20.0227C42.5207 20.3754 42.7135 20.8489 42.7135 21.3419C42.7135 21.8349 42.5207 22.3083 42.1762 22.661C41.8318 23.0137 41.3631 23.2177 40.8702 23.2294C40.3774 23.2177 39.9086 23.0137 39.5642 22.661C39.2198 22.3083 39.0269 21.8349 39.0269 21.3419C39.0269 20.8489 39.2198 20.3754 39.5642 20.0227C39.9086 19.67 40.3774 19.466 40.8702 19.4543ZM26.875 12.6044C27.3678 12.6161 27.8365 12.8201 28.181 13.1728C28.5254 13.5255 28.7182 13.9989 28.7182 14.4919C28.7182 14.9849 28.5254 15.4584 28.181 15.8111C27.8365 16.1638 27.3678 16.3678 26.875 16.3795C26.3821 16.3678 25.9134 16.1638 25.569 15.8111C25.2245 15.4584 25.0317 14.9849 25.0317 14.4919C25.0317 13.9989 25.2245 13.5255 25.569 13.1728C25.9134 12.8201 26.3821 12.6161 26.875 12.6044ZM12.8797 25.3544C13.3726 25.3661 13.8413 25.5701 14.1857 25.9228C14.5302 26.2755 14.723 26.7489 14.723 27.2419C14.723 27.7349 14.5302 28.2084 14.1857 28.5611C13.8413 28.9138 13.3726 29.1178 12.8797 29.1295C12.3869 29.1178 11.9181 28.9138 11.5737 28.5611C11.2293 28.2084 11.0364 27.7349 11.0364 27.2419C11.0364 26.7489 11.2293 26.2755 11.5737 25.9228C11.9181 25.5701 12.3869 25.3661 12.8797 25.3544Z" fill="#DEE9F7"/>
</g>
<defs>
<filter id="filter0_f_225910_603" x="-6" y="-6" width="80" height="80" filterUnits="userSpaceOnUse" color-interpolation-filters="sRGB">
<feFlood flood-opacity="0" result="BackgroundImageFix"/>
<feBlend mode="normal" in="SourceGraphic" in2="BackgroundImageFix" result="shape"/>
<feGaussianBlur stdDeviation="3" result="effect1_foregroundBlur_225910_603"/>
</filter>
<clipPath id="clip0_225910_603">
<rect width="68" height="68" fill="white"/>
</clipPath>
</defs>
</svg>
