<svg width="68" height="68" viewBox="0 0 68 68" fill="none" xmlns="http://www.w3.org/2000/svg">
<g clip-path="url(#clip0_225910_623)">
<g filter="url(#filter0_f_225910_623)">
<path d="M65.3436 33.2733L62.3258 30.4721V20.4189L63.7233 19.7495C64.1817 19.53 64.4666 19.0966 64.4666 18.6183C64.4666 18.1045 64.1456 17.6439 63.608 17.3865L39.6061 5.88959C39.117 5.65531 38.3551 5.5472 37.756 5.83421L33.2311 8.00171C30.7257 3.32286 25.7892 0.132568 20.1209 0.132568C11.9264 0.132568 5.25973 6.79936 5.25973 14.9938C5.25973 23.1882 11.9264 29.8551 20.1209 29.8551C20.2164 29.8551 20.3115 29.8532 20.4066 29.8515V31.312C20.4066 32.191 20.8991 32.9729 21.6916 33.3524L33.8428 39.1732C35.4067 39.9224 37.0147 40.2968 38.6232 40.2968C40.2313 40.2968 41.84 39.9221 43.4035 39.1732L55.5552 33.3524C56.3478 32.9729 56.8401 32.191 56.8401 31.312V23.0467L60.2008 21.4369V30.4721L57.1829 33.2734C57.0758 33.3728 56.9903 33.4933 56.9318 33.6273C56.8734 33.7613 56.8432 33.9059 56.8432 34.0521V40.2851C56.8432 40.5669 56.9551 40.8372 57.1544 41.0364C57.3536 41.2357 57.6239 41.3476 57.9057 41.3476H64.6207C64.9025 41.3476 65.1727 41.2357 65.372 41.0364C65.5712 40.8372 65.6832 40.5669 65.6832 40.2851V34.0521C65.6832 33.9059 65.6531 33.7612 65.5947 33.6272C65.5362 33.4932 65.4508 33.3727 65.3436 33.2733ZM38.595 7.78854C38.6282 7.7908 38.6691 7.79811 38.6881 7.80608L61.2134 18.5958L61.0479 18.6751L38.6775 17.5347C38.0919 17.5063 37.5921 17.9557 37.5623 18.5418C37.5552 18.6812 37.5756 18.8206 37.6223 18.9521C37.6691 19.0835 37.7413 19.2045 37.8348 19.308C37.9283 19.4116 38.0414 19.4957 38.1674 19.5556C38.2934 19.6155 38.43 19.65 38.5694 19.6571L57.0332 20.5983L38.6519 29.403C38.6186 29.4007 38.5776 29.3934 38.5586 29.3856L30.5645 25.5563C33.2905 22.8608 34.9824 19.1214 34.9824 14.994C34.9824 13.2214 34.6699 11.5206 34.098 9.9429L38.595 7.78854ZM7.38473 14.9939C7.38473 7.97116 13.0982 2.2577 20.1209 2.2577C27.1436 2.2577 32.8571 7.97116 32.8571 14.9939C32.8571 22.0166 27.1436 27.7301 20.1209 27.7301C13.0982 27.7301 7.38473 22.0166 7.38473 14.9939ZM54.7151 31.3119C54.7151 31.3758 54.6948 31.4083 54.6372 31.4358L42.4853 37.2566C39.9586 38.4669 37.2875 38.4669 34.7607 37.2566L22.6093 31.4357C22.5518 31.4082 22.5315 31.3758 22.5315 31.3118V29.6584C24.8364 29.2808 26.9646 28.3714 28.7856 27.0602L37.6405 31.3017C37.922 31.4365 38.2937 31.5294 38.6727 31.5294C38.9523 31.5294 39.2361 31.4788 39.4903 31.3569L54.715 24.0643V31.3119H54.7151ZM63.5583 39.2225H58.9683V34.5155L61.2633 32.3852L63.5583 34.5155V39.2225ZM56.1063 41.7413C54.7932 41.389 53.4254 41.5678 52.2548 42.2436L39.073 49.8539C38.8144 47.6927 37.2802 45.7958 35.0541 45.1897L20.0929 41.1177C18.0698 40.5668 15.8899 41.1262 13.789 42.7354L9.85106 45.751L9.70377 45.2013C9.42593 44.1643 8.35639 43.5466 7.31952 43.8246L3.75988 44.7786C3.25851 44.9128 2.83896 45.2352 2.57865 45.6862C2.31833 46.1372 2.24901 46.6616 2.38328 47.1628L7.54424 66.4238C7.77706 67.2927 8.56557 67.8671 9.42526 67.8671C9.59141 67.8671 9.76048 67.8456 9.92862 67.8005L13.4884 66.8465C13.9896 66.7121 14.4092 66.3899 14.6695 65.9389C14.9298 65.4879 14.9991 64.9635 14.8649 64.4623L14.6755 63.7553C16.7743 62.1904 18.7059 61.7517 21.044 62.2882L29.6136 64.2527C30.3601 64.4238 31.0878 64.5093 31.7945 64.5093C33.2594 64.5093 34.6344 64.1422 35.9017 63.4106L57.3322 51.038C59.7563 49.6386 60.59 46.5272 59.1905 44.1024C58.5148 42.9317 57.4195 42.0932 56.1063 41.7413ZM9.55077 65.7018L4.48198 46.7851L7.69724 45.9235L12.766 64.8403L9.55077 65.7018ZM56.2697 49.1978L34.8391 61.5704C33.4206 62.3894 31.8666 62.5892 30.0882 62.1816L21.5186 60.2171C18.8061 59.5951 16.4657 60.0125 14.0903 61.5722L10.4461 47.9719L15.0808 44.4226C16.6578 43.215 18.1565 42.7933 19.5347 43.1682L34.4959 47.2402C36.2936 47.7298 37.3581 49.5904 36.8687 51.388C36.3793 53.1856 34.519 54.2497 32.7212 53.7608L24.7292 51.5855C24.5946 51.5488 24.4541 51.539 24.3157 51.5567C24.1773 51.5743 24.0437 51.6191 23.9226 51.6884C23.8015 51.7577 23.6952 51.8501 23.6098 51.9605C23.5245 52.0709 23.4617 52.197 23.425 52.3316C23.3884 52.4662 23.3786 52.6067 23.3963 52.7451C23.414 52.8835 23.4587 53.0171 23.528 53.1382C23.5973 53.2593 23.6898 53.3655 23.8001 53.4509C23.9105 53.5363 24.0365 53.5991 24.1712 53.6357L32.1632 55.811C32.6337 55.9395 33.1193 56.0047 33.6071 56.0049C35.8393 56.0048 37.9033 54.6338 38.7342 52.5032L53.3173 44.0838C53.9963 43.692 54.7915 43.5887 55.5562 43.7936C56.3211 43.9987 56.9581 44.4854 57.35 45.1645C58.1639 46.5748 57.6792 48.384 56.2697 49.1978ZM20.1209 4.29996C14.2243 4.29996 9.42712 9.09715 9.42712 14.9938C9.42712 20.8904 14.2243 25.6876 20.1209 25.6876C26.0175 25.6876 30.8147 20.8904 30.8147 14.9938C30.8147 9.09715 26.0175 4.29996 20.1209 4.29996ZM20.1209 23.5627C15.3961 23.5627 11.5521 19.7187 11.5521 14.9939C11.5521 10.2691 15.3961 6.42509 20.1209 6.42509C24.8457 6.42509 28.6897 10.2691 28.6897 14.9939C28.6897 19.7187 24.8457 23.5627 20.1209 23.5627ZM23.4131 16.9994C23.4131 18.4005 22.4689 19.5854 21.1834 19.951V20.7182C21.1834 21 21.0715 21.2703 20.8722 21.4695C20.673 21.6688 20.4027 21.7807 20.1209 21.7807C19.8391 21.7807 19.5689 21.6688 19.3696 21.4695C19.1704 21.2703 19.0584 21 19.0584 20.7182V19.9956C18.3212 19.832 17.6695 19.404 17.2267 18.7923C17.1435 18.6793 17.0836 18.551 17.0503 18.4147C17.017 18.2785 17.011 18.137 17.0326 17.9984C17.0543 17.8598 17.1032 17.7268 17.1765 17.6072C17.2499 17.4876 17.3461 17.3837 17.4598 17.3015C17.5735 17.2193 17.7023 17.1605 17.8389 17.1283C17.9754 17.0962 18.117 17.0914 18.2554 17.1142C18.3938 17.137 18.5263 17.1871 18.6453 17.2614C18.7643 17.3357 18.8673 17.4328 18.9486 17.5472C19.1275 17.7946 19.4134 17.9423 19.7136 17.9423H20.345C20.8649 17.9423 21.2879 17.5193 21.2879 16.9992C21.2879 16.4793 20.8649 16.0563 20.345 16.0563H19.8966C18.205 16.0563 16.8286 14.6799 16.8286 12.9882C16.8286 11.587 17.7728 10.4022 19.0583 10.0365V9.26914C19.0583 8.98735 19.1702 8.7171 19.3695 8.51784C19.5687 8.31858 19.839 8.20664 20.1208 8.20664C20.4026 8.20664 20.6728 8.31858 20.8721 8.51784C21.0713 8.7171 21.1833 8.98735 21.1833 9.26914V9.99177C21.9205 10.1553 22.5722 10.5834 23.015 11.1951C23.1773 11.4235 23.2428 11.7069 23.1972 11.9834C23.1515 12.2599 22.9985 12.5071 22.7714 12.6713C22.5443 12.8356 22.2616 12.9034 21.9847 12.8601C21.7078 12.8168 21.4592 12.6659 21.2931 12.4402C21.1142 12.1927 20.8283 12.0451 20.5281 12.0451H19.8967C19.3768 12.0451 18.9538 12.4681 18.9538 12.9882C18.9538 13.5082 19.3768 13.9313 19.8967 13.9313H20.3451C22.0367 13.9314 23.4131 15.3076 23.4131 16.9994Z" fill="#00F6FF"/>
</g>
<path d="M65.3436 33.2733L62.3258 30.4721V20.4189L63.7233 19.7495C64.1817 19.53 64.4666 19.0966 64.4666 18.6183C64.4666 18.1045 64.1456 17.6439 63.608 17.3865L39.6061 5.88959C39.117 5.65531 38.3551 5.5472 37.756 5.83421L33.2311 8.00171C30.7257 3.32286 25.7892 0.132568 20.1209 0.132568C11.9264 0.132568 5.25973 6.79936 5.25973 14.9938C5.25973 23.1882 11.9264 29.8551 20.1209 29.8551C20.2164 29.8551 20.3115 29.8532 20.4066 29.8515V31.312C20.4066 32.191 20.8991 32.9729 21.6916 33.3524L33.8428 39.1732C35.4067 39.9224 37.0147 40.2968 38.6232 40.2968C40.2313 40.2968 41.84 39.9221 43.4035 39.1732L55.5552 33.3524C56.3478 32.9729 56.8401 32.191 56.8401 31.312V23.0467L60.2008 21.4369V30.4721L57.1829 33.2734C57.0758 33.3728 56.9903 33.4933 56.9318 33.6273C56.8734 33.7613 56.8432 33.9059 56.8432 34.0521V40.2851C56.8432 40.5669 56.9551 40.8372 57.1544 41.0364C57.3536 41.2357 57.6239 41.3476 57.9057 41.3476H64.6207C64.9025 41.3476 65.1727 41.2357 65.372 41.0364C65.5712 40.8372 65.6832 40.5669 65.6832 40.2851V34.0521C65.6832 33.9059 65.6531 33.7612 65.5947 33.6272C65.5362 33.4932 65.4508 33.3727 65.3436 33.2733ZM38.595 7.78854C38.6282 7.7908 38.6691 7.79811 38.6881 7.80608L61.2134 18.5958L61.0479 18.6751L38.6775 17.5347C38.0919 17.5063 37.5921 17.9557 37.5623 18.5418C37.5552 18.6812 37.5756 18.8206 37.6223 18.9521C37.6691 19.0835 37.7413 19.2045 37.8348 19.308C37.9283 19.4116 38.0414 19.4957 38.1674 19.5556C38.2934 19.6155 38.43 19.65 38.5694 19.6571L57.0332 20.5983L38.6519 29.403C38.6186 29.4007 38.5776 29.3934 38.5586 29.3856L30.5645 25.5563C33.2905 22.8608 34.9824 19.1214 34.9824 14.994C34.9824 13.2214 34.6699 11.5206 34.098 9.9429L38.595 7.78854ZM7.38473 14.9939C7.38473 7.97116 13.0982 2.2577 20.1209 2.2577C27.1436 2.2577 32.8571 7.97116 32.8571 14.9939C32.8571 22.0166 27.1436 27.7301 20.1209 27.7301C13.0982 27.7301 7.38473 22.0166 7.38473 14.9939ZM54.7151 31.3119C54.7151 31.3758 54.6948 31.4083 54.6372 31.4358L42.4853 37.2566C39.9586 38.4669 37.2875 38.4669 34.7607 37.2566L22.6093 31.4357C22.5518 31.4082 22.5315 31.3758 22.5315 31.3118V29.6584C24.8364 29.2808 26.9646 28.3714 28.7856 27.0602L37.6405 31.3017C37.922 31.4365 38.2937 31.5294 38.6727 31.5294C38.9523 31.5294 39.2361 31.4788 39.4903 31.3569L54.715 24.0643V31.3119H54.7151ZM63.5583 39.2225H58.9683V34.5155L61.2633 32.3852L63.5583 34.5155V39.2225ZM56.1063 41.7413C54.7932 41.389 53.4254 41.5678 52.2548 42.2436L39.073 49.8539C38.8144 47.6927 37.2802 45.7958 35.0541 45.1897L20.0929 41.1177C18.0698 40.5668 15.8899 41.1262 13.789 42.7354L9.85106 45.751L9.70377 45.2013C9.42593 44.1643 8.35639 43.5466 7.31952 43.8246L3.75988 44.7786C3.25851 44.9128 2.83896 45.2352 2.57865 45.6862C2.31833 46.1372 2.24901 46.6616 2.38328 47.1628L7.54424 66.4238C7.77706 67.2927 8.56557 67.8671 9.42526 67.8671C9.59141 67.8671 9.76048 67.8456 9.92862 67.8005L13.4884 66.8465C13.9896 66.7121 14.4092 66.3899 14.6695 65.9389C14.9298 65.4879 14.9991 64.9635 14.8649 64.4623L14.6755 63.7553C16.7743 62.1904 18.7059 61.7517 21.044 62.2882L29.6136 64.2527C30.3601 64.4238 31.0878 64.5093 31.7945 64.5093C33.2594 64.5093 34.6344 64.1422 35.9017 63.4106L57.3322 51.038C59.7563 49.6386 60.59 46.5272 59.1905 44.1024C58.5148 42.9317 57.4195 42.0932 56.1063 41.7413ZM9.55077 65.7018L4.48198 46.7851L7.69724 45.9235L12.766 64.8403L9.55077 65.7018ZM56.2697 49.1978L34.8391 61.5704C33.4206 62.3894 31.8666 62.5892 30.0882 62.1816L21.5186 60.2171C18.8061 59.5951 16.4657 60.0125 14.0903 61.5722L10.4461 47.9719L15.0808 44.4226C16.6578 43.215 18.1565 42.7933 19.5347 43.1682L34.4959 47.2402C36.2936 47.7298 37.3581 49.5904 36.8687 51.388C36.3793 53.1856 34.519 54.2497 32.7212 53.7608L24.7292 51.5855C24.5946 51.5488 24.4541 51.539 24.3157 51.5567C24.1773 51.5743 24.0437 51.6191 23.9226 51.6884C23.8015 51.7577 23.6952 51.8501 23.6098 51.9605C23.5245 52.0709 23.4617 52.197 23.425 52.3316C23.3884 52.4662 23.3786 52.6067 23.3963 52.7451C23.414 52.8835 23.4587 53.0171 23.528 53.1382C23.5973 53.2593 23.6898 53.3655 23.8001 53.4509C23.9105 53.5363 24.0365 53.5991 24.1712 53.6357L32.1632 55.811C32.6337 55.9395 33.1193 56.0047 33.6071 56.0049C35.8393 56.0048 37.9033 54.6338 38.7342 52.5032L53.3173 44.0838C53.9963 43.692 54.7915 43.5887 55.5562 43.7936C56.3211 43.9987 56.9581 44.4854 57.35 45.1645C58.1639 46.5748 57.6792 48.384 56.2697 49.1978ZM20.1209 4.29996C14.2243 4.29996 9.42712 9.09715 9.42712 14.9938C9.42712 20.8904 14.2243 25.6876 20.1209 25.6876C26.0175 25.6876 30.8147 20.8904 30.8147 14.9938C30.8147 9.09715 26.0175 4.29996 20.1209 4.29996ZM20.1209 23.5627C15.3961 23.5627 11.5521 19.7187 11.5521 14.9939C11.5521 10.2691 15.3961 6.42509 20.1209 6.42509C24.8457 6.42509 28.6897 10.2691 28.6897 14.9939C28.6897 19.7187 24.8457 23.5627 20.1209 23.5627ZM23.4131 16.9994C23.4131 18.4005 22.4689 19.5854 21.1834 19.951V20.7182C21.1834 21 21.0715 21.2703 20.8722 21.4695C20.673 21.6688 20.4027 21.7807 20.1209 21.7807C19.8391 21.7807 19.5689 21.6688 19.3696 21.4695C19.1704 21.2703 19.0584 21 19.0584 20.7182V19.9956C18.3212 19.832 17.6695 19.404 17.2267 18.7923C17.1435 18.6793 17.0836 18.551 17.0503 18.4147C17.017 18.2785 17.011 18.137 17.0326 17.9984C17.0543 17.8598 17.1032 17.7268 17.1765 17.6072C17.2499 17.4876 17.3461 17.3837 17.4598 17.3015C17.5735 17.2193 17.7023 17.1605 17.8389 17.1283C17.9754 17.0962 18.117 17.0914 18.2554 17.1142C18.3938 17.137 18.5263 17.1871 18.6453 17.2614C18.7643 17.3357 18.8673 17.4328 18.9486 17.5472C19.1275 17.7946 19.4134 17.9423 19.7136 17.9423H20.345C20.8649 17.9423 21.2879 17.5193 21.2879 16.9992C21.2879 16.4793 20.8649 16.0563 20.345 16.0563H19.8966C18.205 16.0563 16.8286 14.6799 16.8286 12.9882C16.8286 11.587 17.7728 10.4022 19.0583 10.0365V9.26914C19.0583 8.98735 19.1702 8.7171 19.3695 8.51784C19.5687 8.31858 19.839 8.20664 20.1208 8.20664C20.4026 8.20664 20.6728 8.31858 20.8721 8.51784C21.0713 8.7171 21.1833 8.98735 21.1833 9.26914V9.99177C21.9205 10.1553 22.5722 10.5834 23.015 11.1951C23.1773 11.4235 23.2428 11.7069 23.1972 11.9834C23.1515 12.2599 22.9985 12.5071 22.7714 12.6713C22.5443 12.8356 22.2616 12.9034 21.9847 12.8601C21.7078 12.8168 21.4592 12.6659 21.2931 12.4402C21.1142 12.1927 20.8283 12.0451 20.5281 12.0451H19.8967C19.3768 12.0451 18.9538 12.4681 18.9538 12.9882C18.9538 13.5082 19.3768 13.9313 19.8967 13.9313H20.3451C22.0367 13.9314 23.4131 15.3076 23.4131 16.9994Z" fill="#DEE9F7"/>
</g>
<defs>
<filter id="filter0_f_225910_623" x="-6" y="-6" width="80" height="80" filterUnits="userSpaceOnUse" color-interpolation-filters="sRGB">
<feFlood flood-opacity="0" result="BackgroundImageFix"/>
<feBlend mode="normal" in="SourceGraphic" in2="BackgroundImageFix" result="shape"/>
<feGaussianBlur stdDeviation="3" result="effect1_foregroundBlur_225910_623"/>
</filter>
<clipPath id="clip0_225910_623">
<rect width="68" height="68" fill="white"/>
</clipPath>
</defs>
</svg>
