<svg width="68" height="68" viewBox="0 0 68 68" fill="none" xmlns="http://www.w3.org/2000/svg">
<g clip-path="url(#clip0_225910_491)">
<g clip-path="url(#clip1_225910_491)" filter="url(#filter0_f_225910_491)">
<path d="M33.3848 57.4798C33.1378 57.2328 32.7951 57.0906 32.4458 57.0906C32.0965 57.0906 31.7538 57.2327 31.5068 57.4798C31.2586 57.7294 31.1188 58.0667 31.1177 58.4187C31.1177 58.7695 31.2598 59.1107 31.5068 59.3577C31.7538 59.606 32.0965 59.7468 32.4458 59.7468C32.7951 59.7468 33.1378 59.606 33.3848 59.3577C33.633 59.1081 33.7728 58.7707 33.7739 58.4187C33.7739 58.0694 33.6317 57.7267 33.3848 57.4798Z" fill="#00F6FF"/>
<path d="M39.7085 45.2277V35.4551C39.7085 35.2378 39.6552 35.0238 39.5533 34.8319C39.4513 34.64 39.3038 34.476 39.1237 34.3544C38.9436 34.2328 38.7364 34.1572 38.5203 34.1343C38.3042 34.1115 38.0858 34.1419 37.8842 34.2231L14.9989 43.4399H7.62782C3.42191 43.4399 0 46.8618 0 51.068C0 55.2742 3.42191 58.6961 7.62809 58.6961H8.50584V66.6717C8.50584 67.4051 9.10045 67.9999 9.83397 67.9999H15.2559C15.9894 67.9999 16.584 67.4051 16.584 66.6717V59.3368L37.8849 67.904C38.0864 67.9852 38.3048 68.0156 38.5209 67.9927C38.7369 67.9697 38.944 67.8941 39.124 67.7724C39.304 67.6507 39.4515 67.4868 39.5534 67.2949C39.6553 67.1031 39.7086 66.8891 39.7085 66.6719V56.8994C42.372 56.2934 44.3665 53.9078 44.3665 51.0636C44.3665 48.2194 42.372 45.8337 39.7085 45.2277ZM13.9276 65.3436H11.1621V58.6959H13.9278V65.3436H13.9276ZM13.9279 56.0397H7.62809C4.88657 56.0397 2.65625 53.8094 2.65625 51.068C2.65625 48.3265 4.88657 46.0962 7.62809 46.0962H13.9284L13.9279 56.0397ZM37.0524 64.706H37.0523L16.5847 56.4739V45.6648L31.118 39.8117V52.9921C31.118 53.7254 31.7126 54.3202 32.4461 54.3202C33.1796 54.3202 33.7742 53.7254 33.7742 52.9921V38.7419L37.0524 37.4216V64.706ZM39.7085 54.1162V48.0108C40.8854 48.5248 41.7103 49.6994 41.7103 51.0635C41.7103 52.4276 40.8855 53.6022 39.7085 54.1162ZM57.0366 49.7747H49.517C48.7835 49.7747 48.1889 50.3694 48.1889 51.1028C48.1889 51.8362 48.7835 52.4309 49.517 52.4309H57.0366C57.7701 52.4309 58.3647 51.8362 58.3647 51.1028C58.3647 50.3694 57.7701 49.7747 57.0366 49.7747ZM50.8697 40.0426C50.3511 39.5241 49.5101 39.5241 48.9913 40.0426L46.3975 42.6364C45.8789 43.155 45.8789 43.996 46.3975 44.5148C46.5207 44.6382 46.6672 44.7362 46.8283 44.8029C46.9895 44.8697 47.1623 44.904 47.3368 44.9038C47.5112 44.904 47.684 44.8697 47.8451 44.803C48.0063 44.7362 48.1527 44.6383 48.2759 44.5148L50.8697 41.9209C51.3883 41.4023 51.3883 40.5613 50.8697 40.0426ZM50.9672 60.1607L48.2866 57.4801C47.768 56.9616 46.927 56.9616 46.4083 57.4801C45.8896 57.9987 45.8896 58.8397 46.4083 59.3584L49.089 62.0391C49.3483 62.2984 49.6882 62.4281 50.0281 62.4281C50.3679 62.4281 50.7079 62.2984 50.9672 62.0391C51.4858 61.5205 51.4858 60.6795 50.9672 60.1607Z" fill="#00F6FF"/>
<path d="M62.6875 0H37.9844C35.0551 0 32.6719 2.38319 32.6719 5.3125V5.84375H10.3594C8.60173 5.84375 7.17188 7.27374 7.17188 9.03125V30.0156C7.17188 31.7731 8.60173 33.2031 10.3594 33.2031H11.7317V37.2761C11.7318 37.5387 11.8097 37.7955 11.9557 38.0138C12.1016 38.2322 12.309 38.4024 12.5517 38.5029C12.7943 38.6034 13.0613 38.6297 13.319 38.5785C13.5766 38.5273 13.8132 38.4009 13.999 38.2152L19.011 33.2031H45.3927C47.1503 33.2031 48.5802 31.7731 48.5802 30.0156V26.0312H62.6875C65.6168 26.0312 68 23.6481 68 20.7188V5.3125C67.9999 2.38319 65.6168 0 62.6875 0ZM45.9239 30.0156C45.9239 30.3086 45.6856 30.5469 45.3927 30.5469H18.4609C18.1087 30.5469 17.7709 30.6868 17.5218 30.9359L14.3881 34.0697V31.875C14.3881 31.1416 13.7935 30.5469 13.06 30.5469H10.3594C10.0664 30.5469 9.82812 30.3086 9.82812 30.0156V9.03125C9.82812 8.73827 10.0664 8.5 10.3594 8.5H32.6719V20.7188C32.6719 23.6481 35.0551 26.0312 37.9844 26.0312H45.9239V30.0156ZM65.3438 20.7188C65.3438 22.1834 64.1522 23.375 62.6875 23.375H37.9844C36.5197 23.375 35.3281 22.1834 35.3281 20.7188V5.3125C35.3281 3.84784 36.5197 2.65625 37.9844 2.65625H62.6875C64.1522 2.65625 65.3438 3.84784 65.3438 5.3125V20.7188Z" fill="#00F6FF"/>
<path d="M55.6717 11.8656L46.582 6.61763C46.3801 6.50107 46.1511 6.4397 45.9179 6.4397C45.6848 6.4397 45.4558 6.50106 45.2539 6.61762C45.052 6.73419 44.8843 6.90184 44.7678 7.10374C44.6512 7.30563 44.5898 7.53466 44.5898 7.76779V18.2636C44.5898 18.4967 44.6512 18.7257 44.7678 18.9276C44.8843 19.1295 45.052 19.2972 45.2539 19.4137C45.4558 19.5303 45.6848 19.5917 45.9179 19.5917C46.1511 19.5917 46.3801 19.5303 46.582 19.4137L55.6717 14.1658C55.8735 14.0492 56.0412 13.8815 56.1577 13.6797C56.2742 13.4778 56.3356 13.2488 56.3356 13.0157C56.3356 12.7826 56.2742 12.5536 56.1577 12.3517C56.0412 12.1498 55.8735 11.9822 55.6717 11.8656ZM47.2461 15.9632V10.0682L52.3514 13.0157L47.2461 15.9632ZM28.4897 13.9454H15.2085C14.475 13.9454 13.8804 14.5402 13.8804 15.2736C13.8804 16.0069 14.475 16.6017 15.2085 16.6017H28.4897C29.2233 16.6017 29.8179 16.0069 29.8179 15.2736C29.8179 14.5402 29.2233 13.9454 28.4897 13.9454ZM29.4286 21.7721C29.1816 21.5249 28.8389 21.3829 28.4896 21.3829C28.1403 21.3829 27.7977 21.5249 27.5506 21.7721C27.3036 22.0191 27.1615 22.3618 27.1615 22.7111C27.1615 23.0604 27.3036 23.403 27.5506 23.6499C27.8003 23.8981 28.1376 24.038 28.4896 24.0392C28.8402 24.0392 29.1816 23.8971 29.4286 23.6499C29.6756 23.403 29.8177 23.0604 29.8177 22.7111C29.8177 22.3618 29.6756 22.0191 29.4286 21.7721ZM23.5078 21.3829H15.2085C14.475 21.3829 13.8804 21.9777 13.8804 22.7111C13.8804 23.4444 14.475 24.0392 15.2085 24.0392H23.5078C24.2413 24.0392 24.8359 23.4444 24.8359 22.7111C24.8359 21.9777 24.2413 21.3829 23.5078 21.3829Z" fill="#00F6FF"/>
</g>
<g clip-path="url(#clip2_225910_491)">
<path d="M33.3848 57.4798C33.1378 57.2328 32.7951 57.0906 32.4458 57.0906C32.0965 57.0906 31.7538 57.2327 31.5068 57.4798C31.2586 57.7294 31.1188 58.0667 31.1177 58.4187C31.1177 58.7695 31.2598 59.1107 31.5068 59.3577C31.7538 59.606 32.0965 59.7468 32.4458 59.7468C32.7951 59.7468 33.1378 59.606 33.3848 59.3577C33.633 59.1081 33.7728 58.7707 33.7739 58.4187C33.7739 58.0694 33.6317 57.7267 33.3848 57.4798Z" fill="#DEE9F7"/>
<path d="M39.7085 45.2277V35.4551C39.7085 35.2378 39.6552 35.0238 39.5533 34.8319C39.4513 34.64 39.3038 34.476 39.1237 34.3544C38.9436 34.2328 38.7364 34.1572 38.5203 34.1343C38.3042 34.1115 38.0858 34.1419 37.8842 34.2231L14.9989 43.4399H7.62782C3.42191 43.4399 0 46.8618 0 51.068C0 55.2742 3.42191 58.6961 7.62809 58.6961H8.50584V66.6717C8.50584 67.4051 9.10045 67.9999 9.83397 67.9999H15.2559C15.9894 67.9999 16.584 67.4051 16.584 66.6717V59.3368L37.8849 67.904C38.0864 67.9852 38.3048 68.0156 38.5209 67.9927C38.7369 67.9697 38.944 67.8941 39.124 67.7724C39.304 67.6507 39.4515 67.4868 39.5534 67.2949C39.6553 67.1031 39.7086 66.8891 39.7085 66.6719V56.8994C42.372 56.2934 44.3665 53.9078 44.3665 51.0636C44.3665 48.2194 42.372 45.8337 39.7085 45.2277ZM13.9276 65.3436H11.1621V58.6959H13.9278V65.3436H13.9276ZM13.9279 56.0397H7.62809C4.88657 56.0397 2.65625 53.8094 2.65625 51.068C2.65625 48.3265 4.88657 46.0962 7.62809 46.0962H13.9284L13.9279 56.0397ZM37.0524 64.706H37.0523L16.5847 56.4739V45.6648L31.118 39.8117V52.9921C31.118 53.7254 31.7126 54.3202 32.4461 54.3202C33.1796 54.3202 33.7742 53.7254 33.7742 52.9921V38.7419L37.0524 37.4216V64.706ZM39.7085 54.1162V48.0108C40.8854 48.5248 41.7103 49.6994 41.7103 51.0635C41.7103 52.4276 40.8855 53.6022 39.7085 54.1162ZM57.0366 49.7747H49.517C48.7835 49.7747 48.1889 50.3694 48.1889 51.1028C48.1889 51.8362 48.7835 52.4309 49.517 52.4309H57.0366C57.7701 52.4309 58.3647 51.8362 58.3647 51.1028C58.3647 50.3694 57.7701 49.7747 57.0366 49.7747ZM50.8697 40.0426C50.3511 39.5241 49.5101 39.5241 48.9913 40.0426L46.3975 42.6364C45.8789 43.155 45.8789 43.996 46.3975 44.5148C46.5207 44.6382 46.6672 44.7362 46.8283 44.8029C46.9895 44.8697 47.1623 44.904 47.3368 44.9038C47.5112 44.904 47.684 44.8697 47.8451 44.803C48.0063 44.7362 48.1527 44.6383 48.2759 44.5148L50.8697 41.9209C51.3883 41.4023 51.3883 40.5613 50.8697 40.0426ZM50.9672 60.1607L48.2866 57.4801C47.768 56.9616 46.927 56.9616 46.4083 57.4801C45.8896 57.9987 45.8896 58.8397 46.4083 59.3584L49.089 62.0391C49.3483 62.2984 49.6882 62.4281 50.0281 62.4281C50.3679 62.4281 50.7079 62.2984 50.9672 62.0391C51.4858 61.5205 51.4858 60.6795 50.9672 60.1607Z" fill="#DEE9F7"/>
<path d="M62.6875 0H37.9844C35.0551 0 32.6719 2.38319 32.6719 5.3125V5.84375H10.3594C8.60173 5.84375 7.17188 7.27374 7.17188 9.03125V30.0156C7.17188 31.7731 8.60173 33.2031 10.3594 33.2031H11.7317V37.2761C11.7318 37.5387 11.8097 37.7955 11.9557 38.0138C12.1016 38.2322 12.309 38.4024 12.5517 38.5029C12.7943 38.6034 13.0613 38.6297 13.319 38.5785C13.5766 38.5273 13.8132 38.4009 13.999 38.2152L19.011 33.2031H45.3927C47.1503 33.2031 48.5802 31.7731 48.5802 30.0156V26.0312H62.6875C65.6168 26.0312 68 23.6481 68 20.7188V5.3125C67.9999 2.38319 65.6168 0 62.6875 0ZM45.9239 30.0156C45.9239 30.3086 45.6856 30.5469 45.3927 30.5469H18.4609C18.1087 30.5469 17.7709 30.6868 17.5218 30.9359L14.3881 34.0697V31.875C14.3881 31.1416 13.7935 30.5469 13.06 30.5469H10.3594C10.0664 30.5469 9.82812 30.3086 9.82812 30.0156V9.03125C9.82812 8.73827 10.0664 8.5 10.3594 8.5H32.6719V20.7188C32.6719 23.6481 35.0551 26.0312 37.9844 26.0312H45.9239V30.0156ZM65.3438 20.7188C65.3438 22.1834 64.1522 23.375 62.6875 23.375H37.9844C36.5197 23.375 35.3281 22.1834 35.3281 20.7188V5.3125C35.3281 3.84784 36.5197 2.65625 37.9844 2.65625H62.6875C64.1522 2.65625 65.3438 3.84784 65.3438 5.3125V20.7188Z" fill="#DEE9F7"/>
<path d="M55.6717 11.8656L46.582 6.61763C46.3801 6.50107 46.1511 6.4397 45.9179 6.4397C45.6848 6.4397 45.4558 6.50106 45.2539 6.61762C45.052 6.73419 44.8843 6.90184 44.7678 7.10374C44.6512 7.30563 44.5898 7.53466 44.5898 7.76779V18.2636C44.5898 18.4967 44.6512 18.7257 44.7678 18.9276C44.8843 19.1295 45.052 19.2972 45.2539 19.4137C45.4558 19.5303 45.6848 19.5917 45.9179 19.5917C46.1511 19.5917 46.3801 19.5303 46.582 19.4137L55.6717 14.1658C55.8735 14.0492 56.0412 13.8815 56.1577 13.6797C56.2742 13.4778 56.3356 13.2488 56.3356 13.0157C56.3356 12.7826 56.2742 12.5536 56.1577 12.3517C56.0412 12.1498 55.8735 11.9822 55.6717 11.8656ZM47.2461 15.9632V10.0682L52.3514 13.0157L47.2461 15.9632ZM28.4897 13.9454H15.2085C14.475 13.9454 13.8804 14.5402 13.8804 15.2736C13.8804 16.0069 14.475 16.6017 15.2085 16.6017H28.4897C29.2233 16.6017 29.8179 16.0069 29.8179 15.2736C29.8179 14.5402 29.2233 13.9454 28.4897 13.9454ZM29.4286 21.7721C29.1816 21.5249 28.8389 21.3829 28.4896 21.3829C28.1403 21.3829 27.7977 21.5249 27.5506 21.7721C27.3036 22.0191 27.1615 22.3618 27.1615 22.7111C27.1615 23.0604 27.3036 23.403 27.5506 23.6499C27.8003 23.8981 28.1376 24.038 28.4896 24.0392C28.8402 24.0392 29.1816 23.8971 29.4286 23.6499C29.6756 23.403 29.8177 23.0604 29.8177 22.7111C29.8177 22.3618 29.6756 22.0191 29.4286 21.7721ZM23.5078 21.3829H15.2085C14.475 21.3829 13.8804 21.9777 13.8804 22.7111C13.8804 23.4444 14.475 24.0392 15.2085 24.0392H23.5078C24.2413 24.0392 24.8359 23.4444 24.8359 22.7111C24.8359 21.9777 24.2413 21.3829 23.5078 21.3829Z" fill="#DEE9F7"/>
</g>
</g>
<defs>
<filter id="filter0_f_225910_491" x="-6" y="-6" width="80" height="80" filterUnits="userSpaceOnUse" color-interpolation-filters="sRGB">
<feFlood flood-opacity="0" result="BackgroundImageFix"/>
<feBlend mode="normal" in="SourceGraphic" in2="BackgroundImageFix" result="shape"/>
<feGaussianBlur stdDeviation="3" result="effect1_foregroundBlur_225910_491"/>
</filter>
<clipPath id="clip0_225910_491">
<rect width="68" height="68" fill="white"/>
</clipPath>
<clipPath id="clip1_225910_491">
<rect width="68" height="68" fill="white"/>
</clipPath>
<clipPath id="clip2_225910_491">
<rect width="68" height="68" fill="white"/>
</clipPath>
</defs>
</svg>
