<svg width="36" height="16" viewBox="0 0 36 16" fill="none" xmlns="http://www.w3.org/2000/svg">
<g clip-path="url(#clip0_225661_1208)">
<path d="M28.2199 3.47C28.3606 3.32955 28.5512 3.25066 28.7499 3.25066C28.9487 3.25066 29.1393 3.32955 29.2799 3.47L33.5299 7.72C33.6704 7.86062 33.7493 8.05125 33.7493 8.25C33.7493 8.44875 33.6704 8.63937 33.5299 8.78L29.2799 13.03C29.1377 13.1624 28.9496 13.2345 28.7553 13.2312C28.561 13.2278 28.3755 13.1492 28.2379 13.012C28.1007 12.8744 28.0221 12.6889 28.0188 12.4946C28.0154 12.3003 28.0875 12.1123 28.2199 11.97L31.1899 9L3.74993 9C3.55102 9 3.36025 8.92098 3.2196 8.78033C3.07895 8.63967 2.99993 8.44891 2.99993 8.25C2.99993 8.05108 3.07895 7.86032 3.2196 7.71967C3.36025 7.57901 3.55102 7.5 3.74993 7.5L31.1899 7.5L28.2199 4.53C28.0795 4.38937 28.0006 4.19875 28.0006 4C28.0006 3.80125 28.0795 3.61062 28.2199 3.47Z" fill="#00F6FF"/>
</g>
<defs>
<clipPath id="clip0_225661_1208">
<rect width="16" height="36" fill="white" transform="translate(36) rotate(90)"/>
</clipPath>
</defs>
</svg>
