<svg width="16" height="17" viewBox="0 0 16 17" fill="none" xmlns="http://www.w3.org/2000/svg">
<g clip-path="url(#clip0_225783_942)">
<path d="M7.99927 0.5C3.58807 0.5 -0.000732422 4.0888 -0.000732422 8.5C-0.000732422 12.9112 3.58807 16.5 7.99927 16.5C12.4105 16.5 15.9993 12.9112 15.9993 8.5C15.9993 4.0888 12.4105 0.5 7.99927 0.5ZM7.99927 14.3182C4.79112 14.3182 2.18109 11.7081 2.18109 8.5C2.18109 5.29185 4.79112 2.68182 7.99927 2.68182C11.2074 2.68182 13.8174 5.29185 13.8174 8.5C13.8174 11.7081 11.2074 14.3182 7.99927 14.3182ZM10.1606 9.82829L11.3401 10.9239L10.7457 11.4441C10.0013 12.0954 9.05032 12.4543 8.06814 12.4543C5.8613 12.4543 4.06589 10.6959 4.06589 8.53462C4.06589 6.37833 5.8613 4.624 8.06814 4.624C9.05112 4.624 9.9989 4.97949 10.7366 5.62502L11.3092 6.12611L10.1789 7.25709L9.67701 6.81367C9.24523 6.43236 8.67396 6.22233 8.06814 6.22233C6.74261 6.22233 5.66421 7.25964 5.66421 8.53454C5.66421 9.81454 6.74261 10.8559 8.06814 10.8559C8.66727 10.8559 9.23861 10.6425 9.67701 10.2553L10.1606 9.82829Z" fill="white" fill-opacity="0.6"/>
</g>
<defs>
<clipPath id="clip0_225783_942">
<rect width="16" height="16" fill="white" transform="translate(-0.000732422 0.5)"/>
</clipPath>
</defs>
</svg>
