<svg width="42" height="40" viewBox="0 0 42 40" fill="none" xmlns="http://www.w3.org/2000/svg">
<path d="M0 0H13.44V11.76H19.992V21.28H0V0ZM0 33.32V25.48H13.44V27.384C14.504 28.56 16.072 29.12 18.872 29.12H19.992V39.76H18.872C10.416 39.76 4.368 36.904 0 33.32ZM14.56 10.64V0H41.104V10.64H14.56ZM21.112 39.76V29.12H22.008C25.144 29.12 26.6 28.56 27.664 27.384V25.48H41.104V33.32C36.792 36.96 30.744 39.76 22.008 39.76H21.112ZM21.112 21.28V11.76H21.728C30.744 11.76 36.792 14.28 41.104 17.92V24.36H27.664V22.96C26.824 22.4 25.312 21.28 22.008 21.28H21.112Z" fill="#00F6FF"/>
</svg>
