<svg width="32" height="33" viewBox="0 0 32 33" fill="none" xmlns="http://www.w3.org/2000/svg">
<path fill-rule="evenodd" clip-rule="evenodd" d="M3 8.21533C3 7.66305 3.44772 7.21533 4 7.21533H28C28.5523 7.21533 29 7.66305 29 8.21533C29 8.76762 28.5523 9.21533 28 9.21533H4C3.44772 9.21533 3 8.76762 3 8.21533ZM3 16.2153C3 15.663 3.44772 15.2153 4 15.2153H28C28.5523 15.2153 29 15.663 29 16.2153C29 16.7676 28.5523 17.2153 28 17.2153H4C3.44772 17.2153 3 16.7676 3 16.2153ZM3 24.2153C3 23.663 3.44772 23.2153 4 23.2153H28C28.5523 23.2153 29 23.663 29 24.2153C29 24.7676 28.5523 25.2153 28 25.2153H4C3.44772 25.2153 3 24.7676 3 24.2153Z" fill="#DEE9F7"/>
</svg>
