<svg width="197" height="40" viewBox="0 0 197 40" fill="none" xmlns="http://www.w3.org/2000/svg">
<path d="M185.538 33.2H180.498V18.5H185.538V33.2ZM185.958 29.882V27.908H194.883L196.773 29.21V33.2H193.707L188.898 29.882H185.958ZM185.958 27.488V25.514H189.822C190.767 25.514 191.418 25.262 191.733 24.905V24.065H196.773V26.102C196.353 26.501 195.723 27.047 194.883 27.488H185.958ZM185.958 22.49V18.5H189.717C193.413 18.5 195.555 19.907 196.773 20.705V23.645H191.733V23.12C191.418 22.763 190.767 22.49 189.822 22.49H185.958Z" fill="#00F6FF"/>
<path d="M165.691 33.2V18.5H170.731V33.2H165.691ZM171.151 33.2V29.21H180.076V33.2H171.151ZM171.151 27.824V23.834H178.081V27.824H171.151ZM171.151 22.49V18.5H180.076V22.49H171.151Z" fill="#00F6FF"/>
<path d="M148.792 22.49V18.5H165.277V22.49H148.792ZM154.525 33.2V22.91H159.565V33.2H154.525Z" fill="#00F6FF"/>
<path d="M140.039 18.5L142.916 29.21V33.2H139.325L136.448 22.49H131.156V18.5H140.039ZM131.156 33.2V22.91H136.196V33.2H131.156ZM143.336 33.2V18.5H148.376V33.2H143.336Z" fill="#00F6FF"/>
<path d="M116.349 33.2V18.5H121.389V33.2H116.349ZM121.809 33.2V29.21H130.734V33.2H121.809ZM121.809 27.824V23.834H128.739V27.824H121.809ZM121.809 22.49V18.5H130.734V22.49H121.809Z" fill="#00F6FF"/>
<path d="M104.388 25.64H99.3481V22.028C100.713 20.411 103.632 18.29 107.706 18.29V22.28C106.068 22.385 104.934 23.099 104.388 23.645V25.64ZM99.3481 29.672V26.06H104.388V28.055C104.934 28.601 106.068 29.315 107.706 29.42V33.41C103.632 33.41 100.734 31.289 99.3481 29.672ZM108.126 33.41V29.42C109.764 29.315 110.856 28.601 111.402 28.055H115.938V30.995C114.174 32.192 111.549 33.41 108.126 33.41ZM108.126 22.28V18.29C111.549 18.29 114.174 19.487 115.938 20.705V23.645H111.402C110.856 23.099 109.764 22.385 108.126 22.28Z" fill="#00F6FF"/>
<path d="M75.2925 29.672V18.5H80.3325V28.055C80.8785 28.601 82.0545 29.315 83.4405 29.42V33.41C79.4505 33.41 76.6365 31.331 75.2925 29.672ZM83.8605 33.41V29.42C85.2045 29.315 86.3805 28.601 86.9475 28.055V18.5H91.9875V29.672C90.6645 31.331 87.8505 33.41 83.8605 33.41Z" fill="#DEE9F7"/>
<path d="M58.0659 18.5H66.0879V22.49H63.1059V29.21H66.0879V33.2H58.0659V18.5ZM66.5079 33.2V29.21C68.0829 29.105 69.2589 28.517 69.8259 27.971V26.06H74.8659V29.672C73.5849 31.268 70.9389 33.2 66.5079 33.2ZM66.5079 22.49V18.5C70.9389 18.5 73.5639 20.432 74.8659 22.028V25.64H69.8259V23.729C69.2589 23.183 68.0829 22.595 66.5079 22.49Z" fill="#DEE9F7"/>
<path d="M43.2593 33.2V18.5H48.2993V33.2H43.2593ZM48.7193 33.2V29.21H57.6443V33.2H48.7193ZM48.7193 27.824V23.834H55.6493V27.824H48.7193ZM48.7193 22.49V18.5H57.6443V22.49H48.7193Z" fill="#DEE9F7"/>
<path d="M0 0H13.44V11.76H19.992V21.28H0V0ZM0 33.32V25.48H13.44V27.384C14.504 28.56 16.072 29.12 18.872 29.12H19.992V39.76H18.872C10.416 39.76 4.368 36.904 0 33.32ZM14.56 10.64V0H41.104V10.64H14.56ZM21.112 39.76V29.12H22.008C25.144 29.12 26.6 28.56 27.664 27.384V25.48H41.104V33.32C36.792 36.96 30.744 39.76 22.008 39.76H21.112ZM21.112 21.28V11.76H21.728C30.744 11.76 36.792 14.28 41.104 17.92V24.36H27.664V22.96C26.824 22.4 25.312 21.28 22.008 21.28H21.112Z" fill="#00F6FF"/>
<path d="M74.7557 1.2002L76.1027 5.34609H80.462L76.9353 7.9084L78.2824 12.0543L74.7557 9.49199L71.2289 12.0543L72.576 7.9084L69.0493 5.34609H73.4086L74.7557 1.2002Z" fill="#00F6FF"/>
<path d="M96.1683 1.2002L97.5153 5.34609H101.875L98.3479 7.9084L99.695 12.0543L96.1683 9.49199L92.6415 12.0543L93.9886 7.9084L90.4619 5.34609H94.8212L96.1683 1.2002Z" fill="#00F6FF"/>
<path d="M117.581 1.2002L118.928 5.34609H123.287L119.761 7.9084L121.108 12.0543L117.581 9.49199L114.054 12.0543L115.401 7.9084L111.875 5.34609H116.234L117.581 1.2002Z" fill="#00F6FF"/>
<path d="M138.994 1.2002L140.341 5.34609H144.7L141.173 7.9084L142.52 12.0543L138.994 9.49199L135.467 12.0543L136.814 7.9084L133.287 5.34609H137.647L138.994 1.2002Z" fill="#00F6FF"/>
<path d="M160.406 1.2002L161.753 5.34609H166.113L162.586 7.9084L163.933 12.0543L160.406 9.49199L156.88 12.0543L158.227 7.9084L154.7 5.34609H159.059L160.406 1.2002Z" fill="#00F6FF"/>
</svg>
