<svg aria-hidden="true" style="position: absolute; width: 0; height: 0; overflow: hidden;" version="1.1" xmlns="http://www.w3.org/2000/svg" xmlns:xlink="http://www.w3.org/1999/xlink">
<defs>
<symbol id="icon-facebook" viewBox="0 0 32 32">
<path fill="#dee9f7" style="fill: var(--color1, #dee9f7)" d="M28.908 15.802c0-7.137-5.792-12.929-12.929-12.929s-12.929 5.792-12.929 12.929c0 6.258 4.448 11.468 10.343 12.671v-8.792h-2.586v-3.879h2.586v-3.232c0-2.495 2.030-4.525 4.525-4.525h3.232v3.879h-2.586c-0.711 0-1.293 0.582-1.293 1.293v2.586h3.879v3.879h-3.879v8.986c6.529-0.646 11.636-6.154 11.636-12.865z"></path>
</symbol>
<symbol id="icon-instagram" viewBox="0 0 32 32">
<path fill="#dee9f7" style="fill: var(--color1, #dee9f7)" d="M17.308 2.873c1.455 0.004 2.193 0.012 2.83 0.030l0.251 0.009c0.29 0.010 0.575 0.023 0.921 0.039 1.376 0.065 2.314 0.282 3.138 0.601 0.853 0.328 1.572 0.773 2.291 1.491 0.657 0.646 1.166 1.428 1.491 2.291 0.319 0.824 0.537 1.762 0.601 3.139 0.015 0.344 0.028 0.63 0.039 0.921l0.008 0.251c0.019 0.636 0.027 1.374 0.030 2.829l0.001 0.965v1.694c0.003 0.943-0.007 1.886-0.030 2.829l-0.008 0.251c-0.010 0.291-0.023 0.577-0.039 0.921-0.065 1.377-0.284 2.314-0.602 3.139-0.324 0.863-0.832 1.645-1.491 2.291-0.646 0.657-1.428 1.166-2.291 1.491-0.824 0.319-1.762 0.537-3.138 0.601-0.307 0.014-0.614 0.027-0.921 0.039l-0.251 0.008c-0.637 0.018-1.376 0.027-2.83 0.030l-2.657 0.001c-0.944 0.003-1.887-0.007-2.83-0.030l-0.251-0.008c-0.307-0.012-0.614-0.025-0.921-0.040-1.376-0.065-2.314-0.282-3.139-0.601-0.863-0.324-1.644-0.833-2.29-1.491-0.658-0.646-1.167-1.428-1.492-2.291-0.319-0.824-0.537-1.762-0.601-3.139-0.014-0.307-0.027-0.614-0.039-0.921l-0.006-0.251c-0.024-0.943-0.035-1.886-0.032-2.829v-2.658c-0.004-0.943 0.006-1.886 0.028-2.829l0.009-0.251c0.010-0.291 0.023-0.577 0.039-0.921 0.065-1.377 0.282-2.314 0.601-3.139 0.325-0.864 0.835-1.646 1.495-2.291 0.645-0.657 1.426-1.166 2.288-1.491 0.825-0.319 1.762-0.537 3.139-0.601 0.344-0.015 0.631-0.028 0.921-0.039l0.251-0.008c0.943-0.023 1.886-0.033 2.829-0.030l2.658-0.001zM15.979 9.338c-1.715 0-3.359 0.681-4.571 1.893s-1.893 2.857-1.893 4.571 0.681 3.359 1.893 4.571c1.212 1.212 2.857 1.893 4.571 1.893s3.359-0.681 4.571-1.893c1.212-1.212 1.893-2.857 1.893-4.571s-0.681-3.359-1.893-4.571c-1.212-1.212-2.857-1.893-4.571-1.893zM15.979 11.923c0.509-0 1.014 0.1 1.484 0.295s0.898 0.48 1.259 0.841 0.646 0.788 0.841 1.258c0.195 0.471 0.295 0.975 0.295 1.484s-0.1 1.014-0.295 1.484c-0.195 0.471-0.48 0.898-0.841 1.258s-0.788 0.646-1.258 0.841c-0.471 0.195-0.975 0.295-1.484 0.296-1.029 0-2.015-0.409-2.743-1.136s-1.136-1.714-1.136-2.743c0-1.029 0.409-2.015 1.136-2.743s1.714-1.136 2.743-1.136zM22.768 7.398c-0.429 0-0.84 0.17-1.143 0.473s-0.473 0.714-0.473 1.143 0.17 0.84 0.473 1.143c0.303 0.303 0.714 0.473 1.143 0.473s0.84-0.17 1.143-0.473 0.473-0.714 0.473-1.143c0-0.429-0.17-0.84-0.473-1.143s-0.714-0.473-1.143-0.473z"></path>
</symbol>
<symbol id="icon-linkedin" viewBox="0 0 32 32">
<path fill="#dee9f7" style="fill: var(--color1, #dee9f7)" d="M25.029 4.166c0.686 0 1.343 0.272 1.828 0.757s0.757 1.143 0.757 1.828v18.101c0 0.686-0.272 1.344-0.757 1.829s-1.143 0.757-1.828 0.757h-18.101c-0.686 0-1.344-0.273-1.828-0.757s-0.757-1.143-0.757-1.829v-18.101c0-0.686 0.272-1.344 0.757-1.828s1.143-0.757 1.828-0.757h18.101zM24.383 24.206v-6.853c0-1.118-0.444-2.19-1.235-2.98s-1.863-1.235-2.98-1.235c-1.099 0-2.379 0.672-3 1.681v-1.435h-3.607v10.822h3.607v-6.374c0-0.995 0.802-1.81 1.797-1.81 0.48 0 0.941 0.191 1.28 0.53s0.53 0.8 0.53 1.28v6.374h3.607zM9.359 11.354c0.576 0 1.129-0.229 1.536-0.636s0.636-0.96 0.636-1.536c0-1.202-0.97-2.185-2.172-2.185-0.579 0-1.135 0.23-1.545 0.64s-0.64 0.966-0.64 1.545c0 1.202 0.983 2.172 2.185 2.172zM11.156 24.206v-10.822h-3.581v10.822h3.581z"></path>
</symbol>
<symbol id="icon-telegram" viewBox="0 0 32 32">
<path fill="#dee9f7" style="fill: var(--color1, #dee9f7)" d="M15.979 2.873c-7.137 0-12.929 5.792-12.929 12.929s5.792 12.929 12.929 12.929c7.137 0 12.929-5.792 12.929-12.929s-5.792-12.929-12.929-12.929zM21.978 11.665c-0.194 2.043-1.034 7.008-1.461 9.296-0.181 0.97-0.543 1.293-0.879 1.332-0.75 0.065-1.319-0.491-2.043-0.97-1.138-0.75-1.784-1.215-2.883-1.939-1.28-0.84-0.452-1.306 0.284-2.056 0.194-0.194 3.504-3.207 3.569-3.478 0.009-0.041 0.008-0.084-0.003-0.124s-0.032-0.078-0.061-0.108c-0.078-0.065-0.181-0.039-0.271-0.026-0.116 0.026-1.927 1.228-5.456 3.607-0.517 0.349-0.983 0.53-1.396 0.517-0.465-0.013-1.345-0.259-2.004-0.478-0.815-0.259-1.448-0.401-1.396-0.853 0.026-0.233 0.349-0.465 0.957-0.711 3.775-1.642 6.284-2.728 7.538-3.245 3.594-1.5 4.331-1.758 4.823-1.758 0.103 0 0.349 0.026 0.504 0.155 0.129 0.103 0.168 0.246 0.181 0.349-0.013 0.078 0.013 0.31 0 0.491z"></path>
</symbol>
</defs>
</svg>
