<svg width="33" height="33" viewBox="0 0 33 33" fill="none" xmlns="http://www.w3.org/2000/svg">
<path d="M16.4781 2.96265C9.11811 2.96265 3.14478 8.93598 3.14478 16.296C3.14478 23.656 9.11811 29.6293 16.4781 29.6293C23.8381 29.6293 29.8114 23.656 29.8114 16.296C29.8114 8.93598 23.8381 2.96265 16.4781 2.96265ZM22.6648 12.0293C22.4648 14.136 21.5981 19.256 21.1581 21.616C20.9714 22.616 20.5981 22.9493 20.2514 22.9893C19.4781 23.056 18.8914 22.4826 18.1448 21.9893C16.9714 21.216 16.3048 20.736 15.1714 19.9893C13.8514 19.1226 14.7048 18.6426 15.4648 17.8693C15.6648 17.6693 19.0781 14.5626 19.1448 14.2826C19.154 14.2402 19.1528 14.1962 19.1412 14.1544C19.1296 14.1126 19.1079 14.0742 19.0781 14.0426C18.9981 13.976 18.8914 14.0026 18.7981 14.016C18.6781 14.0426 16.8114 15.2826 13.1714 17.736C12.6381 18.096 12.1581 18.2826 11.7314 18.2693C11.2514 18.256 10.3448 18.0026 9.66477 17.776C8.82477 17.5093 8.17144 17.3626 8.22478 16.896C8.25144 16.656 8.58478 16.416 9.21144 16.1626C13.1048 14.4693 15.6914 13.3493 16.9848 12.816C20.6914 11.2693 21.4514 11.0026 21.9581 11.0026C22.0648 11.0026 22.3181 11.0293 22.4781 11.1626C22.6114 11.2693 22.6514 11.416 22.6648 11.5226C22.6514 11.6026 22.6781 11.8426 22.6648 12.0293Z" fill="#DEE9F7"/>
</svg>
