<svg width="40" height="41" viewBox="0 0 40 41" fill="none" xmlns="http://www.w3.org/2000/svg">
<g clip-path="url(#clip0_225804_462)">
<path d="M0.853564 20.6519C0.852627 24.0127 1.73763 27.2943 3.42044 30.1867L0.692627 40.0691L10.8851 37.4174C13.7042 38.9402 16.8628 39.7381 20.0726 39.7383H20.0811C30.6772 39.7383 39.3026 31.1828 39.3072 20.667C39.3092 15.5713 37.3111 10.7797 33.6808 7.17472C30.0511 3.57007 25.2237 1.58387 20.0803 1.58154C9.48294 1.58154 0.858096 10.1366 0.853721 20.6519" fill="url(#paint0_linear_225804_462)"/>
<path d="M0.167188 20.6458C0.166094 24.1275 1.08281 27.5264 2.82562 30.5224L0 40.7591L10.558 38.0123C13.467 39.5861 16.7423 40.4159 20.0752 40.4171H20.0837C31.06 40.4171 39.9953 31.5538 40 20.6616C40.0019 15.3828 37.9319 10.419 34.1719 6.68485C30.4114 2.9512 25.4114 0.893528 20.0837 0.891357C9.10562 0.891357 0.171563 9.75337 0.167188 20.6458ZM6.45484 30.0064L6.06062 29.3855C4.40344 26.7709 3.52875 23.7495 3.53 20.647C3.53344 11.5935 10.9591 4.22779 20.09 4.22779C24.5119 4.22965 28.6675 5.94004 31.7931 9.0433C34.9186 12.1469 36.6384 16.2724 36.6373 20.6603C36.6333 29.7138 29.2075 37.0805 20.0837 37.0805H20.0772C17.1064 37.079 14.1928 36.2873 11.6519 34.7914L11.0472 34.4355L4.78188 36.0655L6.45484 30.0064Z" fill="url(#paint1_linear_225804_462)"/>
<path d="M15.1061 12.3871C14.7332 11.565 14.3409 11.5484 13.9864 11.5339C13.6961 11.5215 13.3642 11.5225 13.0326 11.5225C12.7007 11.5225 12.1615 11.6464 11.7057 12.1402C11.2495 12.6344 9.96387 13.8288 9.96387 16.2581C9.96387 18.6876 11.7471 21.0353 11.9957 21.3651C12.2446 21.6943 15.4384 26.8391 20.4965 28.8183C24.7003 30.4631 25.5557 30.136 26.4681 30.0535C27.3806 29.9713 29.4125 28.8594 29.827 27.7064C30.2418 26.5535 30.2418 25.5653 30.1175 25.3588C29.9931 25.153 29.6612 25.0295 29.1636 24.7826C28.6657 24.5357 26.2192 23.3411 25.7631 23.1763C25.3068 23.0116 24.9751 22.9295 24.6432 23.4239C24.3114 23.9175 23.3584 25.0295 23.0679 25.3588C22.7778 25.6888 22.4873 25.7299 21.9898 25.4829C21.4918 25.2352 19.8892 24.7144 17.9878 23.0324C16.5084 21.7236 15.5096 20.1073 15.2193 19.6129C14.929 19.1192 15.1882 18.8516 15.4378 18.6056C15.6614 18.3843 15.9356 18.029 16.1846 17.7408C16.4328 17.4524 16.5156 17.2467 16.6815 16.9174C16.8476 16.5877 16.7645 16.2994 16.6403 16.0524C16.5156 15.8054 15.5486 13.3634 15.1061 12.3871Z" fill="white"/>
</g>
<defs>
<linearGradient id="paint0_linear_225804_462" x1="1931.42" y1="3850.34" x2="1931.42" y2="1.58154" gradientUnits="userSpaceOnUse">
<stop stop-color="#1FAF38"/>
<stop offset="1" stop-color="#60D669"/>
</linearGradient>
<linearGradient id="paint1_linear_225804_462" x1="2000" y1="3987.67" x2="2000" y2="0.891357" gradientUnits="userSpaceOnUse">
<stop stop-color="#F9F9F9"/>
<stop offset="1" stop-color="white"/>
</linearGradient>
<clipPath id="clip0_225804_462">
<rect width="40" height="40" fill="white" transform="translate(0 0.891357)"/>
</clipPath>
</defs>
</svg>
