<svg width="90" height="90" viewBox="0 0 90 90" fill="none" xmlns="http://www.w3.org/2000/svg">
<g clip-path="url(#clip0_225659_863)" filter="url(#filter0_f_225659_863)">
<path d="M13.3125 12.0938H15.75V29.1562H13.3125V12.0938ZM20.625 12.0938H23.0625V29.1562H20.625V12.0938Z" fill="#00F6FF"/>
<path d="M14.5312 19.4062H21.8438V21.8438H14.5312V19.4062Z" fill="#00F6FF"/>
<path d="M14.5312 19.4062H21.8438V21.8438H14.5312V19.4062ZM25.5 12.0938H35.25V14.5312H25.5V12.0938Z" fill="#00F6FF"/>
<path d="M29.1562 13.3125H31.5938V29.1562H29.1562V13.3125ZM47.4375 29.1562H45V20.0339L43.7045 23.4903C43.6177 23.7231 43.4618 23.9239 43.2577 24.0656C43.0535 24.2073 42.811 24.2833 42.5625 24.2833C42.314 24.2833 42.0715 24.2073 41.8673 24.0656C41.6632 23.9239 41.5073 23.7231 41.4205 23.4903L40.125 20.0339V29.1562H37.6875V13.3125C37.687 13.0266 37.7871 12.7496 37.9701 12.5301C38.1532 12.3105 38.4076 12.1622 38.6889 12.1112C38.9702 12.0603 39.2605 12.1098 39.509 12.2512C39.7575 12.3926 39.9483 12.6168 40.0482 12.8847L42.5625 19.5915L45.0768 12.8884C45.1765 12.6208 45.3671 12.3967 45.6152 12.2553C45.8633 12.1139 46.1532 12.0641 46.4343 12.1146C46.7153 12.1651 46.9698 12.3127 47.1531 12.5316C47.3365 12.7505 47.4371 13.0269 47.4375 13.3125V29.1562ZM58.4062 29.1562H53.5312C53.0473 29.1704 52.5655 29.0855 52.1155 28.9068C51.6655 28.728 51.2568 28.4592 50.9144 28.1169C50.572 27.7745 50.3032 27.3658 50.1245 26.9158C49.9457 26.4658 49.8608 25.984 49.875 25.5V12.0937H52.3125V25.5C52.2964 25.664 52.3169 25.8296 52.3724 25.9848C52.428 26.14 52.5172 26.2809 52.6338 26.3975C52.7503 26.514 52.8913 26.6033 53.0465 26.6588C53.2016 26.7144 53.3672 26.7348 53.5312 26.7187H58.4062V29.1562Z" fill="#00F6FF"/>
<path d="M25.5 41.3438C25.1768 41.3438 24.8668 41.2153 24.6382 40.9868C24.4097 40.7582 24.2812 40.4482 24.2812 40.125V35.25H7.21875C6.89552 35.25 6.58552 35.1216 6.35696 34.893C6.1284 34.6645 6 34.3545 6 34.0312V7.21875C6 6.89552 6.1284 6.58552 6.35696 6.35696C6.58552 6.1284 6.89552 6 7.21875 6H63.2812C63.6045 6 63.9145 6.1284 64.143 6.35696C64.3716 6.58552 64.5 6.89552 64.5 7.21875V34.0312C64.5 34.3545 64.3716 34.6645 64.143 34.893C63.9145 35.1216 63.6045 35.25 63.2812 35.25H32.0983L26.3617 40.9867C26.1332 41.2152 25.8232 41.3437 25.5 41.3438ZM8.4375 32.8125H25.5C25.8232 32.8125 26.1332 32.9409 26.3618 33.1695C26.5903 33.398 26.7188 33.708 26.7188 34.0312V37.1829L30.7321 33.1696C30.9606 32.941 31.2705 32.8126 31.5938 32.8125H62.0625V8.4375H8.4375V32.8125ZM52.3125 84C51.9893 84 51.6793 83.8716 51.4507 83.643C51.2222 83.4145 51.0938 83.1045 51.0938 82.7812V77.9062H24.2812C23.958 77.9062 23.648 77.7778 23.4195 77.5493C23.1909 77.3207 23.0625 77.0107 23.0625 76.6875V47.4375C23.0625 47.1143 23.1909 46.8043 23.4195 46.5757C23.648 46.3472 23.958 46.2188 24.2812 46.2188H82.7812C83.1045 46.2188 83.4145 46.3472 83.643 46.5757C83.8716 46.8043 84 47.1143 84 47.4375V76.6875C84 77.0107 83.8716 77.3207 83.643 77.5493C83.4145 77.7778 83.1045 77.9062 82.7812 77.9062H58.9108L53.1742 83.6429C52.9457 83.8715 52.6357 83.9999 52.3125 84ZM25.5 75.4688H52.3125C52.6357 75.4688 52.9457 75.5972 53.1743 75.8257C53.4028 76.0543 53.5312 76.3643 53.5312 76.6875V79.8392L57.5446 75.8258C57.7731 75.5973 58.083 75.4688 58.4062 75.4688H81.5625V48.6562H25.5V75.4688Z" fill="#00F6FF"/>
<path d="M68.1563 63.2813C66.951 63.2813 65.7729 62.9239 64.7707 62.2543C63.7686 61.5847 62.9876 60.633 62.5264 59.5195C62.0651 58.406 61.9445 57.1807 62.1796 55.9987C62.4147 54.8166 62.9951 53.7308 63.8473 52.8786C64.6995 52.0263 65.7853 51.446 66.9674 51.2108C68.1495 50.9757 69.3747 51.0964 70.4882 51.5576C71.6017 52.0188 72.5534 52.7999 73.223 53.802C73.8926 54.8041 74.25 55.9823 74.25 57.1875H71.8125C71.8125 56.4644 71.5981 55.7575 71.1963 55.1562C70.7946 54.5549 70.2235 54.0863 69.5554 53.8096C68.8873 53.5328 68.1522 53.4604 67.443 53.6015C66.7337 53.7426 66.0822 54.0908 65.5709 54.6021C65.0596 55.1135 64.7113 55.765 64.5703 56.4742C64.4292 57.1834 64.5016 57.9186 64.7783 58.5867C65.0551 59.2548 65.5237 59.8258 66.1249 60.2276C66.7262 60.6293 67.4331 60.8438 68.1563 60.8438V63.2813Z" fill="#00F6FF"/>
<path d="M68.1563 73.0313C66.5407 73.0293 64.9918 72.3867 63.8495 71.2443C62.7071 70.1019 62.0644 68.5531 62.0625 66.9375H64.5C64.5 67.6606 64.7144 68.3675 65.1162 68.9688C65.5179 69.5701 66.089 70.0387 66.7571 70.3154C67.4252 70.5922 68.1603 70.6646 68.8696 70.5235C69.5788 70.3824 70.2303 70.0342 70.7416 69.5229C71.2529 69.0115 71.6012 68.36 71.7422 67.6508C71.8833 66.9416 71.8109 66.2064 71.5342 65.5383C71.2575 64.8702 70.7888 64.2992 70.1876 63.8974C69.5863 63.4957 68.8794 63.2813 68.1563 63.2813V60.8438C69.7724 60.8438 71.3224 61.4858 72.4652 62.6286C73.608 63.7714 74.25 65.3213 74.25 66.9375C74.25 68.5537 73.608 70.1036 72.4652 71.2464C71.3224 72.3892 69.7724 73.0313 68.1563 73.0313ZM53.5313 63.2813C52.326 63.2813 51.1479 62.9239 50.1457 62.2543C49.1436 61.5847 48.3626 60.633 47.9014 59.5195C47.4401 58.406 47.3195 57.1807 47.5546 55.9987C47.7897 54.8166 48.3701 53.7308 49.2223 52.8786C50.0745 52.0263 51.1603 51.446 52.3424 51.2108C53.5245 50.9757 54.7497 51.0964 55.8632 51.5576C56.9767 52.0188 57.9284 52.7999 58.598 53.802C59.2676 54.8041 59.625 55.9823 59.625 57.1875H57.1875C57.1875 56.4644 56.9731 55.7575 56.5713 55.1562C56.1696 54.5549 55.5985 54.0863 54.9304 53.8096C54.2623 53.5328 53.5272 53.4604 52.818 53.6015C52.1087 53.7426 51.4572 54.0908 50.9459 54.6021C50.4346 55.1135 50.0863 55.765 49.9453 56.4742C49.8042 57.1834 49.8766 57.9186 50.1533 58.5867C50.4301 59.2548 50.8987 59.8258 51.4999 60.2276C52.1012 60.6293 52.8081 60.8438 53.5313 60.8438V63.2813Z" fill="#00F6FF"/>
<path d="M53.5312 73.0312C51.9156 73.0293 50.3668 72.3867 49.2244 71.2443C48.082 70.1019 47.4394 68.5531 47.4374 66.9375H49.8749C49.8749 67.6606 50.0894 68.3675 50.4911 68.9688C50.8929 69.5701 51.4639 70.0387 52.132 70.3154C52.8001 70.5922 53.5352 70.6646 54.2445 70.5235C54.9537 70.3824 55.6052 70.0342 56.1165 69.5229C56.6279 69.0115 56.9761 68.36 57.1172 67.6508C57.2583 66.9416 57.1859 66.2064 56.9091 65.5383C56.6324 64.8702 56.1638 64.2992 55.5625 63.8974C54.9612 63.4957 54.2543 63.2812 53.5312 63.2812V60.8437C55.1474 60.8437 56.6973 61.4858 57.8401 62.6286C58.9829 63.7714 59.6249 65.3213 59.6249 66.9375C59.6249 68.5537 58.9829 70.1036 57.8401 71.2464C56.6973 72.3892 55.1474 73.0312 53.5312 73.0312ZM38.9062 73.0312C37.2906 73.0293 35.7418 72.3867 34.5994 71.2443C33.457 70.1019 32.8144 68.5531 32.8124 66.9375V57.1875C32.8124 55.5713 33.4545 54.0214 34.5973 52.8786C35.7401 51.7358 37.29 51.0937 38.9062 51.0937C40.5223 51.0937 42.0723 51.7358 43.2151 52.8786C44.3579 54.0214 44.9999 55.5713 44.9999 57.1875H42.5624C42.5624 56.2178 42.1772 55.2878 41.4915 54.6021C40.8059 53.9165 39.8759 53.5312 38.9062 53.5312C37.9365 53.5312 37.0065 53.9165 36.3208 54.6021C35.6351 55.2878 35.2499 56.2178 35.2499 57.1875V66.9375C35.2499 67.9072 35.6351 68.8372 36.3208 69.5229C37.0065 70.2085 37.9365 70.5937 38.9062 70.5937C39.8759 70.5937 40.8059 70.2085 41.4915 69.5229C42.1772 68.8372 42.5624 67.9072 42.5624 66.9375H44.9999C44.998 68.5531 44.3554 70.1019 43.213 71.2443C42.0706 72.3867 40.5218 73.0293 38.9062 73.0312ZM73.0312 42.5625H32.8124V40.125H73.0312C73.5181 40.1508 74.0051 40.0739 74.4603 39.8993C74.9156 39.7247 75.3291 39.4563 75.6739 39.1115C76.0187 38.7667 76.2871 38.3532 76.4617 37.8979C76.6363 37.4426 76.7132 36.9557 76.6874 36.4687V35.25H79.1249V36.4687C79.1556 37.2772 79.0189 38.0833 78.7235 38.8365C78.4281 39.5896 77.9803 40.2737 77.4082 40.8458C76.8361 41.4179 76.1521 41.8656 75.3989 42.161C74.6457 42.4564 73.8396 42.5931 73.0312 42.5625ZM79.1249 27.9375H76.6874V25.5C76.7131 25.0125 76.6359 24.525 76.4608 24.0692C76.2857 23.6135 76.0166 23.1997 75.671 22.8549C75.3255 22.51 74.9112 22.2417 74.4551 22.0675C73.999 21.8933 73.5114 21.8171 73.0239 21.8437H66.9374V19.4062H73.0312C73.8396 19.3756 74.6457 19.5123 75.3989 19.8077C76.1521 20.1031 76.8361 20.5509 77.4082 21.123C77.9803 21.695 78.4281 22.3791 78.7235 23.1323C79.0189 23.8855 79.1556 24.6915 79.1249 25.5V27.9375ZM20.6249 64.5H16.9687C15.9985 64.5368 15.0312 64.3728 14.1274 64.0183C13.2235 63.6638 12.4027 63.1265 11.7162 62.44C11.0297 61.7535 10.4923 60.9326 10.1379 60.0288C9.78339 59.125 9.61941 58.1577 9.65618 57.1875V55.9688H12.0937V57.1875C12.0679 57.8346 12.1764 58.48 12.4123 59.0831C12.6482 59.6862 13.0064 60.234 13.4643 60.6919C13.9222 61.1498 14.47 61.508 15.0731 61.7439C15.6762 61.9798 16.3216 62.0882 16.9687 62.0625H20.6249V64.5ZM12.0937 48.6562H9.65618V47.4375C9.61941 46.4673 9.78339 45.5 10.1379 44.5962C10.4923 43.6924 11.0297 42.8715 11.7162 42.185C12.4027 41.4985 13.2235 40.9611 14.1274 40.6067C15.0312 40.2522 15.9985 40.0882 16.9687 40.125H20.6249V42.5625H16.9687C16.3216 42.5368 15.6762 42.6452 15.0731 42.8811C14.47 43.117 13.9222 43.4752 13.4643 43.9331C13.0064 44.391 12.6482 44.9388 12.4123 45.5419C12.1764 46.145 12.0679 46.7904 12.0937 47.4375V48.6562Z" fill="#00F6FF"/>
<path d="M77.9062 36.4688C76.9421 36.4688 75.9995 36.1828 75.1978 35.6472C74.3962 35.1115 73.7713 34.3501 73.4023 33.4593C73.0334 32.5685 72.9368 31.5883 73.1249 30.6427C73.313 29.697 73.7773 28.8284 74.4591 28.1466C75.1409 27.4648 76.0095 27.0005 76.9552 26.8124C77.9008 26.6243 78.881 26.7209 79.7718 27.0898C80.6626 27.4588 81.424 28.0837 81.9597 28.8853C82.4953 29.687 82.7812 30.6296 82.7812 31.5938C82.7812 32.8867 82.2676 34.1267 81.3534 35.0409C80.4392 35.9551 79.1992 36.4688 77.9062 36.4688ZM77.9062 29.1563C77.4242 29.1563 76.9529 29.2992 76.552 29.567C76.1512 29.8349 75.8388 30.2156 75.6543 30.661C75.4698 31.1064 75.4215 31.5965 75.5156 32.0693C75.6096 32.5421 75.8418 32.9764 76.1827 33.3173C76.5236 33.6582 76.9579 33.8904 77.4307 33.9844C77.9035 34.0785 78.3936 34.0302 78.839 33.8457C79.2844 33.6612 79.6651 33.3488 79.933 32.948C80.2008 32.5471 80.3438 32.0758 80.3438 31.5938C80.3438 30.9473 80.0869 30.3273 79.6298 29.8702C79.1727 29.4131 78.5527 29.1563 77.9062 29.1563ZM10.875 57.1875C9.91082 57.1875 8.96829 56.9016 8.1666 56.3659C7.36491 55.8302 6.74007 55.0689 6.37109 54.1781C6.00211 53.2873 5.90557 52.3071 6.09367 51.3614C6.28178 50.4158 6.74608 49.5471 7.42786 48.8654C8.10964 48.1836 8.97828 47.7193 9.92394 47.5312C10.8696 47.3431 11.8498 47.4396 12.7406 47.8086C13.6314 48.1776 14.3927 48.8024 14.9284 49.6041C15.4641 50.4058 15.75 51.3483 15.75 52.3125C15.75 53.6054 15.2364 54.8454 14.3221 55.7596C13.4079 56.6739 12.1679 57.1875 10.875 57.1875ZM10.875 49.875C10.3929 49.875 9.92164 50.018 9.5208 50.2858C9.11996 50.5536 8.80753 50.9343 8.62305 51.3797C8.43856 51.8251 8.39029 52.3152 8.48434 52.788C8.57839 53.2609 8.81054 53.6952 9.15143 54.0361C9.49232 54.377 9.92664 54.6091 10.3995 54.7032C10.8723 54.7972 11.3624 54.7489 11.8078 54.5645C12.2532 54.38 12.6339 54.0676 12.9017 53.6667C13.1695 53.2659 13.3125 52.7946 13.3125 52.3125C13.3125 51.666 13.0557 51.046 12.5986 50.5889C12.1415 50.1318 11.5215 49.875 10.875 49.875Z" fill="#00F6FF"/>
</g>
<g clip-path="url(#clip1_225659_863)">
<path d="M13.3125 12.0938H15.75V29.1562H13.3125V12.0938ZM20.625 12.0938H23.0625V29.1562H20.625V12.0938Z" fill="#DEE9F7"/>
<path d="M14.5312 19.4062H21.8438V21.8438H14.5312V19.4062Z" fill="#DEE9F7"/>
<path d="M14.5312 19.4062H21.8438V21.8438H14.5312V19.4062ZM25.5 12.0938H35.25V14.5312H25.5V12.0938Z" fill="#DEE9F7"/>
<path d="M29.1562 13.3125H31.5938V29.1562H29.1562V13.3125ZM47.4375 29.1562H45V20.0339L43.7045 23.4903C43.6177 23.7231 43.4618 23.9239 43.2577 24.0656C43.0535 24.2073 42.811 24.2833 42.5625 24.2833C42.314 24.2833 42.0715 24.2073 41.8673 24.0656C41.6632 23.9239 41.5073 23.7231 41.4205 23.4903L40.125 20.0339V29.1562H37.6875V13.3125C37.687 13.0266 37.7871 12.7496 37.9701 12.5301C38.1532 12.3105 38.4076 12.1622 38.6889 12.1112C38.9702 12.0603 39.2605 12.1098 39.509 12.2512C39.7575 12.3926 39.9483 12.6168 40.0482 12.8847L42.5625 19.5915L45.0768 12.8884C45.1765 12.6208 45.3671 12.3967 45.6152 12.2553C45.8633 12.1139 46.1532 12.0641 46.4343 12.1146C46.7153 12.1651 46.9698 12.3127 47.1531 12.5316C47.3365 12.7505 47.4371 13.0269 47.4375 13.3125V29.1562ZM58.4062 29.1562H53.5312C53.0473 29.1704 52.5655 29.0855 52.1155 28.9068C51.6655 28.728 51.2568 28.4592 50.9144 28.1169C50.572 27.7745 50.3032 27.3658 50.1245 26.9158C49.9457 26.4658 49.8608 25.984 49.875 25.5V12.0937H52.3125V25.5C52.2964 25.664 52.3169 25.8296 52.3724 25.9848C52.428 26.14 52.5172 26.2809 52.6338 26.3975C52.7503 26.514 52.8913 26.6033 53.0465 26.6588C53.2016 26.7144 53.3672 26.7348 53.5312 26.7187H58.4062V29.1562Z" fill="#DEE9F7"/>
<path d="M25.5 41.3438C25.1768 41.3438 24.8668 41.2153 24.6382 40.9868C24.4097 40.7582 24.2812 40.4482 24.2812 40.125V35.25H7.21875C6.89552 35.25 6.58552 35.1216 6.35696 34.893C6.1284 34.6645 6 34.3545 6 34.0312V7.21875C6 6.89552 6.1284 6.58552 6.35696 6.35696C6.58552 6.1284 6.89552 6 7.21875 6H63.2812C63.6045 6 63.9145 6.1284 64.143 6.35696C64.3716 6.58552 64.5 6.89552 64.5 7.21875V34.0312C64.5 34.3545 64.3716 34.6645 64.143 34.893C63.9145 35.1216 63.6045 35.25 63.2812 35.25H32.0983L26.3617 40.9867C26.1332 41.2152 25.8232 41.3437 25.5 41.3438ZM8.4375 32.8125H25.5C25.8232 32.8125 26.1332 32.9409 26.3618 33.1695C26.5903 33.398 26.7188 33.708 26.7188 34.0312V37.1829L30.7321 33.1696C30.9606 32.941 31.2705 32.8126 31.5938 32.8125H62.0625V8.4375H8.4375V32.8125ZM52.3125 84C51.9893 84 51.6793 83.8716 51.4507 83.643C51.2222 83.4145 51.0938 83.1045 51.0938 82.7812V77.9062H24.2812C23.958 77.9062 23.648 77.7778 23.4195 77.5493C23.1909 77.3207 23.0625 77.0107 23.0625 76.6875V47.4375C23.0625 47.1143 23.1909 46.8043 23.4195 46.5757C23.648 46.3472 23.958 46.2188 24.2812 46.2188H82.7812C83.1045 46.2188 83.4145 46.3472 83.643 46.5757C83.8716 46.8043 84 47.1143 84 47.4375V76.6875C84 77.0107 83.8716 77.3207 83.643 77.5493C83.4145 77.7778 83.1045 77.9062 82.7812 77.9062H58.9108L53.1742 83.6429C52.9457 83.8715 52.6357 83.9999 52.3125 84ZM25.5 75.4688H52.3125C52.6357 75.4688 52.9457 75.5972 53.1743 75.8257C53.4028 76.0543 53.5312 76.3643 53.5312 76.6875V79.8392L57.5446 75.8258C57.7731 75.5973 58.083 75.4688 58.4062 75.4688H81.5625V48.6562H25.5V75.4688Z" fill="#DEE9F7"/>
<path d="M68.1563 63.2813C66.951 63.2813 65.7729 62.9239 64.7707 62.2543C63.7686 61.5847 62.9876 60.633 62.5264 59.5195C62.0651 58.406 61.9445 57.1807 62.1796 55.9987C62.4147 54.8166 62.9951 53.7308 63.8473 52.8786C64.6995 52.0263 65.7853 51.446 66.9674 51.2108C68.1495 50.9757 69.3747 51.0964 70.4882 51.5576C71.6017 52.0188 72.5534 52.7999 73.223 53.802C73.8926 54.8041 74.25 55.9823 74.25 57.1875H71.8125C71.8125 56.4644 71.5981 55.7575 71.1963 55.1562C70.7946 54.5549 70.2235 54.0863 69.5554 53.8096C68.8873 53.5328 68.1522 53.4604 67.443 53.6015C66.7337 53.7426 66.0822 54.0908 65.5709 54.6021C65.0596 55.1135 64.7113 55.765 64.5703 56.4742C64.4292 57.1834 64.5016 57.9186 64.7783 58.5867C65.0551 59.2548 65.5237 59.8258 66.1249 60.2276C66.7262 60.6293 67.4331 60.8438 68.1563 60.8438V63.2813Z" fill="#DEE9F7"/>
<path d="M68.1563 73.0313C66.5407 73.0293 64.9918 72.3867 63.8495 71.2443C62.7071 70.1019 62.0644 68.5531 62.0625 66.9375H64.5C64.5 67.6606 64.7144 68.3675 65.1162 68.9688C65.5179 69.5701 66.089 70.0387 66.7571 70.3154C67.4252 70.5922 68.1603 70.6646 68.8696 70.5235C69.5788 70.3824 70.2303 70.0342 70.7416 69.5229C71.2529 69.0115 71.6012 68.36 71.7422 67.6508C71.8833 66.9416 71.8109 66.2064 71.5342 65.5383C71.2575 64.8702 70.7888 64.2992 70.1876 63.8974C69.5863 63.4957 68.8794 63.2813 68.1563 63.2813V60.8438C69.7724 60.8438 71.3224 61.4858 72.4652 62.6286C73.608 63.7714 74.25 65.3213 74.25 66.9375C74.25 68.5537 73.608 70.1036 72.4652 71.2464C71.3224 72.3892 69.7724 73.0313 68.1563 73.0313ZM53.5313 63.2813C52.326 63.2813 51.1479 62.9239 50.1457 62.2543C49.1436 61.5847 48.3626 60.633 47.9014 59.5195C47.4401 58.406 47.3195 57.1807 47.5546 55.9987C47.7897 54.8166 48.3701 53.7308 49.2223 52.8786C50.0745 52.0263 51.1603 51.446 52.3424 51.2108C53.5245 50.9757 54.7497 51.0964 55.8632 51.5576C56.9767 52.0188 57.9284 52.7999 58.598 53.802C59.2676 54.8041 59.625 55.9823 59.625 57.1875H57.1875C57.1875 56.4644 56.9731 55.7575 56.5713 55.1562C56.1696 54.5549 55.5985 54.0863 54.9304 53.8096C54.2623 53.5328 53.5272 53.4604 52.818 53.6015C52.1087 53.7426 51.4572 54.0908 50.9459 54.6021C50.4346 55.1135 50.0863 55.765 49.9453 56.4742C49.8042 57.1834 49.8766 57.9186 50.1533 58.5867C50.4301 59.2548 50.8987 59.8258 51.4999 60.2276C52.1012 60.6293 52.8081 60.8438 53.5313 60.8438V63.2813Z" fill="#DEE9F7"/>
<path d="M53.5312 73.0312C51.9156 73.0293 50.3668 72.3867 49.2244 71.2443C48.082 70.1019 47.4394 68.5531 47.4374 66.9375H49.8749C49.8749 67.6606 50.0894 68.3675 50.4911 68.9688C50.8929 69.5701 51.4639 70.0387 52.132 70.3154C52.8001 70.5922 53.5352 70.6646 54.2445 70.5235C54.9537 70.3824 55.6052 70.0342 56.1165 69.5229C56.6279 69.0115 56.9761 68.36 57.1172 67.6508C57.2583 66.9416 57.1859 66.2064 56.9091 65.5383C56.6324 64.8702 56.1638 64.2992 55.5625 63.8974C54.9612 63.4957 54.2543 63.2812 53.5312 63.2812V60.8437C55.1474 60.8437 56.6973 61.4858 57.8401 62.6286C58.9829 63.7714 59.6249 65.3213 59.6249 66.9375C59.6249 68.5537 58.9829 70.1036 57.8401 71.2464C56.6973 72.3892 55.1474 73.0312 53.5312 73.0312ZM38.9062 73.0312C37.2906 73.0293 35.7418 72.3867 34.5994 71.2443C33.457 70.1019 32.8144 68.5531 32.8124 66.9375V57.1875C32.8124 55.5713 33.4545 54.0214 34.5973 52.8786C35.7401 51.7358 37.29 51.0937 38.9062 51.0937C40.5223 51.0937 42.0723 51.7358 43.2151 52.8786C44.3579 54.0214 44.9999 55.5713 44.9999 57.1875H42.5624C42.5624 56.2178 42.1772 55.2878 41.4915 54.6021C40.8059 53.9165 39.8759 53.5312 38.9062 53.5312C37.9365 53.5312 37.0065 53.9165 36.3208 54.6021C35.6351 55.2878 35.2499 56.2178 35.2499 57.1875V66.9375C35.2499 67.9072 35.6351 68.8372 36.3208 69.5229C37.0065 70.2085 37.9365 70.5937 38.9062 70.5937C39.8759 70.5937 40.8059 70.2085 41.4915 69.5229C42.1772 68.8372 42.5624 67.9072 42.5624 66.9375H44.9999C44.998 68.5531 44.3554 70.1019 43.213 71.2443C42.0706 72.3867 40.5218 73.0293 38.9062 73.0312ZM73.0312 42.5625H32.8124V40.125H73.0312C73.5181 40.1508 74.0051 40.0739 74.4603 39.8993C74.9156 39.7247 75.3291 39.4563 75.6739 39.1115C76.0187 38.7667 76.2871 38.3532 76.4617 37.8979C76.6363 37.4426 76.7132 36.9557 76.6874 36.4687V35.25H79.1249V36.4687C79.1556 37.2772 79.0189 38.0833 78.7235 38.8365C78.4281 39.5896 77.9803 40.2737 77.4082 40.8458C76.8361 41.4179 76.1521 41.8656 75.3989 42.161C74.6457 42.4564 73.8396 42.5931 73.0312 42.5625ZM79.1249 27.9375H76.6874V25.5C76.7131 25.0125 76.6359 24.525 76.4608 24.0692C76.2857 23.6135 76.0166 23.1997 75.671 22.8549C75.3255 22.51 74.9112 22.2417 74.4551 22.0675C73.999 21.8933 73.5114 21.8171 73.0239 21.8437H66.9374V19.4062H73.0312C73.8396 19.3756 74.6457 19.5123 75.3989 19.8077C76.1521 20.1031 76.8361 20.5509 77.4082 21.123C77.9803 21.695 78.4281 22.3791 78.7235 23.1323C79.0189 23.8855 79.1556 24.6915 79.1249 25.5V27.9375ZM20.6249 64.5H16.9687C15.9985 64.5368 15.0312 64.3728 14.1274 64.0183C13.2235 63.6638 12.4027 63.1265 11.7162 62.44C11.0297 61.7535 10.4923 60.9326 10.1379 60.0288C9.78339 59.125 9.61941 58.1577 9.65618 57.1875V55.9688H12.0937V57.1875C12.0679 57.8346 12.1764 58.48 12.4123 59.0831C12.6482 59.6862 13.0064 60.234 13.4643 60.6919C13.9222 61.1498 14.47 61.508 15.0731 61.7439C15.6762 61.9798 16.3216 62.0882 16.9687 62.0625H20.6249V64.5ZM12.0937 48.6562H9.65618V47.4375C9.61941 46.4673 9.78339 45.5 10.1379 44.5962C10.4923 43.6924 11.0297 42.8715 11.7162 42.185C12.4027 41.4985 13.2235 40.9611 14.1274 40.6067C15.0312 40.2522 15.9985 40.0882 16.9687 40.125H20.6249V42.5625H16.9687C16.3216 42.5368 15.6762 42.6452 15.0731 42.8811C14.47 43.117 13.9222 43.4752 13.4643 43.9331C13.0064 44.391 12.6482 44.9388 12.4123 45.5419C12.1764 46.145 12.0679 46.7904 12.0937 47.4375V48.6562Z" fill="#DEE9F7"/>
<path d="M77.9062 36.4688C76.9421 36.4688 75.9995 36.1828 75.1978 35.6472C74.3962 35.1115 73.7713 34.3501 73.4023 33.4593C73.0334 32.5685 72.9368 31.5883 73.1249 30.6427C73.313 29.697 73.7773 28.8284 74.4591 28.1466C75.1409 27.4648 76.0095 27.0005 76.9552 26.8124C77.9008 26.6243 78.881 26.7209 79.7718 27.0898C80.6626 27.4588 81.424 28.0837 81.9597 28.8853C82.4953 29.687 82.7812 30.6296 82.7812 31.5938C82.7812 32.8867 82.2676 34.1267 81.3534 35.0409C80.4392 35.9551 79.1992 36.4688 77.9062 36.4688ZM77.9062 29.1563C77.4242 29.1563 76.9529 29.2992 76.552 29.567C76.1512 29.8349 75.8388 30.2156 75.6543 30.661C75.4698 31.1064 75.4215 31.5965 75.5156 32.0693C75.6096 32.5421 75.8418 32.9764 76.1827 33.3173C76.5236 33.6582 76.9579 33.8904 77.4307 33.9844C77.9035 34.0785 78.3936 34.0302 78.839 33.8457C79.2844 33.6612 79.6651 33.3488 79.933 32.948C80.2008 32.5471 80.3438 32.0758 80.3438 31.5938C80.3438 30.9473 80.0869 30.3273 79.6298 29.8702C79.1727 29.4131 78.5527 29.1563 77.9062 29.1563ZM10.875 57.1875C9.91082 57.1875 8.96829 56.9016 8.1666 56.3659C7.36491 55.8302 6.74007 55.0689 6.37109 54.1781C6.00211 53.2873 5.90557 52.3071 6.09367 51.3614C6.28178 50.4158 6.74608 49.5471 7.42786 48.8654C8.10964 48.1836 8.97828 47.7193 9.92394 47.5312C10.8696 47.3431 11.8498 47.4396 12.7406 47.8086C13.6314 48.1776 14.3927 48.8024 14.9284 49.6041C15.4641 50.4058 15.75 51.3483 15.75 52.3125C15.75 53.6054 15.2364 54.8454 14.3221 55.7596C13.4079 56.6739 12.1679 57.1875 10.875 57.1875ZM10.875 49.875C10.3929 49.875 9.92164 50.018 9.5208 50.2858C9.11996 50.5536 8.80753 50.9343 8.62305 51.3797C8.43856 51.8251 8.39029 52.3152 8.48434 52.788C8.57839 53.2609 8.81054 53.6952 9.15143 54.0361C9.49232 54.377 9.92664 54.6091 10.3995 54.7032C10.8723 54.7972 11.3624 54.7489 11.8078 54.5645C12.2532 54.38 12.6339 54.0676 12.9017 53.6667C13.1695 53.2659 13.3125 52.7946 13.3125 52.3125C13.3125 51.666 13.0557 51.046 12.5986 50.5889C12.1415 50.1318 11.5215 49.875 10.875 49.875Z" fill="#DEE9F7"/>
</g>
<defs>
<filter id="filter0_f_225659_863" x="0" y="0" width="90" height="90" filterUnits="userSpaceOnUse" color-interpolation-filters="sRGB">
<feFlood flood-opacity="0" result="BackgroundImageFix"/>
<feBlend mode="normal" in="SourceGraphic" in2="BackgroundImageFix" result="shape"/>
<feGaussianBlur stdDeviation="3" result="effect1_foregroundBlur_225659_863"/>
</filter>
<clipPath id="clip0_225659_863">
<rect width="78" height="78" fill="white" transform="translate(6 6)"/>
</clipPath>
<clipPath id="clip1_225659_863">
<rect width="78" height="78" fill="white" transform="translate(6 6)"/>
</clipPath>
</defs>
</svg>
