<svg width="82" height="82" viewBox="0 0 82 82" fill="none" xmlns="http://www.w3.org/2000/svg">
<g filter="url(#filter0_f_225744_126)">
<path d="M73.5894 9.11749C72.9892 8.41114 72.242 7.84446 71.3999 7.45711C70.5578 7.06975 69.6413 6.87108 68.7144 6.87499H13.2856C12.361 6.86167 11.4444 7.04932 10.5994 7.42497C9.75441 7.80062 9.00106 8.3553 8.39145 9.05067C7.78184 9.74604 7.33052 10.5655 7.06869 11.4524C6.80687 12.3393 6.74078 13.2725 6.875 14.1875L13.2125 56.2344C13.402 57.5244 13.8766 58.756 14.6018 59.8397C15.3271 60.9233 16.2847 61.8317 17.405 62.4987L36.3931 73.8575C37.7657 74.6704 39.3316 75.0993 40.9269 75.0993C42.5221 75.0993 44.088 74.6704 45.4606 73.8575L64.4488 62.4987C65.5692 61.829 66.528 60.9204 67.2569 59.8376C67.9858 58.7547 68.4668 57.5244 68.6656 56.2344L75.125 14.1875C75.2451 13.2818 75.1702 12.3609 74.9054 11.4865C74.6405 10.612 74.1918 9.80434 73.5894 9.11749ZM63.8394 55.43C63.748 56.002 63.5327 56.5471 63.2084 57.0271C62.8842 57.5071 62.459 57.9104 61.9625 58.2087L42.9744 69.5675C42.3561 69.9393 41.6483 70.1357 40.9269 70.1357C40.2054 70.1357 39.4976 69.9393 38.8794 69.5675L19.9644 58.3306C19.4763 58.04 19.0562 57.6481 18.7324 57.1814C18.4087 56.7147 18.1887 56.1839 18.0875 55.625L11.75 13.4806C11.714 13.2687 11.726 13.0514 11.785 12.8447C11.8441 12.638 11.9487 12.4472 12.0912 12.2862C12.2396 12.1157 12.4232 11.9793 12.6295 11.8868C12.8357 11.7942 13.0596 11.7475 13.2856 11.75H68.7144C68.9363 11.751 69.1555 11.7994 69.3573 11.8918C69.559 11.9843 69.7387 12.1188 69.8844 12.2862C70.0289 12.4509 70.1346 12.6458 70.1937 12.8568C70.2527 13.0677 70.2636 13.2893 70.2256 13.505L63.8394 55.43Z" fill="#00F6FF"/>
<path d="M36.125 16.625H21.5C20.8535 16.625 20.2335 16.8818 19.7764 17.3389C19.3193 17.796 19.0625 18.416 19.0625 19.0625C19.0625 19.709 19.3193 20.329 19.7764 20.7861C20.2335 21.2432 20.8535 21.5 21.5 21.5H33.6875V54.1137L28.3737 51.4569L26.375 45.095C26.1681 44.4809 25.7258 43.974 25.1452 43.6861C24.5647 43.3981 23.8935 43.3525 23.2794 43.5594C22.6652 43.7662 22.1584 44.2086 21.8704 44.7891C21.5825 45.3697 21.5369 46.0409 21.7438 46.655L24.1813 53.9675C24.3894 54.5726 24.8271 55.0717 25.4 55.3569L35.15 60.2319C35.4527 60.3884 35.7848 60.4798 36.125 60.5C36.5814 60.5015 37.029 60.3748 37.4169 60.1344C37.7681 59.9148 38.0577 59.6094 38.2581 59.2469C38.4586 58.8844 38.5633 58.4767 38.5625 58.0625V19.0625C38.5625 18.416 38.3057 17.796 37.8486 17.3389C37.3915 16.8818 36.7715 16.625 36.125 16.625ZM60.5 16.625H45.875C45.2285 16.625 44.6085 16.8818 44.1514 17.3389C43.6943 17.796 43.4375 18.416 43.4375 19.0625V36.125C43.4375 36.7715 43.6943 37.3915 44.1514 37.8486C44.6085 38.3057 45.2285 38.5625 45.875 38.5625H55.2594L53.3825 51.5787L44.7781 55.8931C44.204 56.1853 43.769 56.6929 43.568 57.305C43.367 57.917 43.4165 58.5837 43.7056 59.1594C43.9082 59.5614 44.2181 59.8994 44.601 60.136C44.9839 60.3727 45.4249 60.4986 45.875 60.5C46.2574 60.5046 46.6347 60.4123 46.9719 60.2319L56.7219 55.3569C57.0722 55.1805 57.3747 54.9222 57.6039 54.604C57.833 54.2857 57.982 53.9169 58.0381 53.5287L60.4756 36.4662C60.5277 36.12 60.5046 35.7666 60.4078 35.4301C60.3111 35.0937 60.143 34.7819 59.915 34.5162C59.6839 34.2531 59.3988 34.0429 59.0791 33.8999C58.7594 33.7569 58.4127 33.6845 58.0625 33.6875H48.3125V21.5H56.5512L55.8931 22.8406C55.6565 23.4088 55.6436 24.0454 55.857 24.6227C56.0704 25.2 56.4942 25.6752 57.0435 25.9529C57.5927 26.2306 58.2267 26.2903 58.8181 26.1199C59.4095 25.9495 59.9146 25.5617 60.2319 25.0344L62.6694 20.1594C62.8563 19.7883 62.9454 19.3756 62.928 18.9605C62.9106 18.5453 62.7874 18.1415 62.57 17.7874C62.3527 17.4333 62.0484 17.1406 61.6861 16.9372C61.3238 16.7337 60.9155 16.6263 60.5 16.625Z" fill="#00F6FF"/>
</g>
<path d="M73.5894 9.11749C72.9892 8.41114 72.242 7.84446 71.3999 7.45711C70.5578 7.06975 69.6413 6.87108 68.7144 6.87499H13.2856C12.361 6.86167 11.4444 7.04932 10.5994 7.42497C9.75441 7.80062 9.00106 8.3553 8.39145 9.05067C7.78184 9.74604 7.33052 10.5655 7.06869 11.4524C6.80687 12.3393 6.74078 13.2725 6.875 14.1875L13.2125 56.2344C13.402 57.5244 13.8766 58.756 14.6018 59.8397C15.3271 60.9233 16.2847 61.8317 17.405 62.4987L36.3931 73.8575C37.7657 74.6704 39.3316 75.0993 40.9269 75.0993C42.5221 75.0993 44.088 74.6704 45.4606 73.8575L64.4488 62.4987C65.5692 61.829 66.528 60.9204 67.2569 59.8376C67.9858 58.7547 68.4668 57.5244 68.6656 56.2344L75.125 14.1875C75.2451 13.2818 75.1702 12.3609 74.9054 11.4865C74.6405 10.612 74.1918 9.80434 73.5894 9.11749ZM63.8394 55.43C63.748 56.002 63.5327 56.5471 63.2084 57.0271C62.8842 57.5071 62.459 57.9104 61.9625 58.2087L42.9744 69.5675C42.3561 69.9393 41.6483 70.1357 40.9269 70.1357C40.2054 70.1357 39.4976 69.9393 38.8794 69.5675L19.9644 58.3306C19.4763 58.04 19.0562 57.6481 18.7324 57.1814C18.4087 56.7147 18.1887 56.1839 18.0875 55.625L11.75 13.4806C11.714 13.2687 11.726 13.0514 11.785 12.8447C11.8441 12.638 11.9487 12.4472 12.0912 12.2862C12.2396 12.1157 12.4232 11.9793 12.6295 11.8868C12.8357 11.7942 13.0596 11.7475 13.2856 11.75H68.7144C68.9363 11.751 69.1555 11.7994 69.3573 11.8918C69.559 11.9843 69.7387 12.1188 69.8844 12.2862C70.0289 12.4509 70.1346 12.6458 70.1937 12.8568C70.2527 13.0677 70.2636 13.2893 70.2256 13.505L63.8394 55.43Z" fill="#DEE9F7"/>
<path d="M36.125 16.625H21.5C20.8535 16.625 20.2335 16.8818 19.7764 17.3389C19.3193 17.796 19.0625 18.416 19.0625 19.0625C19.0625 19.709 19.3193 20.329 19.7764 20.7861C20.2335 21.2432 20.8535 21.5 21.5 21.5H33.6875V54.1137L28.3737 51.4569L26.375 45.095C26.1681 44.4809 25.7258 43.974 25.1452 43.6861C24.5647 43.3981 23.8935 43.3525 23.2794 43.5594C22.6652 43.7662 22.1584 44.2086 21.8704 44.7891C21.5825 45.3697 21.5369 46.0409 21.7438 46.655L24.1813 53.9675C24.3894 54.5726 24.8271 55.0717 25.4 55.3569L35.15 60.2319C35.4527 60.3884 35.7848 60.4798 36.125 60.5C36.5814 60.5015 37.029 60.3748 37.4169 60.1344C37.7681 59.9148 38.0577 59.6094 38.2581 59.2469C38.4586 58.8844 38.5633 58.4767 38.5625 58.0625V19.0625C38.5625 18.416 38.3057 17.796 37.8486 17.3389C37.3915 16.8818 36.7715 16.625 36.125 16.625ZM60.5 16.625H45.875C45.2285 16.625 44.6085 16.8818 44.1514 17.3389C43.6943 17.796 43.4375 18.416 43.4375 19.0625V36.125C43.4375 36.7715 43.6943 37.3915 44.1514 37.8486C44.6085 38.3057 45.2285 38.5625 45.875 38.5625H55.2594L53.3825 51.5787L44.7781 55.8931C44.204 56.1853 43.769 56.6929 43.568 57.305C43.367 57.917 43.4165 58.5837 43.7056 59.1594C43.9082 59.5614 44.2181 59.8994 44.601 60.136C44.9839 60.3727 45.4249 60.4986 45.875 60.5C46.2574 60.5046 46.6347 60.4123 46.9719 60.2319L56.7219 55.3569C57.0722 55.1805 57.3747 54.9222 57.6039 54.604C57.833 54.2857 57.982 53.9169 58.0381 53.5287L60.4756 36.4662C60.5277 36.12 60.5046 35.7666 60.4078 35.4301C60.3111 35.0937 60.143 34.7819 59.915 34.5162C59.6839 34.2531 59.3988 34.0429 59.0791 33.8999C58.7594 33.7569 58.4127 33.6845 58.0625 33.6875H48.3125V21.5H56.5512L55.8931 22.8406C55.6565 23.4088 55.6436 24.0454 55.857 24.6227C56.0704 25.2 56.4942 25.6752 57.0435 25.9529C57.5927 26.2306 58.2267 26.2903 58.8181 26.1199C59.4095 25.9495 59.9146 25.5617 60.2319 25.0344L62.6694 20.1594C62.8563 19.7883 62.9454 19.3756 62.928 18.9605C62.9106 18.5453 62.7874 18.1415 62.57 17.7874C62.3527 17.4333 62.0484 17.1406 61.6861 16.9372C61.3238 16.7337 60.9155 16.6263 60.5 16.625Z" fill="#DEE9F7"/>
<defs>
<filter id="filter0_f_225744_126" x="-4" y="-4" width="90" height="90" filterUnits="userSpaceOnUse" color-interpolation-filters="sRGB">
<feFlood flood-opacity="0" result="BackgroundImageFix"/>
<feBlend mode="normal" in="SourceGraphic" in2="BackgroundImageFix" result="shape"/>
<feGaussianBlur stdDeviation="3" result="effect1_foregroundBlur_225744_126"/>
</filter>
</defs>
</svg>
