<svg width="68" height="68" viewBox="0 0 68 68" fill="none" xmlns="http://www.w3.org/2000/svg">
<g clip-path="url(#clip0_225910_507)">
<g filter="url(#filter0_f_225910_507)">
<path d="M37.1875 8.5H30.8125C30.5307 8.5 30.2605 8.38806 30.0612 8.1888C29.8619 7.98954 29.75 7.71929 29.75 7.4375C29.75 7.15571 29.8619 6.88546 30.0612 6.6862C30.2605 6.48694 30.5307 6.375 30.8125 6.375H37.1875C37.4693 6.375 37.7395 6.48694 37.9388 6.6862C38.1381 6.88546 38.25 7.15571 38.25 7.4375C38.25 7.71929 38.1381 7.98954 37.9388 8.1888C37.7395 8.38806 37.4693 8.5 37.1875 8.5ZM45.6875 65.875H22.3125C20.9041 65.8733 19.5538 65.3131 18.5579 64.3171C17.5619 63.3212 17.0017 61.9709 17 60.5625V24.4375C17 24.1557 17.1119 23.8855 17.3112 23.6862C17.5105 23.4869 17.7807 23.375 18.0625 23.375C18.3443 23.375 18.6145 23.4869 18.8138 23.6862C19.0131 23.8855 19.125 24.1557 19.125 24.4375V60.5625C19.125 62.3199 20.5551 63.75 22.3125 63.75H45.6875C47.4449 63.75 48.875 62.3199 48.875 60.5625V24.4375C48.875 24.1557 48.9869 23.8855 49.1862 23.6862C49.3855 23.4869 49.6557 23.375 49.9375 23.375C50.2193 23.375 50.4895 23.4869 50.6888 23.6862C50.8881 23.8855 51 24.1557 51 24.4375V60.5625C51 63.4908 48.6179 65.875 45.6875 65.875Z" fill="#00F6FF"/>
<path d="M49.9375 31.875C49.6557 31.875 49.3855 31.7631 49.1862 31.5638C48.9869 31.3645 48.875 31.0943 48.875 30.8125V7.4375C48.875 5.68012 47.4449 4.25 45.6875 4.25H22.3125C20.5551 4.25 19.125 5.68012 19.125 7.4375V30.8125C19.125 31.0943 19.0131 31.3645 18.8138 31.5638C18.6145 31.7631 18.3443 31.875 18.0625 31.875C17.7807 31.875 17.5105 31.7631 17.3112 31.5638C17.1119 31.3645 17 31.0943 17 30.8125V7.4375C17 4.50925 19.3821 2.125 22.3125 2.125H45.6875C48.6179 2.125 51 4.50925 51 7.4375V30.8125C51 31.0943 50.8881 31.3645 50.6888 31.5638C50.4895 31.7631 50.2193 31.875 49.9375 31.875ZM56.3125 12.8563C55.726 12.8563 55.25 12.4865 55.25 11.9V11.6875C55.25 11.4057 55.3619 11.1355 55.5612 10.9362C55.7605 10.7369 56.0307 10.625 56.3125 10.625C56.5943 10.625 56.8645 10.7369 57.0638 10.9362C57.2631 11.1355 57.375 11.4057 57.375 11.6875C57.375 12.274 56.899 12.8563 56.3125 12.8563ZM56.3125 17.1063C55.726 17.1063 55.25 16.7365 55.25 16.15V15.9375C55.25 15.6557 55.3619 15.3855 55.5612 15.1862C55.7605 14.9869 56.0307 14.875 56.3125 14.875C56.5943 14.875 56.8645 14.9869 57.0638 15.1862C57.2631 15.3855 57.375 15.6557 57.375 15.9375C57.375 16.524 56.899 17.1063 56.3125 17.1063ZM56.3125 21.3563C55.726 21.3563 55.25 20.9865 55.25 20.4V20.1875C55.25 19.9057 55.3619 19.6355 55.5612 19.4362C55.7605 19.2369 56.0307 19.125 56.3125 19.125C56.5943 19.125 56.8645 19.2369 57.0638 19.4362C57.2631 19.6355 57.375 19.9057 57.375 20.1875C57.375 20.774 56.899 21.3563 56.3125 21.3563ZM11.6875 48.7688C11.101 48.7688 10.625 48.399 10.625 47.8125V47.6C10.625 47.3182 10.7369 47.048 10.9362 46.8487C11.1355 46.6494 11.4057 46.5375 11.6875 46.5375C11.9693 46.5375 12.2395 46.6494 12.4388 46.8487C12.6381 47.048 12.75 47.3182 12.75 47.6C12.75 48.1865 12.274 48.7688 11.6875 48.7688ZM11.6875 53.0188C11.101 53.0188 10.625 52.649 10.625 52.0625V51.85C10.625 51.5682 10.7369 51.298 10.9362 51.0987C11.1355 50.8994 11.4057 50.7875 11.6875 50.7875C11.9693 50.7875 12.2395 50.8994 12.4388 51.0987C12.6381 51.298 12.75 51.5682 12.75 51.85C12.75 52.4365 12.274 53.0188 11.6875 53.0188ZM11.6875 57.2688C11.101 57.2688 10.625 56.899 10.625 56.3125V56.1C10.625 55.8182 10.7369 55.548 10.9362 55.3487C11.1355 55.1494 11.4057 55.0375 11.6875 55.0375C11.9693 55.0375 12.2395 55.1494 12.4388 55.3487C12.6381 55.548 12.75 55.8182 12.75 56.1C12.75 56.6865 12.274 57.2688 11.6875 57.2688Z" fill="#00F6FF"/>
<path d="M52.7871 57.375C52.6286 57.375 52.4721 57.3396 52.3291 57.2714C52.1861 57.2031 52.0601 57.1037 51.9605 56.9804C51.8608 56.8571 51.7901 56.7131 51.7533 56.559C51.7165 56.4048 51.7147 56.2443 51.748 56.0894L52.4492 52.8381C52.4911 52.6429 52.5873 52.4634 52.7268 52.3205C52.8663 52.1776 53.0434 52.0771 53.2376 52.0306C54.263 51.7792 55.243 51.3699 56.1425 50.8172C56.3121 50.7137 56.5074 50.6598 56.7061 50.6617C56.9048 50.6636 57.099 50.7212 57.2666 50.8279L59.3704 52.173L60.673 50.8598L59.3279 48.773C59.2199 48.6052 59.1613 48.4105 59.1586 48.2109C59.156 48.0114 59.2095 47.8152 59.313 47.6446C59.8658 46.7455 60.2745 45.7653 60.5243 44.7398C60.571 44.5461 60.671 44.3695 60.813 44.2298C60.9549 44.0901 61.1332 43.9929 61.3275 43.9492L63.75 43.4116V41.5905L61.3296 41.0529C61.1353 41.0092 60.9571 40.9121 60.8151 40.7724C60.6731 40.6327 60.5731 40.456 60.5264 40.2624C60.2757 39.2371 59.8671 38.2571 59.3151 37.3575C59.2108 37.1877 59.1566 36.9918 59.1588 36.7925C59.1611 36.5932 59.2197 36.3986 59.3279 36.2312L60.6751 34.1254L59.3746 32.8249L57.2688 34.1721C57.1013 34.2793 56.907 34.3372 56.7082 34.339C56.5094 34.3409 56.3141 34.2868 56.1446 34.1828C55.2447 33.6309 54.2648 33.2216 53.2398 32.9694C53.0455 32.9229 52.8684 32.8224 52.7289 32.6795C52.5894 32.5366 52.4932 32.3571 52.4514 32.1619L51.9286 29.75H51C50.7182 29.75 50.448 29.6381 50.2487 29.4388C50.0494 29.2395 49.9375 28.9693 49.9375 28.6875C49.9375 28.4057 50.0494 28.1355 50.2487 27.9362C50.448 27.7369 50.7182 27.625 51 27.625H52.785C53.0277 27.6254 53.263 27.7089 53.4517 27.8616C53.6403 28.0144 53.771 28.2271 53.822 28.4644L54.3894 31.0845C55.1671 31.3204 55.93 31.6391 56.6653 32.0365L58.9475 30.5766C59.1516 30.4462 59.3941 30.3894 59.6349 30.4157C59.8757 30.442 60.1002 30.5498 60.2714 30.7211L62.781 33.2286C62.952 33.4 63.0594 33.6247 63.0853 33.8655C63.1112 34.1063 63.0541 34.3486 62.9234 34.5525L61.4635 36.8347C61.8609 37.5721 62.1796 38.335 62.4155 39.1149L65.0399 39.6971C65.5286 39.8055 65.875 40.239 65.875 40.7363V44.2637C65.8749 44.5056 65.7923 44.7402 65.6408 44.9287C65.4894 45.1173 65.2781 45.2485 65.042 45.3008L62.4176 45.883C62.1778 46.6724 61.8588 47.4356 61.4656 48.161L62.9234 50.422C63.0554 50.6251 63.1137 50.8674 63.0885 51.1084C63.0634 51.3493 62.9563 51.5743 62.7852 51.7459L60.2756 54.2746C60.1044 54.4465 59.8796 54.5547 59.6384 54.5814C59.3973 54.6081 59.1543 54.5516 58.9496 54.4213L56.6674 52.9614C55.9424 53.3538 55.18 53.6728 54.3915 53.9134L53.8241 56.5335C53.7732 56.771 53.6426 56.984 53.454 57.1371C53.2653 57.2901 53.03 57.3741 52.7871 57.375Z" fill="#00F6FF"/>
<path d="M53.9559 47.9782C53.7283 47.9778 53.5069 47.9044 53.3243 47.7687C53.1416 47.6331 53.0073 47.4423 52.9411 47.2246C52.875 47.0069 52.8805 46.7737 52.9568 46.5593C53.0331 46.345 53.1763 46.1608 53.3651 46.0339C54.1807 45.4843 54.7806 44.6691 55.0629 43.727C55.3452 42.7849 55.2923 41.7741 54.9133 40.8666C54.5343 39.9591 53.8526 39.2109 52.9842 38.7493C52.1158 38.2878 51.1142 38.1414 50.15 38.335C50.0133 38.363 49.8723 38.3639 49.7353 38.3375C49.5982 38.311 49.4677 38.2579 49.3512 38.181C49.2347 38.1042 49.1344 38.0051 49.0562 37.8895C48.9779 37.7739 48.9232 37.6441 48.8952 37.5073C48.8672 37.3706 48.8663 37.2297 48.8927 37.0926C48.9191 36.9555 48.9723 36.825 49.0492 36.7085C49.126 36.592 49.2251 36.4917 49.3407 36.4135C49.4563 36.3353 49.5861 36.2805 49.7229 36.2525C50.6492 36.0647 51.6057 36.0849 52.5232 36.3117C53.4407 36.5384 54.2965 36.9661 55.0286 37.5639C55.7608 38.1616 56.351 38.9145 56.7568 39.7681C57.1626 40.6218 57.3737 41.5548 57.375 42.5C57.3752 43.5475 57.1173 44.5788 56.6239 45.5029C56.1306 46.4269 55.4171 47.215 54.5466 47.7976C54.372 47.9151 54.1664 47.978 53.9559 47.9782ZM17 31.875C15.6303 31.8768 14.2965 31.4373 13.1961 30.6216C12.0958 29.8058 11.2876 28.6573 10.8913 27.3462C10.4949 26.0351 10.5316 24.6312 10.9957 23.3425C11.4599 22.0538 12.3269 20.949 13.4683 20.1918C13.7027 20.0454 13.985 19.9961 14.2552 20.0544C14.5253 20.1128 14.7621 20.2741 14.9153 20.5041C15.0685 20.7342 15.126 21.0149 15.0757 21.2867C15.0253 21.5584 14.871 21.7999 14.6455 21.9598C13.83 22.5072 13.229 23.32 12.9446 24.2602C12.6602 25.2004 12.7099 26.2101 13.0853 27.1178C13.4607 28.0255 14.1387 28.7753 15.0041 29.24C15.8695 29.7047 16.869 29.8556 17.833 29.6671C18.1094 29.6126 18.396 29.6696 18.6305 29.8257C18.865 29.9817 19.0282 30.2242 19.0846 30.5001C19.1122 30.6369 19.1125 30.7777 19.0855 30.9146C19.0585 31.0515 19.0048 31.1817 18.9274 31.2977C18.8501 31.4138 18.7505 31.5135 18.6346 31.591C18.5186 31.6686 18.3885 31.7225 18.2516 31.7496C17.8397 31.8335 17.4204 31.8755 17 31.875Z" fill="#00F6FF"/>
<path d="M17 40.3749H15.215C14.9723 40.3745 14.737 40.291 14.5483 40.1383C14.3597 39.9856 14.229 39.7729 14.178 39.5356L13.6106 36.9154C12.822 36.6752 12.0595 36.3563 11.3348 35.9634L9.0525 37.4233C8.84841 37.5537 8.60588 37.6105 8.36511 37.5842C8.12434 37.5579 7.89978 37.4502 7.72863 37.2788L5.219 34.7713C5.04796 34.5999 4.94061 34.3752 4.91471 34.1344C4.88882 33.8937 4.94594 33.6513 5.07662 33.4474L6.5365 31.1652C6.14364 30.4389 5.82471 29.6751 5.5845 28.8851L2.96013 28.3028C2.72342 28.2506 2.51164 28.1191 2.35978 27.9301C2.20793 27.7412 2.12511 27.5061 2.125 27.2637V23.7362C2.1251 23.4943 2.2077 23.2598 2.35915 23.0712C2.51061 22.8827 2.72186 22.7514 2.958 22.6992L5.58238 22.1169C5.81825 21.3371 6.137 20.5742 6.53438 19.8389L5.07875 17.5758C4.94676 17.3727 4.88847 17.1304 4.91361 16.8894C4.93875 16.6485 5.0458 16.4235 5.21687 16.2519L7.7265 13.7232C7.89712 13.5503 8.12203 13.4413 8.36349 13.4146C8.60494 13.3879 8.84822 13.4451 9.0525 13.5766L11.3348 15.0364C12.0597 14.644 12.8221 14.3251 13.6106 14.0844L14.178 11.4643C14.2037 11.3244 14.2573 11.191 14.3356 11.0722C14.4138 10.9534 14.5151 10.8514 14.6335 10.7725C14.7519 10.6936 14.8849 10.6392 15.0247 10.6127C15.1645 10.5861 15.3082 10.5879 15.4473 10.6179C15.5863 10.648 15.718 10.7056 15.8343 10.7875C15.9507 10.8694 16.0495 10.9738 16.1247 11.0946C16.2 11.2153 16.2502 11.35 16.2724 11.4905C16.2947 11.631 16.2884 11.7746 16.2541 11.9127L15.5529 15.1639C15.511 15.3592 15.4148 15.5387 15.2753 15.6816C15.1358 15.8244 14.9587 15.9249 14.7645 15.9714C13.7386 16.2232 12.758 16.6325 11.8575 17.1848C11.6879 17.2883 11.4926 17.3422 11.2939 17.3404C11.0952 17.3385 10.901 17.2809 10.7334 17.1742L8.62962 15.8291L7.32488 17.1423L8.67 19.2291C8.77893 19.3965 8.83815 19.5914 8.84078 19.7911C8.84341 19.9908 8.78935 20.1872 8.68487 20.3574C8.13203 21.2566 7.72334 22.2368 7.47362 23.2623C7.42688 23.4559 7.32687 23.6326 7.18491 23.7723C7.04295 23.912 6.86471 24.0092 6.67037 24.0528L4.25 24.5883V26.4094L6.67037 26.9471C6.86471 26.9907 7.04295 27.0879 7.18491 27.2276C7.32687 27.3673 7.42688 27.544 7.47362 27.7376C7.71375 28.7406 8.12387 29.7181 8.68487 30.6424C8.89737 30.9888 8.89312 31.4266 8.67212 31.7687L7.32488 33.8724L8.62538 35.1729L10.7313 33.8257C10.8991 33.7194 11.0932 33.6622 11.2918 33.6603C11.4904 33.6584 11.6856 33.712 11.8554 33.8151C12.7819 34.3782 13.7594 34.7862 14.7603 35.0284C14.9545 35.0749 15.1316 35.1754 15.2711 35.3183C15.4106 35.4612 15.5068 35.6407 15.5486 35.8359L16.0714 38.2499H17C17.2818 38.2499 17.552 38.3619 17.7513 38.5611C17.9506 38.7604 18.0625 39.0306 18.0625 39.3124C18.0625 39.5942 17.9506 39.8645 17.7513 40.0637C17.552 40.263 17.2818 40.3749 17 40.3749ZM32.9375 39.3124C32.776 39.3128 32.6165 39.2763 32.4712 39.2056C32.326 39.135 32.1988 39.0321 32.0994 38.9048C31.9999 38.7774 31.9309 38.6291 31.8976 38.4711C31.8642 38.313 31.8674 38.1494 31.9069 37.9928L34.0319 29.4928C34.0647 29.3569 34.1241 29.2289 34.2069 29.1162C34.2896 29.0035 34.3939 28.9084 34.5138 28.8364C34.6336 28.7644 34.7666 28.717 34.9049 28.6969C35.0433 28.6768 35.1843 28.6844 35.3196 28.7193C35.4551 28.7529 35.5826 28.8128 35.6949 28.8958C35.8071 28.9787 35.9019 29.083 35.9737 29.2026C36.0456 29.3222 36.0931 29.4549 36.1136 29.5929C36.1341 29.731 36.1271 29.8717 36.0931 30.0071L33.9681 38.5071C33.9114 38.7374 33.779 38.942 33.5921 39.088C33.4052 39.2341 33.1747 39.3131 32.9375 39.3124ZM39.3125 39.3124C39.1025 39.3124 38.8973 39.2501 38.7226 39.1335C38.548 39.0169 38.4119 38.8512 38.3314 38.6572C38.2509 38.4633 38.2297 38.2498 38.2704 38.0438C38.3111 37.8378 38.412 37.6485 38.5602 37.4998L42.0601 33.9999L38.5624 30.5022C38.3688 30.3018 38.2617 30.0334 38.2642 29.7548C38.2666 29.4762 38.3783 29.2098 38.5753 29.0128C38.7723 28.8158 39.0388 28.704 39.3174 28.7016C39.596 28.6992 39.8644 28.8063 40.0648 28.9998L44.3148 33.2498C44.5139 33.4491 44.6258 33.7193 44.6258 34.001C44.6258 34.2827 44.5139 34.5529 44.3148 34.7522L40.0648 39.0022C39.8648 39.2009 39.5944 39.3125 39.3125 39.3124ZM28.6875 39.3124C28.4056 39.3125 28.1352 39.2009 27.9352 39.0022L23.6852 34.7522C23.4861 34.5529 23.3742 34.2827 23.3742 34.001C23.3742 33.7193 23.4861 33.4491 23.6852 33.2498L27.9352 28.9998C28.1356 28.8063 28.404 28.6992 28.6826 28.7016C28.9612 28.704 29.2277 28.8158 29.4247 29.0128C29.6217 29.2098 29.7334 29.4762 29.7358 29.7548C29.7383 30.0334 29.6312 30.3018 29.4376 30.5022L25.9399 33.9999L29.4376 37.4977C29.5865 37.6462 29.6879 37.8355 29.7292 38.0416C29.7704 38.2478 29.7495 38.4615 29.6692 38.6558C29.5889 38.8501 29.4527 39.0162 29.278 39.1331C29.1032 39.25 28.8977 39.3124 28.6875 39.3124Z" fill="#00F6FF"/>
</g>
<path d="M37.1875 8.5H30.8125C30.5307 8.5 30.2605 8.38806 30.0612 8.1888C29.8619 7.98954 29.75 7.71929 29.75 7.4375C29.75 7.15571 29.8619 6.88546 30.0612 6.6862C30.2605 6.48694 30.5307 6.375 30.8125 6.375H37.1875C37.4693 6.375 37.7395 6.48694 37.9388 6.6862C38.1381 6.88546 38.25 7.15571 38.25 7.4375C38.25 7.71929 38.1381 7.98954 37.9388 8.1888C37.7395 8.38806 37.4693 8.5 37.1875 8.5ZM45.6875 65.875H22.3125C20.9041 65.8733 19.5538 65.3131 18.5579 64.3171C17.5619 63.3212 17.0017 61.9709 17 60.5625V24.4375C17 24.1557 17.1119 23.8855 17.3112 23.6862C17.5105 23.4869 17.7807 23.375 18.0625 23.375C18.3443 23.375 18.6145 23.4869 18.8138 23.6862C19.0131 23.8855 19.125 24.1557 19.125 24.4375V60.5625C19.125 62.3199 20.5551 63.75 22.3125 63.75H45.6875C47.4449 63.75 48.875 62.3199 48.875 60.5625V24.4375C48.875 24.1557 48.9869 23.8855 49.1862 23.6862C49.3855 23.4869 49.6557 23.375 49.9375 23.375C50.2193 23.375 50.4895 23.4869 50.6888 23.6862C50.8881 23.8855 51 24.1557 51 24.4375V60.5625C51 63.4908 48.6179 65.875 45.6875 65.875Z" fill="#DEE9F7"/>
<path d="M49.9375 31.875C49.6557 31.875 49.3855 31.7631 49.1862 31.5638C48.9869 31.3645 48.875 31.0943 48.875 30.8125V7.4375C48.875 5.68012 47.4449 4.25 45.6875 4.25H22.3125C20.5551 4.25 19.125 5.68012 19.125 7.4375V30.8125C19.125 31.0943 19.0131 31.3645 18.8138 31.5638C18.6145 31.7631 18.3443 31.875 18.0625 31.875C17.7807 31.875 17.5105 31.7631 17.3112 31.5638C17.1119 31.3645 17 31.0943 17 30.8125V7.4375C17 4.50925 19.3821 2.125 22.3125 2.125H45.6875C48.6179 2.125 51 4.50925 51 7.4375V30.8125C51 31.0943 50.8881 31.3645 50.6888 31.5638C50.4895 31.7631 50.2193 31.875 49.9375 31.875ZM56.3125 12.8563C55.726 12.8563 55.25 12.4865 55.25 11.9V11.6875C55.25 11.4057 55.3619 11.1355 55.5612 10.9362C55.7605 10.7369 56.0307 10.625 56.3125 10.625C56.5943 10.625 56.8645 10.7369 57.0638 10.9362C57.2631 11.1355 57.375 11.4057 57.375 11.6875C57.375 12.274 56.899 12.8563 56.3125 12.8563ZM56.3125 17.1063C55.726 17.1063 55.25 16.7365 55.25 16.15V15.9375C55.25 15.6557 55.3619 15.3855 55.5612 15.1862C55.7605 14.9869 56.0307 14.875 56.3125 14.875C56.5943 14.875 56.8645 14.9869 57.0638 15.1862C57.2631 15.3855 57.375 15.6557 57.375 15.9375C57.375 16.524 56.899 17.1063 56.3125 17.1063ZM56.3125 21.3563C55.726 21.3563 55.25 20.9865 55.25 20.4V20.1875C55.25 19.9057 55.3619 19.6355 55.5612 19.4362C55.7605 19.2369 56.0307 19.125 56.3125 19.125C56.5943 19.125 56.8645 19.2369 57.0638 19.4362C57.2631 19.6355 57.375 19.9057 57.375 20.1875C57.375 20.774 56.899 21.3563 56.3125 21.3563ZM11.6875 48.7688C11.101 48.7688 10.625 48.399 10.625 47.8125V47.6C10.625 47.3182 10.7369 47.048 10.9362 46.8487C11.1355 46.6494 11.4057 46.5375 11.6875 46.5375C11.9693 46.5375 12.2395 46.6494 12.4388 46.8487C12.6381 47.048 12.75 47.3182 12.75 47.6C12.75 48.1865 12.274 48.7688 11.6875 48.7688ZM11.6875 53.0188C11.101 53.0188 10.625 52.649 10.625 52.0625V51.85C10.625 51.5682 10.7369 51.298 10.9362 51.0987C11.1355 50.8994 11.4057 50.7875 11.6875 50.7875C11.9693 50.7875 12.2395 50.8994 12.4388 51.0987C12.6381 51.298 12.75 51.5682 12.75 51.85C12.75 52.4365 12.274 53.0188 11.6875 53.0188ZM11.6875 57.2688C11.101 57.2688 10.625 56.899 10.625 56.3125V56.1C10.625 55.8182 10.7369 55.548 10.9362 55.3487C11.1355 55.1494 11.4057 55.0375 11.6875 55.0375C11.9693 55.0375 12.2395 55.1494 12.4388 55.3487C12.6381 55.548 12.75 55.8182 12.75 56.1C12.75 56.6865 12.274 57.2688 11.6875 57.2688Z" fill="#DEE9F7"/>
<path d="M52.7871 57.375C52.6286 57.375 52.4721 57.3396 52.3291 57.2714C52.1861 57.2031 52.0601 57.1037 51.9605 56.9804C51.8608 56.8571 51.7901 56.7131 51.7533 56.559C51.7165 56.4048 51.7147 56.2443 51.748 56.0894L52.4492 52.8381C52.4911 52.6429 52.5873 52.4634 52.7268 52.3205C52.8663 52.1776 53.0434 52.0771 53.2376 52.0306C54.263 51.7792 55.243 51.3699 56.1425 50.8172C56.3121 50.7137 56.5074 50.6598 56.7061 50.6617C56.9048 50.6636 57.099 50.7212 57.2666 50.8279L59.3704 52.173L60.673 50.8598L59.3279 48.773C59.2199 48.6052 59.1613 48.4105 59.1586 48.2109C59.156 48.0114 59.2095 47.8152 59.313 47.6446C59.8658 46.7455 60.2745 45.7653 60.5243 44.7398C60.571 44.5461 60.671 44.3695 60.813 44.2298C60.9549 44.0901 61.1332 43.9929 61.3275 43.9492L63.75 43.4116V41.5905L61.3296 41.0529C61.1353 41.0092 60.9571 40.9121 60.8151 40.7724C60.6731 40.6327 60.5731 40.456 60.5264 40.2624C60.2757 39.2371 59.8671 38.2571 59.3151 37.3575C59.2108 37.1877 59.1566 36.9918 59.1588 36.7925C59.1611 36.5932 59.2197 36.3986 59.3279 36.2312L60.6751 34.1254L59.3746 32.8249L57.2688 34.1721C57.1013 34.2793 56.907 34.3372 56.7082 34.339C56.5094 34.3409 56.3141 34.2868 56.1446 34.1828C55.2447 33.6309 54.2648 33.2216 53.2398 32.9694C53.0455 32.9229 52.8684 32.8224 52.7289 32.6795C52.5894 32.5366 52.4932 32.3571 52.4514 32.1619L51.9286 29.75H51C50.7182 29.75 50.448 29.6381 50.2487 29.4388C50.0494 29.2395 49.9375 28.9693 49.9375 28.6875C49.9375 28.4057 50.0494 28.1355 50.2487 27.9362C50.448 27.7369 50.7182 27.625 51 27.625H52.785C53.0277 27.6254 53.263 27.7089 53.4517 27.8616C53.6403 28.0144 53.771 28.2271 53.822 28.4644L54.3894 31.0845C55.1671 31.3204 55.93 31.6391 56.6653 32.0365L58.9475 30.5766C59.1516 30.4462 59.3941 30.3894 59.6349 30.4157C59.8757 30.442 60.1002 30.5498 60.2714 30.7211L62.781 33.2286C62.952 33.4 63.0594 33.6247 63.0853 33.8655C63.1112 34.1063 63.0541 34.3486 62.9234 34.5525L61.4635 36.8347C61.8609 37.5721 62.1796 38.335 62.4155 39.1149L65.0399 39.6971C65.5286 39.8055 65.875 40.239 65.875 40.7363V44.2637C65.8749 44.5056 65.7923 44.7402 65.6408 44.9287C65.4894 45.1173 65.2781 45.2485 65.042 45.3008L62.4176 45.883C62.1778 46.6724 61.8588 47.4356 61.4656 48.161L62.9234 50.422C63.0554 50.6251 63.1137 50.8674 63.0885 51.1084C63.0634 51.3493 62.9563 51.5743 62.7852 51.7459L60.2756 54.2746C60.1044 54.4465 59.8796 54.5547 59.6384 54.5814C59.3973 54.6081 59.1543 54.5516 58.9496 54.4213L56.6674 52.9614C55.9424 53.3538 55.18 53.6728 54.3915 53.9134L53.8241 56.5335C53.7732 56.771 53.6426 56.984 53.454 57.1371C53.2653 57.2901 53.03 57.3741 52.7871 57.375Z" fill="#DEE9F7"/>
<path d="M53.9559 47.9782C53.7283 47.9778 53.5069 47.9044 53.3243 47.7687C53.1416 47.6331 53.0073 47.4423 52.9411 47.2246C52.875 47.0069 52.8805 46.7737 52.9568 46.5593C53.0331 46.345 53.1763 46.1608 53.3651 46.0339C54.1807 45.4843 54.7806 44.6691 55.0629 43.727C55.3452 42.7849 55.2923 41.7741 54.9133 40.8666C54.5343 39.9591 53.8526 39.2109 52.9842 38.7493C52.1158 38.2878 51.1142 38.1414 50.15 38.335C50.0133 38.363 49.8723 38.3639 49.7353 38.3375C49.5982 38.311 49.4677 38.2579 49.3512 38.181C49.2347 38.1042 49.1344 38.0051 49.0562 37.8895C48.9779 37.7739 48.9232 37.6441 48.8952 37.5073C48.8672 37.3706 48.8663 37.2297 48.8927 37.0926C48.9191 36.9555 48.9723 36.825 49.0492 36.7085C49.126 36.592 49.2251 36.4917 49.3407 36.4135C49.4563 36.3353 49.5861 36.2805 49.7229 36.2525C50.6492 36.0647 51.6057 36.0849 52.5232 36.3117C53.4407 36.5384 54.2965 36.9661 55.0286 37.5639C55.7608 38.1616 56.351 38.9145 56.7568 39.7681C57.1626 40.6218 57.3737 41.5548 57.375 42.5C57.3752 43.5475 57.1173 44.5788 56.6239 45.5029C56.1306 46.4269 55.4171 47.215 54.5466 47.7976C54.372 47.9151 54.1664 47.978 53.9559 47.9782ZM17 31.875C15.6303 31.8768 14.2965 31.4373 13.1961 30.6216C12.0958 29.8058 11.2876 28.6573 10.8913 27.3462C10.4949 26.0351 10.5316 24.6312 10.9957 23.3425C11.4599 22.0538 12.3269 20.949 13.4683 20.1918C13.7027 20.0454 13.985 19.9961 14.2552 20.0544C14.5253 20.1128 14.7621 20.2741 14.9153 20.5041C15.0685 20.7342 15.126 21.0149 15.0757 21.2867C15.0253 21.5584 14.871 21.7999 14.6455 21.9598C13.83 22.5072 13.229 23.32 12.9446 24.2602C12.6602 25.2004 12.7099 26.2101 13.0853 27.1178C13.4607 28.0255 14.1387 28.7753 15.0041 29.24C15.8695 29.7047 16.869 29.8556 17.833 29.6671C18.1094 29.6126 18.396 29.6696 18.6305 29.8257C18.865 29.9817 19.0282 30.2242 19.0846 30.5001C19.1122 30.6369 19.1125 30.7777 19.0855 30.9146C19.0585 31.0515 19.0048 31.1817 18.9274 31.2977C18.8501 31.4138 18.7505 31.5135 18.6346 31.591C18.5186 31.6686 18.3885 31.7225 18.2516 31.7496C17.8397 31.8335 17.4204 31.8755 17 31.875Z" fill="#DEE9F7"/>
<path d="M17 40.3749H15.215C14.9723 40.3745 14.737 40.291 14.5483 40.1383C14.3597 39.9856 14.229 39.7729 14.178 39.5356L13.6106 36.9154C12.822 36.6752 12.0595 36.3563 11.3348 35.9634L9.0525 37.4233C8.84841 37.5537 8.60588 37.6105 8.36511 37.5842C8.12434 37.5579 7.89978 37.4502 7.72863 37.2788L5.219 34.7713C5.04796 34.5999 4.94061 34.3752 4.91471 34.1344C4.88882 33.8937 4.94594 33.6513 5.07662 33.4474L6.5365 31.1652C6.14364 30.4389 5.82471 29.6751 5.5845 28.8851L2.96013 28.3028C2.72342 28.2506 2.51164 28.1191 2.35978 27.9301C2.20793 27.7412 2.12511 27.5061 2.125 27.2637V23.7362C2.1251 23.4943 2.2077 23.2598 2.35915 23.0712C2.51061 22.8827 2.72186 22.7514 2.958 22.6992L5.58238 22.1169C5.81825 21.3371 6.137 20.5742 6.53438 19.8389L5.07875 17.5758C4.94676 17.3727 4.88847 17.1304 4.91361 16.8894C4.93875 16.6485 5.0458 16.4235 5.21687 16.2519L7.7265 13.7232C7.89712 13.5503 8.12203 13.4413 8.36349 13.4146C8.60494 13.3879 8.84822 13.4451 9.0525 13.5766L11.3348 15.0364C12.0597 14.644 12.8221 14.3251 13.6106 14.0844L14.178 11.4643C14.2037 11.3244 14.2573 11.191 14.3356 11.0722C14.4138 10.9534 14.5151 10.8514 14.6335 10.7725C14.7519 10.6936 14.8849 10.6392 15.0247 10.6127C15.1645 10.5861 15.3082 10.5879 15.4473 10.6179C15.5863 10.648 15.718 10.7056 15.8343 10.7875C15.9507 10.8694 16.0495 10.9738 16.1247 11.0946C16.2 11.2153 16.2502 11.35 16.2724 11.4905C16.2947 11.631 16.2884 11.7746 16.2541 11.9127L15.5529 15.1639C15.511 15.3592 15.4148 15.5387 15.2753 15.6816C15.1358 15.8244 14.9587 15.9249 14.7645 15.9714C13.7386 16.2232 12.758 16.6325 11.8575 17.1848C11.6879 17.2883 11.4926 17.3422 11.2939 17.3404C11.0952 17.3385 10.901 17.2809 10.7334 17.1742L8.62962 15.8291L7.32488 17.1423L8.67 19.2291C8.77893 19.3965 8.83815 19.5914 8.84078 19.7911C8.84341 19.9908 8.78935 20.1872 8.68487 20.3574C8.13203 21.2566 7.72334 22.2368 7.47362 23.2623C7.42688 23.4559 7.32687 23.6326 7.18491 23.7723C7.04295 23.912 6.86471 24.0092 6.67037 24.0528L4.25 24.5883V26.4094L6.67037 26.9471C6.86471 26.9907 7.04295 27.0879 7.18491 27.2276C7.32687 27.3673 7.42688 27.544 7.47362 27.7376C7.71375 28.7406 8.12387 29.7181 8.68487 30.6424C8.89737 30.9888 8.89312 31.4266 8.67212 31.7687L7.32488 33.8724L8.62538 35.1729L10.7313 33.8257C10.8991 33.7194 11.0932 33.6622 11.2918 33.6603C11.4904 33.6584 11.6856 33.712 11.8554 33.8151C12.7819 34.3782 13.7594 34.7862 14.7603 35.0284C14.9545 35.0749 15.1316 35.1754 15.2711 35.3183C15.4106 35.4612 15.5068 35.6407 15.5486 35.8359L16.0714 38.2499H17C17.2818 38.2499 17.552 38.3619 17.7513 38.5611C17.9506 38.7604 18.0625 39.0306 18.0625 39.3124C18.0625 39.5942 17.9506 39.8645 17.7513 40.0637C17.552 40.263 17.2818 40.3749 17 40.3749ZM32.9375 39.3124C32.776 39.3128 32.6165 39.2763 32.4712 39.2056C32.326 39.135 32.1988 39.0321 32.0994 38.9048C31.9999 38.7774 31.9309 38.6291 31.8976 38.4711C31.8642 38.313 31.8674 38.1494 31.9069 37.9928L34.0319 29.4928C34.0647 29.3569 34.1241 29.2289 34.2069 29.1162C34.2896 29.0035 34.3939 28.9084 34.5138 28.8364C34.6336 28.7644 34.7666 28.717 34.9049 28.6969C35.0433 28.6768 35.1843 28.6844 35.3196 28.7193C35.4551 28.7529 35.5826 28.8128 35.6949 28.8958C35.8071 28.9787 35.9019 29.083 35.9737 29.2026C36.0456 29.3222 36.0931 29.4549 36.1136 29.5929C36.1341 29.731 36.1271 29.8717 36.0931 30.0071L33.9681 38.5071C33.9114 38.7374 33.779 38.942 33.5921 39.088C33.4052 39.2341 33.1747 39.3131 32.9375 39.3124ZM39.3125 39.3124C39.1025 39.3124 38.8973 39.2501 38.7226 39.1335C38.548 39.0169 38.4119 38.8512 38.3314 38.6572C38.2509 38.4633 38.2297 38.2498 38.2704 38.0438C38.3111 37.8378 38.412 37.6485 38.5602 37.4998L42.0601 33.9999L38.5624 30.5022C38.3688 30.3018 38.2617 30.0334 38.2642 29.7548C38.2666 29.4762 38.3783 29.2098 38.5753 29.0128C38.7723 28.8158 39.0388 28.704 39.3174 28.7016C39.596 28.6992 39.8644 28.8063 40.0648 28.9998L44.3148 33.2498C44.5139 33.4491 44.6258 33.7193 44.6258 34.001C44.6258 34.2827 44.5139 34.5529 44.3148 34.7522L40.0648 39.0022C39.8648 39.2009 39.5944 39.3125 39.3125 39.3124ZM28.6875 39.3124C28.4056 39.3125 28.1352 39.2009 27.9352 39.0022L23.6852 34.7522C23.4861 34.5529 23.3742 34.2827 23.3742 34.001C23.3742 33.7193 23.4861 33.4491 23.6852 33.2498L27.9352 28.9998C28.1356 28.8063 28.404 28.6992 28.6826 28.7016C28.9612 28.704 29.2277 28.8158 29.4247 29.0128C29.6217 29.2098 29.7334 29.4762 29.7358 29.7548C29.7383 30.0334 29.6312 30.3018 29.4376 30.5022L25.9399 33.9999L29.4376 37.4977C29.5865 37.6462 29.6879 37.8355 29.7292 38.0416C29.7704 38.2478 29.7495 38.4615 29.6692 38.6558C29.5889 38.8501 29.4527 39.0162 29.278 39.1331C29.1032 39.25 28.8977 39.3124 28.6875 39.3124Z" fill="#DEE9F7"/>
</g>
<defs>
<filter id="filter0_f_225910_507" x="-6" y="-6" width="80" height="80" filterUnits="userSpaceOnUse" color-interpolation-filters="sRGB">
<feFlood flood-opacity="0" result="BackgroundImageFix"/>
<feBlend mode="normal" in="SourceGraphic" in2="BackgroundImageFix" result="shape"/>
<feGaussianBlur stdDeviation="3" result="effect1_foregroundBlur_225910_507"/>
</filter>
<clipPath id="clip0_225910_507">
<rect width="68" height="68" fill="white"/>
</clipPath>
</defs>
</svg>
