<svg width="84" height="84" viewBox="0 0 84 84" fill="none" xmlns="http://www.w3.org/2000/svg">
<g clip-path="url(#clip0_225744_187)" filter="url(#filter0_f_225744_187)">
<path d="M51.9998 45.6443C51.7 45.6443 51.4125 45.7634 51.2005 45.9754C50.9885 46.1874 50.8694 46.475 50.8694 46.7748V52.6643C50.8694 52.9642 50.9885 53.2517 51.2005 53.4637C51.4125 53.6757 51.7 53.7948 51.9998 53.7948C52.2996 53.7948 52.5872 53.6757 52.7992 53.4637C53.0112 53.2517 53.1303 52.9642 53.1303 52.6643V46.7748C53.1303 46.475 53.0112 46.1874 52.7992 45.9754C52.5872 45.7634 52.2996 45.6443 51.9998 45.6443Z" fill="#00F6FF"/>
<path d="M51.9999 57.0504C51.7001 57.0504 51.4126 57.1695 51.2006 57.3815C50.9886 57.5935 50.8695 57.8811 50.8695 58.1809V68.1739C50.8695 69.0733 50.5122 69.9359 49.8762 70.5719C49.2402 71.2079 48.3776 71.5652 47.4782 71.5652H15.826C14.9266 71.5652 14.064 71.2079 13.428 70.5719C12.792 69.9359 12.4347 69.0733 12.4347 68.1739V11.6522C12.4347 10.7527 12.792 9.89015 13.428 9.25416C14.064 8.61817 14.9266 8.26087 15.826 8.26087H46.7547C47.0545 8.26087 47.342 8.14177 47.554 7.92977C47.766 7.71778 47.8851 7.43024 47.8851 7.13043C47.8851 6.83062 47.766 6.54309 47.554 6.3311C47.342 6.1191 47.0545 6 46.7547 6H15.826C14.327 6 12.8893 6.5955 11.8293 7.65548C10.7693 8.71547 10.1738 10.1531 10.1738 11.6522V68.1739C10.1738 69.673 10.7693 71.1106 11.8293 72.1706C12.8893 73.2306 14.327 73.8261 15.826 73.8261H47.4782C48.9772 73.8261 50.4149 73.2306 51.4749 72.1706C52.5349 71.1106 53.1304 69.673 53.1304 68.1739V58.1809C53.1304 57.8811 53.0113 57.5935 52.7993 57.3815C52.5873 57.1695 52.2997 57.0504 51.9999 57.0504Z" fill="#00F6FF"/>
<path d="M24.8695 17.3043H40.6956C41.595 17.3043 42.4576 16.947 43.0936 16.3111C43.7296 15.6751 44.0869 14.8125 44.0869 13.913V12.7826H45.3756C45.6754 12.8186 45.9772 12.734 46.2146 12.5474C46.4521 12.3609 46.6057 12.0876 46.6416 11.7878C46.6776 11.488 46.593 11.1862 46.4065 10.9488C46.2199 10.7113 45.9467 10.5577 45.6469 10.5217C45.5039 10.5101 45.3602 10.5101 45.2173 10.5217H42.9564C42.6566 10.5217 42.3691 10.6408 42.1571 10.8528C41.9451 11.0648 41.826 11.3524 41.826 11.6522V13.913C41.826 14.2128 41.7069 14.5004 41.4949 14.7124C41.2829 14.9244 40.9954 15.0435 40.6956 15.0435H24.8695C24.5697 15.0435 24.2821 14.9244 24.0701 14.7124C23.8581 14.5004 23.739 14.2128 23.739 13.913V11.6522C23.739 11.3524 23.6199 11.0648 23.4079 10.8528C23.1959 10.6408 22.9084 10.5217 22.6086 10.5217H18.0869C17.1874 10.5217 16.3248 10.879 15.6888 11.515C15.0529 12.151 14.6956 13.0136 14.6956 13.913V65.913C14.6956 66.8125 15.0529 67.6751 15.6888 68.3111C16.3248 68.947 17.1874 69.3043 18.0869 69.3043H45.2173C46.1167 69.3043 46.9793 68.947 47.6153 68.3111C48.2513 67.6751 48.6086 66.8125 48.6086 65.913V61.1991C48.6086 60.8993 48.4895 60.6118 48.2775 60.3998C48.0655 60.1878 47.778 60.0687 47.4782 60.0687C47.1784 60.0687 46.8908 60.1878 46.6788 60.3998C46.4668 60.6118 46.3477 60.8993 46.3477 61.1991V65.913C46.3477 66.2129 46.2286 66.5004 46.0166 66.7124C45.8046 66.9244 45.5171 67.0435 45.2173 67.0435H18.0869C17.7871 67.0435 17.4995 66.9244 17.2875 66.7124C17.0755 66.5004 16.9564 66.2129 16.9564 65.913V13.913C16.9564 13.6132 17.0755 13.3257 17.2875 13.1137C17.4995 12.9017 17.7871 12.7826 18.0869 12.7826H21.4782V13.913C21.4782 14.8125 21.8355 15.6751 22.4715 16.3111C23.1074 16.947 23.97 17.3043 24.8695 17.3043Z" fill="#00F6FF"/>
<path d="M65.7008 31.0956C66.4727 30.6503 67.1494 30.0573 67.6922 29.3504C68.2349 28.6435 68.6331 27.8367 68.8641 26.9759C69.095 26.1152 69.1541 25.2174 69.0381 24.3337C68.9221 23.4501 68.6331 22.598 68.1878 21.8261C67.7424 21.0541 67.1494 20.3775 66.4425 19.8347C65.7356 19.292 64.9288 18.8938 64.068 18.6628C63.2073 18.4319 62.3095 18.3727 61.4258 18.4888C60.5422 18.6048 59.6901 18.8938 58.9182 19.3391L52.1356 7.59391C52.0233 7.39991 51.8559 7.24367 51.6546 7.14504C51.4533 7.04641 51.2273 7.00985 51.0051 7.04C50.7781 7.07689 50.5678 7.18214 50.4022 7.3417C50.2365 7.50127 50.1235 7.70756 50.0782 7.93304C48.9526 13.5896 46.5131 18.9023 42.9565 23.4426C40.7924 26.1729 38.1911 28.5259 35.2582 30.4061L25.5138 36.0583C25.3843 36.1321 25.2707 36.2309 25.1795 36.3488C25.0882 36.4668 25.0213 36.6016 24.9824 36.7456C24.9435 36.8895 24.9335 37.0397 24.9529 37.1876C24.9724 37.3354 25.0208 37.4779 25.0956 37.607L24.1121 38.1722C22.6159 39.0486 21.4489 40.3922 20.7907 41.9964C20.1325 43.6007 20.0195 45.3767 20.469 47.0514C20.9185 48.7261 21.9057 50.2069 23.2787 51.2659C24.6517 52.3249 26.3346 52.9036 28.0686 52.913C29.4509 52.9137 30.8086 52.547 32.0025 51.8504L32.986 51.2852C33.0601 51.415 33.1592 51.5287 33.2776 51.6199C33.396 51.7111 33.5312 51.7779 33.6756 51.8165C33.7732 51.8282 33.8719 51.8282 33.9695 51.8165C34.1675 51.8179 34.3624 51.7672 34.5347 51.6696L34.693 51.5791L41.4756 59.6391C41.5817 59.7632 41.7135 59.8628 41.8618 59.9311C42.0101 59.9994 42.1714 60.0348 42.3347 60.0348C42.5327 60.0361 42.7276 59.9855 42.8999 59.8878L48.993 56.3722C49.1346 56.2893 49.2565 56.1766 49.3502 56.0419C49.4439 55.9073 49.5072 55.7538 49.5356 55.5922C49.5707 55.429 49.5664 55.2598 49.5232 55.0987C49.4799 54.9375 49.3989 54.7889 49.2869 54.6652L42.7756 46.9104L44.2904 46.0287C47.3889 44.4394 50.7261 43.3664 54.1704 42.8522C59.8979 42.0256 65.7398 42.5679 71.2173 44.4348C71.4167 44.4906 71.6275 44.4906 71.8268 44.4348C72.0262 44.3789 72.2064 44.2695 72.3478 44.1183C72.4902 43.9395 72.5751 43.7217 72.5913 43.4936C72.6074 43.2655 72.5541 43.038 72.4382 42.8409L65.7008 31.0956ZM63.4399 20.8539C64.0216 21.0016 64.568 21.2635 65.0474 21.6245C65.5268 21.9855 65.9295 22.4383 66.2321 22.9565C66.8297 23.9955 66.9903 25.2292 66.6788 26.3866C66.3672 27.5439 65.6088 28.5302 64.5704 29.1287L62.3095 25.2174L60.0486 21.3061C60.5635 21.0084 61.1321 20.8152 61.7218 20.7376C62.3115 20.66 62.9107 20.6996 63.4851 20.8539H63.4399ZM30.8721 49.8948C29.5746 50.6325 28.038 50.827 26.5976 50.436C25.1571 50.0449 23.9299 49.1 23.1836 47.8074C22.4373 46.5148 22.2326 44.9795 22.6141 43.5365C22.9956 42.0936 23.9323 40.8601 25.2199 40.1052L26.2034 39.54L31.8556 49.3296L30.8721 49.8948ZM34.3764 49.1826L27.5938 37.4261L35.4278 32.9043L42.2104 44.6609L40.4921 45.6443L36.5356 47.9052L34.3764 49.1826ZM46.6982 55.1174L42.5947 57.4913L36.6825 50.46L40.7747 48.0974L46.6982 55.1174ZM53.8312 40.6478C50.4938 41.1488 47.2485 42.1392 44.1999 43.587L40.8086 37.6522L37.4173 31.7174C40.1987 29.8053 42.6791 27.4888 44.7765 24.8443C47.9697 20.7955 50.3114 16.1429 51.6608 11.1661L57.5956 21.453L63.2478 31.2426L69.1938 41.5296C64.1855 40.1987 58.959 39.8987 53.8312 40.6478ZM71.1269 21.2609C71.3249 21.2622 71.5198 21.2116 71.6921 21.1139L75.6034 18.853C75.8642 18.7031 76.0548 18.4558 76.1333 18.1653C76.2117 17.8749 76.1716 17.5652 76.0217 17.3043C75.8718 17.0435 75.6244 16.8529 75.3339 16.7745C75.0435 16.696 74.7338 16.7362 74.473 16.8861L70.5617 19.147C70.3439 19.2704 70.1732 19.4625 70.0765 19.6934C69.9797 19.9242 69.9623 20.1806 70.0269 20.4225C70.0916 20.6643 70.2346 20.8778 70.4337 21.0295C70.6328 21.1812 70.8766 21.2626 71.1269 21.2609ZM64.6495 16.4791C64.7468 16.4948 64.8461 16.4948 64.9434 16.4791C65.1986 16.4879 65.4493 16.4099 65.6545 16.258C65.8598 16.1061 66.0076 15.8892 66.0738 15.6426L67.2043 11.2678C67.2805 10.9801 67.2402 10.6738 67.0921 10.4156C66.9439 10.1574 66.6999 9.96807 66.413 9.88869C66.2697 9.84924 66.1201 9.83842 65.9726 9.85685C65.8252 9.87527 65.6828 9.92259 65.5537 9.99608C65.4246 10.0696 65.3112 10.1678 65.22 10.2852C65.1289 10.4025 65.0618 10.5367 65.0225 10.68L63.8921 15.0548C63.8469 15.198 63.8307 15.3488 63.8444 15.4984C63.8581 15.6479 63.9015 15.7932 63.972 15.9258C64.0425 16.0584 64.1387 16.1757 64.2551 16.2707C64.3714 16.3657 64.5055 16.4365 64.6495 16.4791ZM76.8017 27.9304L72.4382 26.8C72.2931 26.7555 72.1406 26.7407 71.9897 26.7564C71.8388 26.7722 71.6926 26.8181 71.5599 26.8915C71.4271 26.9649 71.3105 27.0643 71.2169 27.1837C71.1234 27.3032 71.0548 27.4402 71.0154 27.5867C70.9759 27.7332 70.9663 27.8861 70.9872 28.0364C71.0081 28.1867 71.059 28.3312 71.1369 28.4614C71.2148 28.5915 71.3181 28.7047 71.4407 28.7941C71.5633 28.8835 71.7026 28.9473 71.8504 28.9817L76.2138 30.1122H76.5078C76.8076 30.1511 77.1106 30.0694 77.3501 29.885C77.5897 29.7005 77.7462 29.4285 77.7851 29.1287C77.8241 28.8289 77.7424 28.5259 77.558 28.2863C77.3735 28.0468 77.1015 27.8903 76.8017 27.8513V27.9304Z" fill="#00F6FF"/>
</g>
<g clip-path="url(#clip1_225744_187)">
<path d="M51.9998 45.6443C51.7 45.6443 51.4125 45.7634 51.2005 45.9754C50.9885 46.1874 50.8694 46.475 50.8694 46.7748V52.6643C50.8694 52.9642 50.9885 53.2517 51.2005 53.4637C51.4125 53.6757 51.7 53.7948 51.9998 53.7948C52.2996 53.7948 52.5872 53.6757 52.7992 53.4637C53.0112 53.2517 53.1303 52.9642 53.1303 52.6643V46.7748C53.1303 46.475 53.0112 46.1874 52.7992 45.9754C52.5872 45.7634 52.2996 45.6443 51.9998 45.6443Z" fill="#DEE9F7"/>
<path d="M51.9999 57.0504C51.7001 57.0504 51.4126 57.1695 51.2006 57.3815C50.9886 57.5935 50.8695 57.8811 50.8695 58.1809V68.1739C50.8695 69.0733 50.5122 69.9359 49.8762 70.5719C49.2402 71.2079 48.3776 71.5652 47.4782 71.5652H15.826C14.9266 71.5652 14.064 71.2079 13.428 70.5719C12.792 69.9359 12.4347 69.0733 12.4347 68.1739V11.6522C12.4347 10.7527 12.792 9.89015 13.428 9.25416C14.064 8.61817 14.9266 8.26087 15.826 8.26087H46.7547C47.0545 8.26087 47.342 8.14177 47.554 7.92977C47.766 7.71778 47.8851 7.43024 47.8851 7.13043C47.8851 6.83062 47.766 6.54309 47.554 6.3311C47.342 6.1191 47.0545 6 46.7547 6H15.826C14.327 6 12.8893 6.5955 11.8293 7.65548C10.7693 8.71547 10.1738 10.1531 10.1738 11.6522V68.1739C10.1738 69.673 10.7693 71.1106 11.8293 72.1706C12.8893 73.2306 14.327 73.8261 15.826 73.8261H47.4782C48.9772 73.8261 50.4149 73.2306 51.4749 72.1706C52.5349 71.1106 53.1304 69.673 53.1304 68.1739V58.1809C53.1304 57.8811 53.0113 57.5935 52.7993 57.3815C52.5873 57.1695 52.2997 57.0504 51.9999 57.0504Z" fill="#DEE9F7"/>
<path d="M24.8695 17.3043H40.6956C41.595 17.3043 42.4576 16.947 43.0936 16.3111C43.7296 15.6751 44.0869 14.8125 44.0869 13.913V12.7826H45.3756C45.6754 12.8186 45.9772 12.734 46.2146 12.5474C46.4521 12.3609 46.6057 12.0876 46.6416 11.7878C46.6776 11.488 46.593 11.1862 46.4065 10.9488C46.2199 10.7113 45.9467 10.5577 45.6469 10.5217C45.5039 10.5101 45.3602 10.5101 45.2173 10.5217H42.9564C42.6566 10.5217 42.3691 10.6408 42.1571 10.8528C41.9451 11.0648 41.826 11.3524 41.826 11.6522V13.913C41.826 14.2128 41.7069 14.5004 41.4949 14.7124C41.2829 14.9244 40.9954 15.0435 40.6956 15.0435H24.8695C24.5697 15.0435 24.2821 14.9244 24.0701 14.7124C23.8581 14.5004 23.739 14.2128 23.739 13.913V11.6522C23.739 11.3524 23.6199 11.0648 23.4079 10.8528C23.1959 10.6408 22.9084 10.5217 22.6086 10.5217H18.0869C17.1874 10.5217 16.3248 10.879 15.6888 11.515C15.0529 12.151 14.6956 13.0136 14.6956 13.913V65.913C14.6956 66.8125 15.0529 67.6751 15.6888 68.3111C16.3248 68.947 17.1874 69.3043 18.0869 69.3043H45.2173C46.1167 69.3043 46.9793 68.947 47.6153 68.3111C48.2513 67.6751 48.6086 66.8125 48.6086 65.913V61.1991C48.6086 60.8993 48.4895 60.6118 48.2775 60.3998C48.0655 60.1878 47.778 60.0687 47.4782 60.0687C47.1784 60.0687 46.8908 60.1878 46.6788 60.3998C46.4668 60.6118 46.3477 60.8993 46.3477 61.1991V65.913C46.3477 66.2129 46.2286 66.5004 46.0166 66.7124C45.8046 66.9244 45.5171 67.0435 45.2173 67.0435H18.0869C17.7871 67.0435 17.4995 66.9244 17.2875 66.7124C17.0755 66.5004 16.9564 66.2129 16.9564 65.913V13.913C16.9564 13.6132 17.0755 13.3257 17.2875 13.1137C17.4995 12.9017 17.7871 12.7826 18.0869 12.7826H21.4782V13.913C21.4782 14.8125 21.8355 15.6751 22.4715 16.3111C23.1074 16.947 23.97 17.3043 24.8695 17.3043Z" fill="#DEE9F7"/>
<path d="M65.7008 31.0956C66.4727 30.6503 67.1494 30.0573 67.6922 29.3504C68.2349 28.6435 68.6331 27.8367 68.8641 26.9759C69.095 26.1152 69.1541 25.2174 69.0381 24.3337C68.9221 23.4501 68.6331 22.598 68.1878 21.8261C67.7424 21.0541 67.1494 20.3775 66.4425 19.8347C65.7356 19.292 64.9288 18.8938 64.068 18.6628C63.2073 18.4319 62.3095 18.3727 61.4258 18.4888C60.5422 18.6048 59.6901 18.8938 58.9182 19.3391L52.1356 7.59391C52.0233 7.39991 51.8559 7.24367 51.6546 7.14504C51.4533 7.04641 51.2273 7.00985 51.0051 7.04C50.7781 7.07689 50.5678 7.18214 50.4022 7.3417C50.2365 7.50127 50.1235 7.70756 50.0782 7.93304C48.9526 13.5896 46.5131 18.9023 42.9565 23.4426C40.7924 26.1729 38.1911 28.5259 35.2582 30.4061L25.5138 36.0583C25.3843 36.1321 25.2707 36.2309 25.1795 36.3488C25.0882 36.4668 25.0213 36.6016 24.9824 36.7456C24.9435 36.8895 24.9335 37.0397 24.9529 37.1876C24.9724 37.3354 25.0208 37.4779 25.0956 37.607L24.1121 38.1722C22.6159 39.0486 21.4489 40.3922 20.7907 41.9964C20.1325 43.6007 20.0195 45.3767 20.469 47.0514C20.9185 48.7261 21.9057 50.2069 23.2787 51.2659C24.6517 52.3249 26.3346 52.9036 28.0686 52.913C29.4509 52.9137 30.8086 52.547 32.0025 51.8504L32.986 51.2852C33.0601 51.415 33.1592 51.5287 33.2776 51.6199C33.396 51.7111 33.5312 51.7779 33.6756 51.8165C33.7732 51.8282 33.8719 51.8282 33.9695 51.8165C34.1675 51.8179 34.3624 51.7672 34.5347 51.6696L34.693 51.5791L41.4756 59.6391C41.5817 59.7632 41.7135 59.8628 41.8618 59.9311C42.0101 59.9994 42.1714 60.0348 42.3347 60.0348C42.5327 60.0361 42.7276 59.9855 42.8999 59.8878L48.993 56.3722C49.1346 56.2893 49.2565 56.1766 49.3502 56.0419C49.4439 55.9073 49.5072 55.7538 49.5356 55.5922C49.5707 55.429 49.5664 55.2598 49.5232 55.0987C49.4799 54.9375 49.3989 54.7889 49.2869 54.6652L42.7756 46.9104L44.2904 46.0287C47.3889 44.4394 50.7261 43.3664 54.1704 42.8522C59.8979 42.0256 65.7398 42.5679 71.2173 44.4348C71.4167 44.4906 71.6275 44.4906 71.8268 44.4348C72.0262 44.3789 72.2064 44.2695 72.3478 44.1183C72.4902 43.9395 72.5751 43.7217 72.5913 43.4936C72.6074 43.2655 72.5541 43.038 72.4382 42.8409L65.7008 31.0956ZM63.4399 20.8539C64.0216 21.0016 64.568 21.2635 65.0474 21.6245C65.5268 21.9855 65.9295 22.4383 66.2321 22.9565C66.8297 23.9955 66.9903 25.2292 66.6788 26.3866C66.3672 27.5439 65.6088 28.5302 64.5704 29.1287L62.3095 25.2174L60.0486 21.3061C60.5635 21.0084 61.1321 20.8152 61.7218 20.7376C62.3115 20.66 62.9107 20.6996 63.4851 20.8539H63.4399ZM30.8721 49.8948C29.5746 50.6325 28.038 50.827 26.5976 50.436C25.1571 50.0449 23.9299 49.1 23.1836 47.8074C22.4373 46.5148 22.2326 44.9795 22.6141 43.5365C22.9956 42.0936 23.9323 40.8601 25.2199 40.1052L26.2034 39.54L31.8556 49.3296L30.8721 49.8948ZM34.3764 49.1826L27.5938 37.4261L35.4278 32.9043L42.2104 44.6609L40.4921 45.6443L36.5356 47.9052L34.3764 49.1826ZM46.6982 55.1174L42.5947 57.4913L36.6825 50.46L40.7747 48.0974L46.6982 55.1174ZM53.8312 40.6478C50.4938 41.1488 47.2485 42.1392 44.1999 43.587L40.8086 37.6522L37.4173 31.7174C40.1987 29.8053 42.6791 27.4888 44.7765 24.8443C47.9697 20.7955 50.3114 16.1429 51.6608 11.1661L57.5956 21.453L63.2478 31.2426L69.1938 41.5296C64.1855 40.1987 58.959 39.8987 53.8312 40.6478ZM71.1269 21.2609C71.3249 21.2622 71.5198 21.2116 71.6921 21.1139L75.6034 18.853C75.8642 18.7031 76.0548 18.4558 76.1333 18.1653C76.2117 17.8749 76.1716 17.5652 76.0217 17.3043C75.8718 17.0435 75.6244 16.8529 75.3339 16.7745C75.0435 16.696 74.7338 16.7362 74.473 16.8861L70.5617 19.147C70.3439 19.2704 70.1732 19.4625 70.0765 19.6934C69.9797 19.9242 69.9623 20.1806 70.0269 20.4225C70.0916 20.6643 70.2346 20.8778 70.4337 21.0295C70.6328 21.1812 70.8766 21.2626 71.1269 21.2609ZM64.6495 16.4791C64.7468 16.4948 64.8461 16.4948 64.9434 16.4791C65.1986 16.4879 65.4493 16.4099 65.6545 16.258C65.8598 16.1061 66.0076 15.8892 66.0738 15.6426L67.2043 11.2678C67.2805 10.9801 67.2402 10.6738 67.0921 10.4156C66.9439 10.1574 66.6999 9.96807 66.413 9.88869C66.2697 9.84924 66.1201 9.83842 65.9726 9.85685C65.8252 9.87527 65.6828 9.92259 65.5537 9.99608C65.4246 10.0696 65.3112 10.1678 65.22 10.2852C65.1289 10.4025 65.0618 10.5367 65.0225 10.68L63.8921 15.0548C63.8469 15.198 63.8307 15.3488 63.8444 15.4984C63.8581 15.6479 63.9015 15.7932 63.972 15.9258C64.0425 16.0584 64.1387 16.1757 64.2551 16.2707C64.3714 16.3657 64.5055 16.4365 64.6495 16.4791ZM76.8017 27.9304L72.4382 26.8C72.2931 26.7555 72.1406 26.7407 71.9897 26.7564C71.8388 26.7722 71.6926 26.8181 71.5599 26.8915C71.4271 26.9649 71.3105 27.0643 71.2169 27.1837C71.1234 27.3032 71.0548 27.4402 71.0154 27.5867C70.9759 27.7332 70.9663 27.8861 70.9872 28.0364C71.0081 28.1867 71.059 28.3312 71.1369 28.4614C71.2148 28.5915 71.3181 28.7047 71.4407 28.7941C71.5633 28.8835 71.7026 28.9473 71.8504 28.9817L76.2138 30.1122H76.5078C76.8076 30.1511 77.1106 30.0694 77.3501 29.885C77.5897 29.7005 77.7462 29.4285 77.7851 29.1287C77.8241 28.8289 77.7424 28.5259 77.558 28.2863C77.3735 28.0468 77.1015 27.8903 76.8017 27.8513V27.9304Z" fill="#DEE9F7"/>
</g>
<defs>
<filter id="filter0_f_225744_187" x="4.17383" y="0" width="79.6208" height="79.8261" filterUnits="userSpaceOnUse" color-interpolation-filters="sRGB">
<feFlood flood-opacity="0" result="BackgroundImageFix"/>
<feBlend mode="normal" in="SourceGraphic" in2="BackgroundImageFix" result="shape"/>
<feGaussianBlur stdDeviation="3" result="effect1_foregroundBlur_225744_187"/>
</filter>
<clipPath id="clip0_225744_187">
<rect width="67.6208" height="67.8261" fill="white" transform="translate(10.1738 6)"/>
</clipPath>
<clipPath id="clip1_225744_187">
<rect width="67.6208" height="67.8261" fill="white" transform="translate(10.1738 6)"/>
</clipPath>
</defs>
</svg>
