<svg width="33" height="33" viewBox="0 0 33 33" fill="none" xmlns="http://www.w3.org/2000/svg">
<path d="M10.1598 20.9282C9.92593 20.6494 9.93977 20.2452 10.1779 19.9833L10.2484 19.9156L21.2603 10.6755C21.5644 10.4203 22.0177 10.46 22.2729 10.7641C22.5068 11.0428 22.493 11.447 22.2548 11.709L22.1843 11.7767L11.1724 21.0168C10.8683 21.2719 10.415 21.2323 10.1598 20.9282Z" fill="white"/>
<path d="M13.5088 11.2462C13.1133 11.2125 12.82 10.8645 12.8538 10.469C12.8844 10.1094 13.1748 9.83438 13.5245 9.81269L13.631 9.81395L21.7833 10.5095C22.1439 10.5403 22.4194 10.8322 22.4398 11.183L22.4381 11.2898L21.708 19.4397C21.6726 19.8351 21.3234 20.1269 20.928 20.0915C20.5686 20.0593 20.2948 19.7677 20.2746 19.4179L20.2763 19.3115L20.9415 11.8804L13.5088 11.2462Z" fill="white"/>
</svg>
