<svg width="276" height="23" viewBox="0 0 276 23" fill="none" xmlns="http://www.w3.org/2000/svg">
<path d="M6.57387 19V2.88H0.983867V0.799999H14.5039V2.88H8.91387V19H6.57387ZM15.4017 16.66V6.78L17.7417 4.44H27.8817V12.5H17.7417V16.92H27.3617V19H17.7417L15.4017 16.66ZM17.7417 10.68L25.6457 10.42V6.52H17.7417V10.68ZM30.7376 16.66V6.78L33.0776 4.44H42.6976V6.52H33.0776V16.92H42.6976V19H33.0776L30.7376 16.66ZM45.0356 19V0.799999H47.3756V4.44H55.6956L58.0356 6.78V19H55.6956V6.52H47.3756V19H45.0356ZM201.137 16.92V2.88L203.217 0.799999H214.137V2.88H203.477V16.92H212.681V10.498H207.117V8.47H214.917V19H203.217L201.137 16.92ZM218.047 19V6.78L220.387 4.44H228.187V6.52H220.387V19H218.047ZM230.13 16.66V6.78L232.47 4.44H240.53L242.87 6.78V16.66L240.53 19H232.47L230.13 16.66ZM232.47 16.92H240.53V6.52H232.47V16.92ZM258.85 4.44V19H248.19L245.85 16.66V4.44H248.19V16.92H256.51V4.44H258.85ZM261.973 22.64V4.44H272.763L275.103 6.78V16.66L272.763 19H264.313V22.64H261.973ZM272.763 6.52H264.313V16.92H272.763V6.52Z" fill="#FDFDFD"/>
<path d="M63.4986 16.92H72.2086V2.88H63.4986V16.92ZM61.1586 19V0.799999H72.4686L74.5486 2.88V16.92L72.4686 19H61.1586ZM77.5325 16.66V6.78L79.8725 4.44H90.0125V12.5H79.8725V16.92H89.4925V19H79.8725L77.5325 16.66ZM79.8725 10.68L87.7765 10.42V6.52H79.8725V10.68ZM92.9985 19V3.14L95.3385 0.799999H101.578V2.88H95.3385V7.82H101.578V9.9H95.3385V19H92.9985ZM103.533 16.66V6.78L105.873 4.44H116.013V12.5H105.873V16.92H115.493V19H105.873L103.533 16.66ZM105.873 10.68L113.777 10.42V6.52H105.873V10.68ZM118.998 19V4.44H129.658L131.998 6.78V19H129.658V6.52H121.338V19H118.998ZM148.122 0.799999V19H137.332L134.992 16.66V6.78L137.332 4.44H145.782V0.799999H148.122ZM137.332 16.92H145.782V6.52H137.332V16.92ZM151.115 16.66V6.78L153.455 4.44H163.595V12.5H153.455V16.92H163.075V19H153.455L151.115 16.66ZM153.455 10.68L161.359 10.42V6.52H153.455V10.68ZM166.581 19V6.78L168.921 4.44H176.721V6.52H168.921V19H166.581ZM178.663 19V16.92H189.063V12.63H178.663V6.78L181.003 4.44H191.403V6.52H181.003V10.55H191.403V16.738L189.141 19H178.663Z" fill="#08A4FA"/>
</svg>
