<svg width="64" height="64" viewBox="0 0 64 64" fill="none" xmlns="http://www.w3.org/2000/svg">
<circle cx="32" cy="32" r="32" fill="#A7E4F1" fill-opacity="0.1"/>
<path d="M41.4697 35.7123C41.0553 36.1139 40.8649 36.6947 40.9593 37.2643L42.3817 45.1363C42.5017 45.8035 42.2201 46.4787 41.6617 46.8643C41.1145 47.2643 40.3865 47.3123 39.7897 46.9923L32.7033 43.2963C32.4569 43.1651 32.1833 43.0947 31.9033 43.0867H31.4697C31.3193 43.1091 31.1721 43.1571 31.0377 43.2307L23.9497 46.9443C23.5993 47.1203 23.2025 47.1827 22.8137 47.1203C21.8665 46.9411 21.2345 46.0387 21.3897 45.0867L22.8137 37.2147C22.9081 36.6403 22.7177 36.0563 22.3033 35.6483L16.5257 30.0483C16.0425 29.5795 15.8745 28.8755 16.0953 28.2403C16.3097 27.6067 16.8569 27.1443 17.5177 27.0403L25.4697 25.8867C26.0745 25.8243 26.6057 25.4563 26.8777 24.9123L30.3817 17.7283C30.4649 17.5683 30.5721 17.4211 30.7017 17.2963L30.8457 17.1843C30.9209 17.1011 31.0073 17.0323 31.1033 16.9763L31.2777 16.9123L31.5497 16.8003H32.2233C32.8249 16.8627 33.3545 17.2227 33.6313 17.7603L37.1817 24.9123C37.4377 25.4355 37.9353 25.7987 38.5097 25.8867L46.4617 27.0403C47.1337 27.1363 47.6953 27.6003 47.9177 28.2403C48.1273 28.8819 47.9465 29.5859 47.4537 30.0483L41.4697 35.7123Z" fill="#00F6FF"/>
</svg>
